{
.appVersion = "1161";
classes = (
{
code = "zero
one
two
three
four
five
six
seven
eight
nine";
name = figures;
},
{
code = "zero.dnom
one.dnom
two.dnom
three.dnom
four.dnom
five.dnom
six.dnom
seven.dnom
eight.dnom
nine.dnom";
name = dnom;
},
{
code = "zero.numr
one.numr
two.numr
three.numr
four.numr
five.numr
six.numr
seven.numr
eight.numr
nine.numr";
name = numr;
},
{
automatic = 1;

glyphs = (
{
glyphname = A;
layers = (
{
anchors = (
{
name = bottom;
position = "{386, 0}";
},
{
name = ogonek;
position = "{769, 0}";
},
{
name = top;
position = "{386, 688}";
}
);
layerId = "150D365C-6679-4329-86DF-DF48353E59C3";
paths = (
{
closed = 1;
nodes = (
"236 0 LINE",
"265 97 LINE",
"506 97 LINE",
"535 0 LINE",
"769 0 LINE",
"518 688 LINE",
"261 688 LINE",
"10 0 LINE"
);
},
{
closed = 1;
nodes = (
"344 361 LINE SMOOTH",
"354 395 OFFCURVE",
"384 496 OFFCURVE",
"384 496 CURVE",
"388 496 LINE",
"388 496 OFFCURVE",
"418 395 OFFCURVE",
"428 361 CURVE SMOOTH",
"460 251 LINE",
"311 251 LINE"
);
}
);
width = 778;
}
);
leftKerningGroup = A;
note = A;
rightKerningGroup = A;
unicode = 0041;
},
{
glyphname = AE;
layers = (
{
anchors = (
{
name = top;
position = "{585, 688}";
}
);
layerId = "150D365C-6679-4329-86DF-DF48353E59C3";
paths = (
{
closed = 1;
nodes = (
"211 0 LINE",
"245 97 LINE",
"479 97 LINE",
"501 0 LINE",
"962 0 LINE",
"962 165 LINE",
"673 165 LINE",
"649 270 LINE",
"899 270 LINE",
"899 428 LINE",
"612 428 LINE",
"590 523 LINE",
"955 523 LINE",
"955 688 LINE",
"276 688 LINE",
"-15 0 LINE"
);
},
{
closed = 1;
nodes = (
"387 496 LINE",
"391 496 LINE",
"445 251 LINE",
"300 251 LINE"
);
}
);
width = 1000;
}
);
leftKerningGroup = AE;
note = AE;
rightKerningGroup = AE;
unicode = 00C6;
},
{
glyphname = B;
layers = (
{
layerId = "150D365C-6679-4329-86DF-DF48353E59C3";
paths = (
{
closed = 1;
nodes = (
"538 0 LINE SMOOTH",
"649 0 OFFCURVE",
"738 73 OFFCURVE",
"738 183 CURVE SMOOTH",
"738 293 OFFCURVE",
"678 339 OFFCURVE",
"607 355 CURVE",
"607 359 LINE",
"669 377 OFFCURVE",
"722 419 OFFCURVE",
"722 519 CURVE SMOOTH",
"722 618 OFFCURVE",
"636 688 OFFCURVE",
"532 688 CURVE SMOOTH",
"74 688 LINE",
"74 0 LINE"
);
},
{
closed = 1;
nodes = (
"295 278 LINE",
"463 278 LINE SMOOTH",
"492 278 OFFCURVE",
"514 254 OFFCURVE",
"514 224 CURVE SMOOTH",
"514 181 OFFCURVE",
"494 160 OFFCURVE",
"463 160 CURVE SMOOTH",
"295 160 LINE"
);
},
{
closed = 1;
nodes = (
"295 537 LINE",
"447 537 LINE SMOOTH",
"475 537 OFFCURVE",
"498 513 OFFCURVE",
"498 484 CURVE SMOOTH",
"498 442 OFFCURVE",
"478 420 OFFCURVE",
"447 420 CURVE SMOOTH",
"295 420 LINE"
);
}
);
width = 778;
}
);
leftKerningGroup = H;
note = B;
rightKerningGroup = B;
unicode = 0042;
},
{
glyphname = C;
layers = (
{
anchors = (
{
name = bottom;
position = "{391, 0}";
},
{
name = top;
position = "{394, 688}";
}
);
layerId = "150D365C-6679-4329-86DF-DF48353E59C3";
paths = (
{
closed = 1;
nodes = (
"612 -12 OFFCURVE",
"733 90 OFFCURVE",
"733 279 CURVE",
"529 279 LINE",
"529 200 OFFCURVE",
"486 153 OFFCURVE",
"399 153 CURVE SMOOTH",
"309 153 OFFCURVE",
"271 218 OFFCURVE",
"271 312 CURVE SMOOTH",
"271 376 LINE SMOOTH",
"271 470 OFFCURVE",
"307 535 OFFCURVE",
"401 535 CURVE SMOOTH",
"480 535 OFFCURVE",
"522 484 OFFCURVE",
"522 405 CURVE",
"733 405 LINE",
"733 597 OFFCURVE",
"602 700 OFFCURVE",
"402 700 CURVE SMOOTH",
"167 700 OFFCURVE",
"45 579 OFFCURVE",
"45 344 CURVE SMOOTH",
"45 109 OFFCURVE",
"167 -12 OFFCURVE",
"402 -12 CURVE SMOOTH"
);
}
);
width = 778;
}
);
leftKerningGroup = C;
note = C;
rightKerningGroup = C;
unicode = 0043;
},
{
glyphname = Ccedilla;
layers = (
{
background = {
paths = (
{
closed = 1;
nodes = (
"167 700 OFFCURVE",
"45 579 OFFCURVE",
"45 344 CURVE SMOOTH",
"45 124 OFFCURVE",
"152 3 OFFCURVE",
"359 -11 CURVE",
"348 -86 LINE",
"386 -86 LINE SMOOTH",
"415 -86 OFFCURVE",
"424 -98 OFFCURVE",
"424 -118 CURVE SMOOTH",
"424 -141 OFFCURVE",
"408 -149 OFFCURVE",
"384 -149 CURVE SMOOTH",
"332 -149 OFFCURVE",
"267 -141 OFFCURVE",
"267 -141 CURVE",
"267 -195 LINE",
"296 -205 OFFCURVE",
"347 -211 OFFCURVE",
"393 -211 CURVE SMOOTH",
"439 -211 OFFCURVE",
"511 -194 OFFCURVE",
"511 -118 CURVE SMOOTH",
"511 -56 OFFCURVE",
"467 -34 OFFCURVE",
"418 -29 CURVE",
"421 -12 LINE",
"619 -6 OFFCURVE",
"733 96 OFFCURVE",
"733 279 CURVE",
"529 279 LINE",
"529 200 OFFCURVE",
"486 153 OFFCURVE",
"399 153 CURVE SMOOTH",
"309 153 OFFCURVE",
"271 218 OFFCURVE",
"271 312 CURVE SMOOTH",
"271 376 LINE SMOOTH",
"271 470 OFFCURVE",
"307 535 OFFCURVE",
"401 535 CURVE SMOOTH",
"480 535 OFFCURVE",
"522 484 OFFCURVE",
"522 405 CURVE",
"733 405 LINE",
"733 597 OFFCURVE",
"602 700 OFFCURVE",
"402 700 CURVE SMOOTH"
);
}
);
};
components = (
{
name = C;
},
{
name = cedillacomb;
transform = "{1, 0, 0, 1, 275, 0}";
}
);
layerId = "150D365C-6679-4329-86DF-DF48353E59C3";
width = 778;
}
);
leftKerningGroup = C;
note = Ccedilla;
rightKerningGroup = C;
unicode = 00C7;
},
{
glyphname = D;
layers = (
{
anchors = (
{
name = center;
position = "{211, 348}";
},
{
name = top;
position = "{366, 688}";
}
);
layerId = "150D365C-6679-4329-86DF-DF48353E59C3";
paths = (
{
closed = 1;
nodes = (
"372 0 LINE SMOOTH",
"607 0 OFFCURVE",
"733 109 OFFCURVE",
"733 344 CURVE SMOOTH",
"733 579 OFFCURVE",
"607 688 OFFCURVE",
"372 688 CURVE SMOOTH",
"74 688 LINE",
"74 0 LINE"
);
},
{
closed = 1;
nodes = (
"295 523 LINE",
"368 523 LINE SMOOTH",
"465 523 OFFCURVE",
"507 468 OFFCURVE",
"507 374 CURVE SMOOTH",
"507 314 LINE SMOOTH",
"507 220 OFFCURVE",
"465 165 OFFCURVE",
"368 165 CURVE SMOOTH",
"295 165 LINE"
);
}
);
width = 778;
}
);
leftKerningGroup = D;
note = D;
rightKerningGroup = D;
unicode = 0044;
},
{
glyphname = Eth;
layers = (
{
layerId = "150D365C-6679-4329-86DF-DF48353E59C3";
paths = (
{
closed = 1;
nodes = (
"372 0 LINE SMOOTH",
"607 0 OFFCURVE",
"733 109 OFFCURVE",
"733 344 CURVE SMOOTH",
"733 579 OFFCURVE",
"607 688 OFFCURVE",
"372 688 CURVE SMOOTH",
"74 688 LINE",
"74 406 LINE",
"-6 406 LINE",
"-6 288 LINE",
"74 288 LINE",
"74 0 LINE"
);
},
{
closed = 1;
nodes = (
"295 288 LINE",
"409 288 LINE",
"409 406 LINE",
"295 406 LINE",
"295 523 LINE",
"368 523 LINE SMOOTH",
"465 523 OFFCURVE",
"507 468 OFFCURVE",
"507 374 CURVE SMOOTH",
"507 314 LINE SMOOTH",
"507 220 OFFCURVE",
"465 165 OFFCURVE",
"368 165 CURVE SMOOTH",
"295 165 LINE"
);
}
);
width = 778;
}
);
leftKerningGroup = D;
note = Eth;
rightKerningGroup = D;
unicode = 00D0;
},
{
glyphname = E;
layers = (
{
anchors = (
{
name = bottom;
position = "{380, 0}";
},
{
name = ogonek;
position = "{679, 0}";
},
{
name = top;
position = "{378, 688}";
}
);
layerId = "150D365C-6679-4329-86DF-DF48353E59C3";
paths = (
{
closed = 1;
nodes = (
"679 0 LINE",
"679 165 LINE",
"298 165 LINE",
"298 270 LINE",
"618 270 LINE",
"618 428 LINE",
"298 428 LINE",
"298 523 LINE",
"672 523 LINE",
"672 688 LINE",
"77 688 LINE",
"77 0 LINE"
);
}
);
width = 722;
}
);
leftKerningGroup = E;
note = E;
rightKerningGroup = E;
unicode = 0045;
},
{
glyphname = F;
layers = (
{
layerId = "150D365C-6679-4329-86DF-DF48353E59C3";
paths = (
{
closed = 1;
nodes = (
"295 0 LINE",
"295 247 LINE",
"583 247 LINE",
"583 405 LINE",
"295 405 LINE",
"295 523 LINE",
"630 523 LINE",
"630 688 LINE",
"74 688 LINE",
"74 0 LINE"
);
}
);
width = 667;
}
);
leftKerningGroup = H;
note = F;
rightKerningGroup = F;
unicode = 0046;
},
{
glyphname = Fhook;
layers = (
{
layerId = "150D365C-6679-4329-86DF-DF48353E59C3";
paths = (
{
closed = 1;
nodes = (
"218 -210 OFFCURVE",
"295 -157 OFFCURVE",
"295 -29 CURVE SMOOTH",
"295 247 LINE",
"583 247 LINE",
"583 405 LINE",
"295 405 LINE",
"295 523 LINE",
"630 523 LINE",
"630 688 LINE",
"74 688 LINE",
"74 -9 LINE SMOOTH",
"74 -50 OFFCURVE",
"58 -73 OFFCURVE",
"18 -73 CURVE SMOOTH",
"-34 -73 LINE",
"-34 -192 LINE",
"-3 -203 OFFCURVE",
"58 -210 OFFCURVE",
"90 -210 CURVE SMOOTH"
);
}
);
width = 667;
}
);
leftKerningGroup = j;
rightKerningGroup = F;
unicode = 0191;
},
{
glyphname = G;
layers = (
{
anchors = (
{
name = bottom;
position = "{409, 0}";
},
{
name = top;
position = "{411, 688}";
}
);
layerId = "150D365C-6679-4329-86DF-DF48353E59C3";
paths = (
{
closed = 1;
nodes = (
"493 -12 OFFCURVE",
"572 15 OFFCURVE",
"634 68 CURVE",
"656 0 LINE",
"770 0 LINE",
"770 384 LINE",
"403 384 LINE",
"403 244 LINE",
"559 244 LINE",
"559 189 OFFCURVE",
"499 153 OFFCURVE",
"429 153 CURVE SMOOTH",
"324 153 OFFCURVE",
"271 212 OFFCURVE",
"271 312 CURVE SMOOTH",
"271 376 LINE SMOOTH",
"271 476 OFFCURVE",
"324 535 OFFCURVE",
"429 535 CURVE SMOOTH",
"499 535 OFFCURVE",
"559 498 OFFCURVE",
"559 439 CURVE",
"770 439 LINE",
"770 612 OFFCURVE",
"613 700 OFFCURVE",
"420 700 CURVE SMOOTH",
"182 700 OFFCURVE",
"45 579 OFFCURVE",
"45 344 CURVE SMOOTH",
"45 109 OFFCURVE",
"159 -12 OFFCURVE",
"388 -12 CURVE SMOOTH"
);
}
);
width = 833;
}
);
leftKerningGroup = O;
note = G;
rightKerningGroup = G;
unicode = 0047;
},
{
glyphname = H;
layers = (
{
anchors = (
{
name = bottom;
position = "{414, 0}";
},
{
name = center;
position = "{416, 560}";
},
{
name = top;
position = "{416, 688}";
}
);
layerId = "150D365C-6679-4329-86DF-DF48353E59C3";
paths = (
{
closed = 1;
nodes = (
"295 0 LINE",
"295 261 LINE",
"538 261 LINE",
"538 0 LINE",
"759 0 LINE",
"759 688 LINE",
"538 688 LINE",
"538 437 LINE",
"295 437 LINE",
"295 688 LINE",
"74 688 LINE",
"74 0 LINE"
);
}
);
width = 833;
}
);
leftKerningGroup = H;
note = H;
rightKerningGroup = H;
unicode = 0048;
},
{
glyphname = I;
layers = (
{
anchors = (
{
name = bottom;
position = "{194, 0}";
},
{
name = ogonek;
position = "{248, 0}";
},
{
name = top;
position = "{195, 688}";
}
);
guideLines = (
{
angle = 90;
position = "{195, 274}";
}
);
layerId = "150D365C-6679-4329-86DF-DF48353E59C3";
paths = (
{
closed = 1;
nodes = (
"305 0 LINE",
"305 688 LINE",
"84 688 LINE",
"84 0 LINE"
);
}
);
width = 389;
}
);
leftKerningGroup = H;
note = I;
rightKerningGroup = H;
unicode = 0049;
},
{
glyphname = J;
layers = (
{
anchors = (
{
name = top;
position = "{481, 688}";
}
);
layerId = "150D365C-6679-4329-86DF-DF48353E59C3";
paths = (
{
closed = 1;
nodes = (
"486 -12 OFFCURVE",
"593 63 OFFCURVE",
"593 239 CURVE SMOOTH",
"593 688 LINE",
"372 688 LINE",
"372 240 LINE SMOOTH",
"372 176 OFFCURVE",
"348 153 OFFCURVE",
"301 153 CURVE SMOOTH",
"254 153 OFFCURVE",
"230 176 OFFCURVE",
"230 240 CURVE SMOOTH",
"230 248 LINE",
"23 248 LINE",
"23 239 LINE SMOOTH",
"23 63 OFFCURVE",
"130 -12 OFFCURVE",
"308 -12 CURVE SMOOTH"
);
}
);
width = 667;
}
);
leftKerningGroup = J;
note = J;
rightKerningGroup = J;
unicode = 004A;
},
{
glyphname = Jacute;
layers = (
{
background = {
paths = (
{
closed = 1;
nodes = (
"875 -12 OFFCURVE",
"982 63 OFFCURVE",
"982 239 CURVE SMOOTH",
"982 688 LINE",
"761 688 LINE",
"761 240 LINE SMOOTH",
"761 176 OFFCURVE",
"737 153 OFFCURVE",
"690 153 CURVE SMOOTH",
"643 153 OFFCURVE",
"619 176 OFFCURVE",
"619 240 CURVE SMOOTH",
"619 248 LINE",
"412 248 LINE",
"412 239 LINE SMOOTH",
"412 63 OFFCURVE",
"519 -12 OFFCURVE",
"697 -12 CURVE SMOOTH"
);
},
{
closed = 1;
nodes = (
"305 0 LINE",
"305 688 LINE",
"84 688 LINE",
"84 0 LINE"
);
},
{
closed = 1;
nodes = (
"238 752 LINE",
"398 881 LINE",
"396 885 LINE",
"203 885 LINE",
"111 752 LINE"
);
},
{
closed = 1;
nodes = (
"903 752 LINE",
"1063 881 LINE",
"1061 885 LINE",
"868 885 LINE",
"776 752 LINE"
);
}
);
};
components = (
{
name = I;
},
{
name = acutecomb.case;
transform = "{1, 0, 0, 1, 111, 162}";
},
{
name = J;
transform = "{1, 0, 0, 1, 389, 0}";
},
{
name = acutecomb.case;
transform = "{1, 0, 0, 1, 786, 162}";
}
);
layerId = "150D365C-6679-4329-86DF-DF48353E59C3";
width = 1056;
}
);
leftKerningGroup = H;
rightKerningGroup = J;
},
{
glyphname = K;
layers = (
{
anchors = (
{
name = bottom;
position = "{426, 0}";
}
);
background = {
paths = (
{
closed = 1;
nodes = (
"74 688 LINE",
"74 0 LINE",
"295 0 LINE",
"295 154 LINE",
"415 252 LINE",
"558 0 LINE",
"819 0 LINE",
"567 405 LINE",
"814 688 LINE",
"540 688 LINE",
"295 394 LINE",
"295 688 LINE"
);
}
);
};
layerId = "150D365C-6679-4329-86DF-DF48353E59C3";
paths = (
{
closed = 1;
nodes = (
"295 0 LINE",
"295 144 LINE",
"412 257 LINE",
"558 0 LINE",
"819 0 LINE",
"567 405 LINE",
"814 688 LINE",
"540 688 LINE",
"295 394 LINE",
"295 688 LINE",
"74 688 LINE",
"74 0 LINE"
);
}
);
width = 833;
}
);
leftKerningGroup = H;
note = K;
rightKerningGroup = K;
unicode = 004B;
},
{
glyphname = L;
layers = (
{
anchors = (
{
name = bottom;
position = "{370, 0}";
},
{
name = center;
position = "{519, 390}";
},
{
name = top;
position = "{180, 688}";
},
{
name = topright;
position = "{395, 526}";
}
);
layerId = "150D365C-6679-4329-86DF-DF48353E59C3";
paths = (
{
closed = 1;
nodes = (
"648 0 LINE",
"648 176 LINE",
"295 176 LINE",
"295 688 LINE",
"74 688 LINE",
"74 0 LINE"
);
}
);
width = 667;
}
);
leftKerningGroup = H;
note = L;
rightKerningGroup = L;
unicode = 004C;
},
{
glyphname = Lslash;
layers = (
{
layerId = "150D365C-6679-4329-86DF-DF48353E59C3";
paths = (
{
closed = 1;
nodes = (
"648 0 LINE",
"648 176 LINE",
"295 176 LINE",
"295 352 LINE",
"444 447 LINE",
"444 547 LINE",
"295 452 LINE",
"295 688 LINE",
"74 688 LINE",
"74 310 LINE",
"0 263 LINE",
"0 165 LINE",
"74 212 LINE",
"74 0 LINE"
);
}
);
width = 667;
}
);
leftKerningGroup = H;
note = Lslash;
rightKerningGroup = L;
unicode = 0141;
},
{
glyphname = M;
layers = (
{
layerId = "150D365C-6679-4329-86DF-DF48353E59C3";
paths = (
{
closed = 1;
nodes = (
"263 0 LINE",
"263 248 LINE SMOOTH",
"263 352 OFFCURVE",
"245 465 OFFCURVE",
"245 465 CURVE",
"249 465 LINE",
"271 386 LINE",
"377 0 LINE",
"550 0 LINE",
"655 387 LINE",
"677 466 LINE",
"681 466 LINE",
"681 466 OFFCURVE",
"665 352 OFFCURVE",
"665 248 CURVE SMOOTH",
"665 0 LINE",
"884 0 LINE",
"884 688 LINE",
"583 688 LINE",
"520 446 LINE",
"507 394 OFFCURVE",
"493 343 OFFCURVE",
"480 291 CURVE",
"476 291 LINE",
"462 343 OFFCURVE",
"449 394 OFFCURVE",
"435 446 CURVE",
"372 688 LINE",
"60 688 LINE",
"60 0 LINE"
);
}
);
width = 944;
}
);
leftKerningGroup = H;
note = M;
rightKerningGroup = H;
unicode = 004D;
},
{
glyphname = N;
layers = (
{
anchors = (
{
name = bottom;
position = "{414, 0}";
},
{
name = top;
position = "{417, 688}";
}
);
background = {
paths = (
{
closed = 1;
nodes = (
"74 688 LINE",
"74 0 LINE",
"277 0 LINE",
"277 334 LINE",
"566 0 LINE",
"759 0 LINE",
"759 688 LINE",
"556 688 LINE",
"556 349 LINE",
"267 688 LINE"
);
}
);
};
layerId = "150D365C-6679-4329-86DF-DF48353E59C3";
paths = (
{
closed = 1;
nodes = (
"277 0 LINE",
"277 272 LINE SMOOTH",
"277 290 OFFCURVE",
"274 332 OFFCURVE",
"274 332 CURVE",
"279 335 LINE",
"279 335 OFFCURVE",
"307 301 OFFCURVE",
"329 275 CURVE SMOOTH",
"570 0 LINE",
"759 0 LINE",
"759 688 LINE",
"556 688 LINE",
"556 410 LINE SMOOTH",
"556 399 OFFCURVE",
"559 352 OFFCURVE",
"559 352 CURVE",
"554 349 LINE",
"554 349 OFFCURVE",
"493 424 OFFCURVE",
"478 441 CURVE SMOOTH",
"264 688 LINE",
"74 688 LINE",
"74 0 LINE"
);
}
);
width = 833;
}
);
leftKerningGroup = H;
note = N;
rightKerningGroup = H;
unicode = 004E;
},
{
glyphname = Eng;
layers = (
{
layerId = "150D365C-6679-4329-86DF-DF48353E59C3";
paths = (
{
closed = 1;
nodes = (
"704 -210 OFFCURVE",
"759 -157 OFFCURVE",
"759 -29 CURVE SMOOTH",
"759 688 LINE",
"556 688 LINE",
"556 410 LINE SMOOTH",
"556 399 OFFCURVE",
"559 352 OFFCURVE",
"559 352 CURVE",
"554 349 LINE",
"554 349 OFFCURVE",
"493 424 OFFCURVE",
"478 441 CURVE SMOOTH",
"264 688 LINE",
"74 688 LINE",
"74 0 LINE",
"277 0 LINE",
"277 272 LINE SMOOTH",
"277 290 OFFCURVE",
"274 332 OFFCURVE",
"274 332 CURVE",
"279 335 LINE",
"296 315 OFFCURVE",
"312 295 OFFCURVE",
"329 275 CURVE",
"560 11 LINE",
"560 -9 LINE SMOOTH",
"560 -50 OFFCURVE",
"544 -73 OFFCURVE",
"504 -73 CURVE SMOOTH",
"452 -73 LINE",
"452 -192 LINE",
"483 -203 OFFCURVE",
"544 -210 OFFCURVE",
"576 -210 CURVE SMOOTH"
);
}
);
width = 833;
}
);
leftKerningGroup = H;
note = Eng;
rightKerningGroup = H;
unicode = 014A;
},
{
glyphname = Nhookleft;
layers = (
{
layerId = "150D365C-6679-4329-86DF-DF48353E59C3";
paths = (
{
closed = 1;
nodes = (
"218 -210 OFFCURVE",
"277 -157 OFFCURVE",
"277 -29 CURVE SMOOTH",
"277 225 LINE",
"277 245 OFFCURVE",
"277 274 OFFCURVE",
"274 334 CURVE",
"279 335 LINE",
"296 315 OFFCURVE",
"312 295 OFFCURVE",
"329 275 CURVE",
"570 0 LINE",
"759 0 LINE",
"759 688 LINE",
"556 688 LINE",
"556 410 LINE SMOOTH",
"556 399 OFFCURVE",
"559 352 OFFCURVE",
"559 352 CURVE",
"554 349 LINE",
"554 349 OFFCURVE",
"493 424 OFFCURVE",
"478 441 CURVE SMOOTH",
"264 688 LINE",
"74 688 LINE",
"74 -9 LINE SMOOTH",
"74 -50 OFFCURVE",
"58 -73 OFFCURVE",
"18 -73 CURVE SMOOTH",
"-34 -73 LINE",
"-34 -192 LINE",
"-3 -203 OFFCURVE",
"58 -210 OFFCURVE",
"90 -210 CURVE SMOOTH"
);
}
);
width = 833;
}
);
leftKerningGroup = H;
note = uni019D;
rightKerningGroup = H;
unicode = 019D;
},
{
glyphname = O;
layers = (
{
anchors = (
{
name = bottom;
position = "{430, 0}";
},
{
name = center;
position = "{416, 344}";
},
{
name = ogonek;
position = "{467, 0}";
},
{
name = top;
position = "{416, 688}";
},
{
name = topleft;
position = "{20, 688}";
},
{
name = topright;
position = "{534, 688}";
}
);
layerId = "150D365C-6679-4329-86DF-DF48353E59C3";
paths = (
{
closed = 1;
nodes = (
"651 -12 OFFCURVE",
"788 109 OFFCURVE",
"788 344 CURVE SMOOTH",
"788 579 OFFCURVE",
"651 700 OFFCURVE",
"416 700 CURVE SMOOTH",
"181 700 OFFCURVE",
"45 579 OFFCURVE",
"45 344 CURVE SMOOTH",
"45 109 OFFCURVE",
"181 -12 OFFCURVE",
"416 -12 CURVE SMOOTH"
);
},
{
closed = 1;
nodes = (
"319 153 OFFCURVE",
"271 218 OFFCURVE",
"271 312 CURVE SMOOTH",
"271 376 LINE SMOOTH",
"271 470 OFFCURVE",
"319 535 OFFCURVE",
"416 535 CURVE SMOOTH",
"513 535 OFFCURVE",
"562 470 OFFCURVE",
"562 376 CURVE SMOOTH",
"562 312 LINE SMOOTH",
"562 218 OFFCURVE",
"513 153 OFFCURVE",
"416 153 CURVE SMOOTH"
);
}
);
width = 833;
}
);
leftKerningGroup = O;
note = O;
rightKerningGroup = O;
unicode = 004F;
},
{
glyphname = Oslash;
layers = (
{
anchors = (
{
name = bottom;
position = "{417, 0}";
},
{
name = top;
position = "{416, 688}";
}
);
background = {
paths = (
{
closed = 1;
nodes = (
"779 725 LINE",
"671 725 LINE",
"618 659 LINE",
"562 686 OFFCURVE",
"495 700 OFFCURVE",
"416 700 CURVE SMOOTH",
"181 700 OFFCURVE",
"45 579 OFFCURVE",
"45 344 CURVE SMOOTH",
"45 225 OFFCURVE",
"80 135 OFFCURVE",
"144 76 CURVE",
"54 -36 LINE",
"162 -36 LINE",
"214 28 LINE",
"269 1 OFFCURVE",
"337 -12 OFFCURVE",
"416 -12 CURVE SMOOTH",
"651 -12 OFFCURVE",
"788 109 OFFCURVE",
"788 344 CURVE SMOOTH",
"788 463 OFFCURVE",
"753 553 OFFCURVE",
"687 612 CURVE"
);
},
{
closed = 1;
nodes = (
"449 535 OFFCURVE",
"477 527 OFFCURVE",
"499 513 CURVE",
"281 244 LINE",
"274 264 OFFCURVE",
"271 287 OFFCURVE",
"271 312 CURVE SMOOTH",
"271 376 LINE SMOOTH",
"271 470 OFFCURVE",
"319 535 OFFCURVE",
"416 535 CURVE SMOOTH"
);
},
{
closed = 1;
nodes = (
"551 444 LINE",
"558 424 OFFCURVE",
"562 401 OFFCURVE",
"562 376 CURVE SMOOTH",
"562 312 LINE SMOOTH",
"562 218 OFFCURVE",
"513 153 OFFCURVE",
"416 153 CURVE SMOOTH",
"382 153 OFFCURVE",
"355 161 OFFCURVE",
"333 175 CURVE"
);
}
);
};
components = (
{
name = O;
}
);
layerId = "150D365C-6679-4329-86DF-DF48353E59C3";
paths = (
{
closed = 1;
nodes = (
"162 -39 LINE",
"779 723 LINE",
"671 723 LINE",
"54 -39 LINE"
);
}
);
width = 833;
}
);
leftKerningGroup = O;
note = Oslash;
rightKerningGroup = O;
unicode = 00D8;
},
{
glyphname = OE;
layers = (
{
layerId = "150D365C-6679-4329-86DF-DF48353E59C3";
paths = (
{
closed = 1;
nodes = (
"386 -12 OFFCURVE",
"449 14 OFFCURVE",
"495 62 CURVE",
"495 0 LINE",
"973 0 LINE",
"973 165 LINE",
"689 165 LINE",
"689 270 LINE",
"912 270 LINE",
"912 428 LINE",
"689 428 LINE",
"689 523 LINE",
"966 523 LINE",
"966 688 LINE",
"495 688 LINE",
"495 625 LINE",
"449 674 OFFCURVE",
"386 700 OFFCURVE",
"309 700 CURVE SMOOTH",
"134 700 OFFCURVE",
"35 569 OFFCURVE",
"35 344 CURVE SMOOTH",
"35 119 OFFCURVE",
"134 -12 OFFCURVE",
"309 -12 CURVE SMOOTH"
);
},
{
closed = 1;
nodes = (
"280 153 OFFCURVE",
"244 214 OFFCURVE",
"244 343 CURVE SMOOTH",
"244 472 OFFCURVE",
"278 535 OFFCURVE",
"370 535 CURVE SMOOTH",
"461 535 OFFCURVE",
"496 474 OFFCURVE",
"496 342 CURVE SMOOTH",
"496 217 OFFCURVE",
"462 153 OFFCURVE",
"370 153 CURVE SMOOTH"
);
}
);
width = 1000;
}
);
leftKerningGroup = O;
note = OE;
rightKerningGroup = E;
unicode = 0152;
},
{
glyphname = P;
layers = (
{
layerId = "150D365C-6679-4329-86DF-DF48353E59C3";
paths = (
{
closed = 1;
nodes = (
"295 0 LINE",
"295 222 LINE",
"460 222 LINE SMOOTH",
"588 222 OFFCURVE",
"680 314 OFFCURVE",
"680 456 CURVE SMOOTH",
"680 594 OFFCURVE",
"590 688 OFFCURVE",
"460 688 CURVE SMOOTH",
"74 688 LINE",
"74 0 LINE"
);
},
{
closed = 1;
nodes = (
"295 525 LINE",
"386 525 LINE SMOOTH",
"433 525 OFFCURVE",
"456 501 OFFCURVE",
"456 454 CURVE SMOOTH",
"456 407 OFFCURVE",
"432 383 OFFCURVE",
"386 383 CURVE SMOOTH",
"295 383 LINE"
);
}
);
width = 722;
}
);
leftKerningGroup = H;
note = P;
rightKerningGroup = P;
unicode = 0050;
},
{
glyphname = Thorn;
layers = (
{
layerId = "150D365C-6679-4329-86DF-DF48353E59C3";
paths = (
{
closed = 1;
nodes = (
"295 0 LINE",
"295 122 LINE",
"460 122 LINE SMOOTH",
"588 122 OFFCURVE",
"680 214 OFFCURVE",
"680 356 CURVE SMOOTH",
"680 494 OFFCURVE",
"590 588 OFFCURVE",
"460 588 CURVE SMOOTH",
"295 588 LINE",
"295 688 LINE",
"74 688 LINE",
"74 0 LINE"
);
},
{
closed = 1;
nodes = (
"295 425 LINE",
"386 425 LINE SMOOTH",
"433 425 OFFCURVE",
"456 401 OFFCURVE",
"456 354 CURVE SMOOTH",
"456 307 OFFCURVE",
"432 283 OFFCURVE",
"386 283 CURVE SMOOTH",
"295 283 LINE"
);
}
);
width = 722;
}
);
leftKerningGroup = H;
note = Thorn;
rightKerningGroup = P;
unicode = 00DE;
},
{
glyphname = Q;
layers = (
{
layerId = "150D365C-6679-4329-86DF-DF48353E59C3";
paths = (
{
closed = 1;
nodes = (
"775 -131 LINE",
"618 28 LINE",
"727 82 OFFCURVE",
"788 188 OFFCURVE",
"788 344 CURVE SMOOTH",
"788 579 OFFCURVE",
"651 700 OFFCURVE",
"416 700 CURVE SMOOTH",
"181 700 OFFCURVE",
"45 579 OFFCURVE",
"45 344 CURVE SMOOTH",
"45 119 OFFCURVE",
"173 -11 OFFCURVE",
"385 -10 CURVE SMOOTH",
"392 -10 OFFCURVE",
"398 -9 OFFCURVE",
"405 -8 CURVE",
"512 -131 LINE"
);
},
{
closed = 1;
nodes = (
"319 153 OFFCURVE",
"271 218 OFFCURVE",
"271 312 CURVE SMOOTH",
"271 376 LINE SMOOTH",
"271 470 OFFCURVE",
"319 535 OFFCURVE",
"416 535 CURVE SMOOTH",
"513 535 OFFCURVE",
"562 470 OFFCURVE",
"562 376 CURVE SMOOTH",
"562 312 LINE SMOOTH",
"562 218 OFFCURVE",
"513 153 OFFCURVE",
"416 153 CURVE SMOOTH"
);
}
);
width = 833;
}
);
leftKerningGroup = O;
note = Q;
rightKerningGroup = O;
unicode = 0051;
},
{
glyphname = R;
layers = (
{
anchors = (
{
name = bottom;
position = "{391, 0}";
},
{
name = top;
position = "{378, 688}";
}
);
layerId = "150D365C-6679-4329-86DF-DF48353E59C3";
paths = (
{
closed = 1;
nodes = (
"295 0 LINE",
"295 251 LINE",
"377 251 LINE",
"499 0 LINE",
"747 0 LINE",
"594 288 LINE",
"683 321 OFFCURVE",
"727 397 OFFCURVE",
"727 477 CURVE SMOOTH",
"727 589 OFFCURVE",
"648 688 OFFCURVE",
"495 688 CURVE SMOOTH",
"74 688 LINE",
"74 0 LINE"
);
},
{
closed = 1;
nodes = (
"295 531 LINE",
"440 531 LINE SMOOTH",
"474 531 OFFCURVE",
"502 505 OFFCURVE",
"502 468 CURVE SMOOTH",
"502 431 OFFCURVE",
"474 404 OFFCURVE",
"440 404 CURVE SMOOTH",
"295 404 LINE"
);
}
);
width = 778;
}
);
leftKerningGroup = H;
note = R;
rightKerningGroup = R;
unicode = 0052;
},
{
glyphname = S;
layers = (
{
anchors = (
{
name = bottom;
position = "{362, 0}";
},
{
name = top;
position = "{369, 688}";
}
);
layerId = "150D365C-6679-4329-86DF-DF48353E59C3";
paths = (
{
closed = 1;
nodes = (
"556 -12 OFFCURVE",
"686 57 OFFCURVE",
"686 228 CURVE",
"681 483 OFFCURVE",
"280 402 OFFCURVE",
"280 505 CURVE SMOOTH",
"280 529 OFFCURVE",
"310 550 OFFCURVE",
"371 550 CURVE SMOOTH",
"435 550 OFFCURVE",
"460 516 OFFCURVE",
"460 480 CURVE SMOOTH",
"460 476 LINE",
"667 476 LINE",
"667 488 LINE",
"664 635 OFFCURVE",
"529 700 OFFCURVE",
"363 700 CURVE SMOOTH",
"200 700 OFFCURVE",
"54 640 OFFCURVE",
"54 480 CURVE SMOOTH",
"54 212 OFFCURVE",
"460 291 OFFCURVE",
"460 192 CURVE SMOOTH",
"460 149 OFFCURVE",
"403 146 OFFCURVE",
"363 146 CURVE SMOOTH",
"298 146 OFFCURVE",
"252 158 OFFCURVE",
"252 219 CURVE SMOOTH",
"252 223 OFFCURVE",
"252 228 OFFCURVE",
"253 233 CURVE",
"44 233 LINE",
"43 228 OFFCURVE",
"43 223 OFFCURVE",
"43 220 CURVE SMOOTH",
"44 35 OFFCURVE",
"193 -12 OFFCURVE",
"383 -12 CURVE SMOOTH"
);
}
);
width = 722;
}
);
leftKerningGroup = S;
note = S;
rightKerningGroup = S;
unicode = 0053;
},
{
glyphname = Germandbls;
layers = (
{
layerId = "150D365C-6679-4329-86DF-DF48353E59C3";
paths = (
{
closed = 1;
nodes = (
"295 0 LINE",
"295 394 LINE SMOOTH",
"295 493 OFFCURVE",
"323 548 OFFCURVE",
"447 548 CURVE SMOOTH",
"539 548 OFFCURVE",
"579 530 OFFCURVE",
"579 476 CURVE SMOOTH",
"579 437 OFFCURVE",
"552 407 OFFCURVE",
"503 407 CURVE SMOOTH",
"350 407 LINE",
"350 264 LINE",
"536 264 LINE SMOOTH",
"583 264 OFFCURVE",
"605 250 OFFCURVE",
"605 211 CURVE SMOOTH",
"605 175 OFFCURVE",
"583 160 OFFCURVE",
"536 160 CURVE SMOOTH",
"350 160 LINE",
"350 0 LINE",
"607 0 LINE SMOOTH",
"746 0 OFFCURVE",
"830 81 OFFCURVE",
"830 189 CURVE SMOOTH",
"830 270 OFFCURVE",
"789 325 OFFCURVE",
"717 345 CURVE",
"717 354 LINE",
"755 379 OFFCURVE",
"803 423 OFFCURVE",
"803 509 CURVE SMOOTH",
"803 646 OFFCURVE",
"639 698 OFFCURVE",
"465 698 CURVE SMOOTH",
"197 698 OFFCURVE",
"74 583 OFFCURVE",
"74 401 CURVE SMOOTH",
"74 0 LINE"
);
}
);
width = 870;
}
);
leftKerningGroup = H;
note = uni1E9E;
rightKerningGroup = B;
rightMetricsKey = B;
unicode = 1E9E;
},
{
glyphname = Schwa;
layers = (
{
background = {
paths = (
{
closed = 1;
nodes = (
"652 -12 OFFCURVE",
"761 99 OFFCURVE",
"761 339 CURVE SMOOTH",
"761 586 OFFCURVE",
"646 698 OFFCURVE",
"419 698 CURVE SMOOTH",
"228 698 OFFCURVE",
"93 619 OFFCURVE",
"93 446 CURVE",
"236 446 LINE",
"236 541 OFFCURVE",
"312 582 OFFCURVE",
"415 582 CURVE SMOOTH",
"546 582 OFFCURVE",
"605 515 OFFCURVE",
"611 379 CURVE",
"93 379 LINE",
"93 331 LINE SMOOTH",
"93 92 OFFCURVE",
"210 -12 OFFCURVE",
"427 -12 CURVE SMOOTH"
);
},
{
closed = 1;
nodes = (
"320 105 OFFCURVE",
"245 152 OFFCURVE",
"245 273 CURVE",
"609 273 LINE",
"596 157 OFFCURVE",
"544 105 OFFCURVE",
"429 105 CURVE SMOOTH"
);
}
);
};
layerId = "150D365C-6679-4329-86DF-DF48353E59C3";
paths = (
{
closed = 1;
nodes = (
"651 -12 OFFCURVE",
"788 109 OFFCURVE",
"788 344 CURVE SMOOTH",
"788 579 OFFCURVE",
"651 700 OFFCURVE",
"416 700 CURVE SMOOTH",
"214 700 OFFCURVE",
"60 617 OFFCURVE",
"46 446 CURVE",
"269 446 LINE",
"273 517 OFFCURVE",
"326 558 OFFCURVE",
"411 558 CURVE SMOOTH",
"513 558 OFFCURVE",
"561 511 OFFCURVE",
"562 388 CURVE",
"46 388 LINE",
"46 345 LINE SMOOTH",
"46 119 OFFCURVE",
"195 -12 OFFCURVE",
"416 -12 CURVE SMOOTH"
);
},
{
closed = 1;
nodes = (
"336 153 OFFCURVE",
"275 197 OFFCURVE",
"275 266 CURVE",
"558 266 LINE",
"558 197 OFFCURVE",
"496 153 OFFCURVE",
"416 153 CURVE SMOOTH"
);
}
);
width = 833;
}
);
leftKerningGroup = O;
note = uni018F;
rightKerningGroup = O;
rightMetricsKey = O;
unicode = 018F;
},
{
glyphname = T;
layers = (
{
anchors = (
{
name = bottom;
position = "{360, 0}";
},
{
name = center;
position = "{360, 314}";
},
{
name = top;
position = "{360, 688}";
}
);
guideLines = (
{
angle = 90;
position = "{360, 739}";
}
);
layerId = "150D365C-6679-4329-86DF-DF48353E59C3";
paths = (
{
closed = 1;
nodes = (
"470 0 LINE",
"470 512 LINE",
"695 512 LINE",
"695 688 LINE",
"23 688 LINE",
"23 512 LINE",
"249 512 LINE",
"249 0 LINE"
);
}
);
width = 722;
}
);
leftKerningGroup = T;
note = T;
rightKerningGroup = T;
unicode = 0054;
},
{
glyphname = Tbar;
layers = (
{
layerId = "150D365C-6679-4329-86DF-DF48353E59C3";
paths = (
{
closed = 1;
nodes = (
"470 0 LINE",
"470 245 LINE",
"632 245 LINE",
"632 363 LINE",
"470 363 LINE",
"470 512 LINE",
"695 512 LINE",
"695 688 LINE",
"23 688 LINE",
"23 512 LINE",
"249 512 LINE",
"249 363 LINE",
"87 363 LINE",
"87 245 LINE",
"249 245 LINE",
"249 0 LINE"
);
}
);
width = 722;
}
);
leftKerningGroup = T;
note = Tbar;
rightKerningGroup = T;
unicode = 0166;
},
{
glyphname = U;
layers = (
{
anchors = (
{
name = bottom;
position = "{416, 0}";
},
{
name = ogonek;
position = "{535, 0}";
},
{
name = top;
position = "{418, 688}";
},
{
name = topright;
position = "{658, 688}";
}
);
layerId = "150D365C-6679-4329-86DF-DF48353E59C3";
paths = (
{
closed = 1;
nodes = (
"633 -12 OFFCURVE",
"759 87 OFFCURVE",
"759 277 CURVE SMOOTH",
"759 688 LINE",
"538 688 LINE",
"538 280 LINE SMOOTH",
"538 206 OFFCURVE",
"497 153 OFFCURVE",
"416 153 CURVE SMOOTH",
"335 153 OFFCURVE",
"295 206 OFFCURVE",
"295 280 CURVE SMOOTH",
"295 688 LINE",
"74 688 LINE",
"74 277 LINE SMOOTH",
"74 87 OFFCURVE",
"201 -12 OFFCURVE",
"417 -12 CURVE SMOOTH"
);
}
);
width = 833;
}
);
leftKerningGroup = U;
note = U;
rightKerningGroup = U;
unicode = 0055;
},
{
glyphname = V;
layers = (
{
background = {
paths = (
{
closed = 1;
nodes = (
"17 688 LINE",
"261 0 LINE",
"517 0 LINE",
"760 688 LINE",
"534 688 LINE",
"395 228 LINE",
"391 228 LINE",
"253 688 LINE"
);
}
);
};
layerId = "150D365C-6679-4329-86DF-DF48353E59C3";
paths = (
{
closed = 1;
nodes = (
"517 0 LINE",
"760 688 LINE",
"534 688 LINE",
"438 370 LINE SMOOTH",
"428 336 OFFCURVE",
"395 228 OFFCURVE",
"395 228 CURVE SMOOTH",
"391 228 LINE SMOOTH",
"391 228 OFFCURVE",
"359 335 OFFCURVE",
"348 370 CURVE SMOOTH",
"253 688 LINE",
"17 688 LINE",
"261 0 LINE"
);
}
);
width = 778;
}
);
leftKerningGroup = V;
note = V;
rightKerningGroup = V;
unicode = 0056;
},
{
glyphname = W;
layers = (
{
anchors = (
{
name = top;
position = "{501, 688}";
}
);
background = {
paths = (
{
closed = 1;
nodes = (
"591 0 LINE",
"834 0 LINE",
"995 688 LINE",
"775 688 LINE",
"701 298 LINE",
"697 298 LINE",
"614 688 LINE",
"396 688 LINE",
"318 298 LINE",
"314 298 LINE",
"235 688 LINE",
"5 688 LINE",
"166 0 LINE",
"409 0 LINE",
"498 419 LINE",
"502 419 LINE"
);
}
);
};
layerId = "150D365C-6679-4329-86DF-DF48353E59C3";
paths = (
{
closed = 1;
nodes = (
"409 0 LINE",
"477 322 LINE SMOOTH",
"483 351 OFFCURVE",
"498 419 OFFCURVE",
"498 419 CURVE",
"502 419 LINE",
"502 419 OFFCURVE",
"516 357 OFFCURVE",
"523 322 CURVE SMOOTH",
"591 0 LINE",
"834 0 LINE",
"995 688 LINE",
"775 688 LINE",
"719 394 LINE SMOOTH",
"712 359 OFFCURVE",
"701 298 OFFCURVE",
"701 298 CURVE SMOOTH",
"697 298 LINE SMOOTH",
"697 298 OFFCURVE",
"683 367 OFFCURVE",
"677 394 CURVE SMOOTH",
"614 688 LINE",
"396 688 LINE",
"337 394 LINE SMOOTH",
"331 365 OFFCURVE",
"318 298 OFFCURVE",
"318 298 CURVE SMOOTH",
"314 298 LINE SMOOTH",
"314 298 OFFCURVE",
"301 364 OFFCURVE",
"295 394 CURVE SMOOTH",
"235 688 LINE",
"5 688 LINE",
"166 0 LINE"
);
}
);
width = 1000;
}
);
leftKerningGroup = V;
note = W;
rightKerningGroup = V;
unicode = 0057;
},
{
glyphname = X;
layers = (
{
layerId = "150D365C-6679-4329-86DF-DF48353E59C3";
paths = (
{
closed = 1;
nodes = (
"252 0 LINE",
"379 214 LINE",
"383 214 LINE",
"510 0 LINE",
"778 0 LINE",
"532 363 LINE",
"755 688 LINE",
"508 688 LINE",
"403 512 LINE",
"399 512 LINE",
"295 688 LINE",
"28 688 LINE",
"250 364 LINE",
"4 0 LINE"
);
}
);
width = 778;
}
);
leftKerningGroup = X;
note = X;
rightKerningGroup = X;
unicode = 0058;
},
{
glyphname = Y;
layers = (
{
anchors = (
{
name = bottom;
position = "{389, 0}";
},
{
name = top;
position = "{397, 688}";
}
);
layerId = "150D365C-6679-4329-86DF-DF48353E59C3";
paths = (
{
closed = 1;
nodes = (
"501 0 LINE",
"501 267 LINE",
"770 688 LINE",
"529 688 LINE",
"397 459 LINE",
"393 459 LINE",
"261 688 LINE",
"7 688 LINE",
"280 267 LINE",
"280 0 LINE"
);
}
);
width = 778;
}
);
leftKerningGroup = Y;
note = Y;
rightKerningGroup = Y;
unicode = 0059;
},
{
glyphname = Z;
layers = (
{
anchors = (
{
name = top;
position = "{364, 688}";
}
);
layerId = "150D365C-6679-4329-86DF-DF48353E59C3";
paths = (
{
closed = 1;
nodes = (
"691 0 LINE",
"691 165 LINE",
"364 165 LINE",
"683 617 LINE",
"683 688 LINE",
"48 688 LINE",
"48 523 LINE",
"343 523 LINE",
"24 71 LINE",
"24 0 LINE"
);
}
);
width = 722;
}
);
leftKerningGroup = Z;
note = Z;
rightKerningGroup = Z;
unicode = 005A;
},
{
glyphname = Y.loclGUA;
layers = (
{
anchors = (
{
name = top;
position = "{390, 688}";
}
);
layerId = "150D365C-6679-4329-86DF-DF48353E59C3";
paths = (
{
closed = 1;
nodes = (
"570 -12 OFFCURVE",
"715 58 OFFCURVE",
"715 244 CURVE SMOOTH",
"715 688 LINE",
"494 688 LINE",
"494 538 LINE SMOOTH",
"494 424 OFFCURVE",
"469 377 OFFCURVE",
"387 377 CURVE SMOOTH",
"324 377 OFFCURVE",
"295 410 OFFCURVE",
"295 478 CURVE SMOOTH",
"295 688 LINE",
"74 688 LINE",
"74 421 LINE SMOOTH",
"74 272 OFFCURVE",
"182 214 OFFCURVE",
"327 214 CURVE SMOOTH",
"402 214 OFFCURVE",
"458 235 OFFCURVE",
"493 284 CURVE",
"500 284 LINE",
"500 238 LINE SMOOTH",
"500 171 OFFCURVE",
"474 143 OFFCURVE",
"391 143 CURVE SMOOTH",
"318 143 OFFCURVE",
"295 154 OFFCURVE",
"295 191 CURVE",
"74 191 LINE",
"74 161 LINE SMOOTH",
"74 36 OFFCURVE",
"198 -12 OFFCURVE",
"367 -12 CURVE SMOOTH"
);
}
);
width = 789;
}
);
leftKerningGroup = Y.loclGUA;
note = Y.loclGUA;
rightKerningGroup = Y.loclGUA;
},
{
glyphname = a;
layers = (
{
anchors = (
{
name = bottom;
position = "{318, 0}";
},
{
name = ogonek;
position = "{662, 8}";
},
{
name = top;
position = "{320, 526}";
}
);
background = {
paths = (
{
closed = 1;
nodes = (
"308 -12 OFFCURVE",
"367 19 OFFCURVE",
"411 54 CURVE",
"429 14 OFFCURVE",
"478 -12 OFFCURVE",
"558 -12 CURVE SMOOTH",
"625 -12 OFFCURVE",
"662 8 OFFCURVE",
"662 8 CURVE",
"662 123 LINE",
"626 123 LINE SMOOTH",
"604 123 OFFCURVE",
"594 140 OFFCURVE",
"594 162 CURVE SMOOTH",
"594 368 LINE SMOOTH",
"594 498 OFFCURVE",
"466 540 OFFCURVE",
"321 540 CURVE SMOOTH",
"140 540 OFFCURVE",
"45 474 OFFCURVE",
"45 377 CURVE SMOOTH",
"45 372 OFFCURVE",
"45 368 OFFCURVE",
"46 363 CURVE",
"242 363 LINE",
"242 367 LINE SMOOTH",
"242 402 OFFCURVE",
"283 413 OFFCURVE",
"318 413 CURVE SMOOTH",
"361 413 OFFCURVE",
"395 393 OFFCURVE",
"395 350 CURVE SMOOTH",
"395 324 LINE",
"164 324 OFFCURVE",
"30 294 OFFCURVE",
"30 136 CURVE SMOOTH",
"30 26 OFFCURVE",
"106 -12 OFFCURVE",
"216 -12 CURVE SMOOTH"
);
},
{
closed = 1;
nodes = (
"263 112 OFFCURVE",
"229 121 OFFCURVE",
"229 162 CURVE SMOOTH",
"229 201 OFFCURVE",
"277 230 OFFCURVE",
"395 230 CURVE",
"395 185 LINE SMOOTH",
"395 142 OFFCURVE",
"348 112 OFFCURVE",
"297 112 CURVE SMOOTH"
);
}
);
};
layerId = "150D365C-6679-4329-86DF-DF48353E59C3";
paths = (
{
closed = 1;
nodes = (
"305 -12 OFFCURVE",
"364 16 OFFCURVE",
"407 54 CURVE",
"414 54 LINE",
"427 14 OFFCURVE",
"478 -12 OFFCURVE",
"558 -12 CURVE SMOOTH",
"607 -12 OFFCURVE",
"646 -1 OFFCURVE",
"662 8 CURVE",
"662 123 LINE",
"626 123 LINE SMOOTH",
"604 123 OFFCURVE",
"594 140 OFFCURVE",
"594 162 CURVE SMOOTH",
"594 368 LINE SMOOTH",
"594 498 OFFCURVE",
"466 540 OFFCURVE",
"321 540 CURVE SMOOTH",
"140 540 OFFCURVE",
"45 474 OFFCURVE",
"45 377 CURVE SMOOTH",
"45 372 OFFCURVE",
"45 368 OFFCURVE",
"46 363 CURVE",
"242 363 LINE",
"242 367 LINE SMOOTH",
"242 402 OFFCURVE",
"283 413 OFFCURVE",
"318 413 CURVE SMOOTH",
"361 413 OFFCURVE",
"395 393 OFFCURVE",
"395 350 CURVE SMOOTH",
"395 324 LINE",
"164 324 OFFCURVE",
"30 294 OFFCURVE",
"30 136 CURVE SMOOTH",
"30 26 OFFCURVE",
"106 -12 OFFCURVE",
"216 -12 CURVE SMOOTH"
);
},
{
closed = 1;
nodes = (
"263 112 OFFCURVE",
"229 121 OFFCURVE",
"229 162 CURVE SMOOTH",
"229 201 OFFCURVE",
"277 230 OFFCURVE",
"395 230 CURVE",
"395 185 LINE SMOOTH",
"395 142 OFFCURVE",
"348 112 OFFCURVE",
"297 112 CURVE SMOOTH"
);
}
);
width = 667;
}
);
leftKerningGroup = a;
note = a;
rightKerningGroup = a;
unicode = 0061;
},
{
glyphname = ae;
layers = (
{
anchors = (
{
name = top;
position = "{515, 528}";
}
);
layerId = "150D365C-6679-4329-86DF-DF48353E59C3";
paths = (
{
closed = 1;
nodes = (
"350 -12 OFFCURVE",
"421 23 OFFCURVE",
"472 61 CURVE",
"525 11 OFFCURVE",
"606 -12 OFFCURVE",
"706 -12 CURVE SMOOTH",
"882 -12 OFFCURVE",
"972 66 OFFCURVE",
"972 192 CURVE",
"779 192 LINE",
"779 149 OFFCURVE",
"756 115 OFFCURVE",
"692 115 CURVE SMOOTH",
"623 115 OFFCURVE",
"596 157 OFFCURVE",
"596 230 CURVE",
"972 230 LINE",
"972 264 LINE SMOOTH",
"972 454 OFFCURVE",
"872 540 OFFCURVE",
"694 540 CURVE SMOOTH",
"626 540 OFFCURVE",
"566 524 OFFCURVE",
"518 492 CURVE",
"468 527 OFFCURVE",
"396 540 OFFCURVE",
"321 540 CURVE SMOOTH",
"140 540 OFFCURVE",
"45 474 OFFCURVE",
"45 377 CURVE SMOOTH",
"45 372 OFFCURVE",
"45 368 OFFCURVE",
"46 363 CURVE",
"242 363 LINE",
"242 367 LINE SMOOTH",
"242 402 OFFCURVE",
"285 413 OFFCURVE",
"322 413 CURVE SMOOTH",
"363 413 OFFCURVE",
"395 393 OFFCURVE",
"395 350 CURVE SMOOTH",
"395 324 LINE",
"163 324 OFFCURVE",
"30 295 OFFCURVE",
"30 146 CURVE SMOOTH",
"30 24 OFFCURVE",
"117 -12 OFFCURVE",
"256 -12 CURVE SMOOTH"
);
},
{
closed = 1;
nodes = (
"263 112 OFFCURVE",
"229 121 OFFCURVE",
"229 162 CURVE SMOOTH",
"229 201 OFFCURVE",
"277 230 OFFCURVE",
"395 230 CURVE",
"395 185 LINE SMOOTH",
"395 142 OFFCURVE",
"348 112 OFFCURVE",
"297 112 CURVE SMOOTH"
);
},
{
closed = 1;
nodes = (
"603 379 OFFCURVE",
"630 413 OFFCURVE",
"688 413 CURVE SMOOTH",
"741 413 OFFCURVE",
"771 379 OFFCURVE",
"771 324 CURVE",
"597 324 LINE"
);
}
);
width = 1000;
}
);
leftKerningGroup = a;
note = ae;
rightKerningGroup = e;
unicode = 00E6;
},
{
glyphname = b;
layers = (
{
background = {
paths = (
{
closed = 1;
nodes = (
"548 -12 OFFCURVE",
"631 79 OFFCURVE",
"631 265 CURVE SMOOTH",
"631 449 OFFCURVE",
"548 540 OFFCURVE",
"408 540 CURVE SMOOTH",
"348 540 OFFCURVE",
"298 520 OFFCURVE",
"260 479 CURVE",
"260 725 LINE",
"61 725 LINE",
"61 0 LINE",
"223 0 LINE",
"240 75 LINE",
"279 16 OFFCURVE",
"337 -12 OFFCURVE",
"408 -12 CURVE SMOOTH"
);
},
{
closed = 1;
nodes = (
"284 135 OFFCURVE",
"258 185 OFFCURVE",
"258 247 CURVE SMOOTH",
"258 280 LINE SMOOTH",
"258 342 OFFCURVE",
"284 393 OFFCURVE",
"346 393 CURVE SMOOTH",
"408 393 OFFCURVE",
"432 352 OFFCURVE",
"432 290 CURVE SMOOTH",
"432 237 LINE SMOOTH",
"432 175 OFFCURVE",
"408 135 OFFCURVE",
"346 135 CURVE SMOOTH"
);
}
);
};
layerId = "150D365C-6679-4329-86DF-DF48353E59C3";
paths = (
{
closed = 1;
nodes = (
"548 -12 OFFCURVE",
"631 79 OFFCURVE",
"631 265 CURVE SMOOTH",
"631 449 OFFCURVE",
"548 540 OFFCURVE",
"408 540 CURVE SMOOTH",
"351 540 OFFCURVE",
"298 519 OFFCURVE",
"267 479 CURVE",
"260 479 LINE",
"260 725 LINE",
"61 725 LINE",
"61 0 LINE",
"223 0 LINE",
"237 75 LINE",
"244 75 LINE",
"279 15 OFFCURVE",
"340 -12 OFFCURVE",
"408 -12 CURVE SMOOTH"
);
},
{
closed = 1;
nodes = (
"284 135 OFFCURVE",
"258 185 OFFCURVE",
"258 247 CURVE SMOOTH",
"258 280 LINE SMOOTH",
"258 342 OFFCURVE",
"284 393 OFFCURVE",
"346 393 CURVE SMOOTH",
"408 393 OFFCURVE",
"432 352 OFFCURVE",
"432 290 CURVE SMOOTH",
"432 237 LINE SMOOTH",
"432 175 OFFCURVE",
"408 135 OFFCURVE",
"346 135 CURVE SMOOTH"
);
}
);
width = 667;
}
);
leftKerningGroup = l;
note = b;
rightKerningGroup = b;
unicode = 0062;
},
{
glyphname = c;
layers = (
{
anchors = (
{
name = bottom;
position = "{333, 0}";
},
{
name = top;
position = "{333, 526}";
}
);
layerId = "150D365C-6679-4329-86DF-DF48353E59C3";
paths = (
{
closed = 1;
nodes = (
"494 -12 OFFCURVE",
"624 54 OFFCURVE",
"624 215 CURVE",
"439 215 LINE",
"439 150 OFFCURVE",
"402 123 OFFCURVE",
"337 123 CURVE SMOOTH",
"264 123 OFFCURVE",
"235 165 OFFCURVE",
"235 235 CURVE SMOOTH",
"235 292 LINE SMOOTH",
"235 362 OFFCURVE",
"263 405 OFFCURVE",
"333 405 CURVE SMOOTH",
"395 405 OFFCURVE",
"431 377 OFFCURVE",
"431 315 CURVE",
"624 315 LINE",
"624 476 OFFCURVE",
"494 540 OFFCURVE",
"333 540 CURVE SMOOTH",
"153 540 OFFCURVE",
"36 449 OFFCURVE",
"36 264 CURVE SMOOTH",
"36 79 OFFCURVE",
"153 -12 OFFCURVE",
"333 -12 CURVE SMOOTH"
);
}
);
width = 667;
}
);
leftKerningGroup = o;
note = c;
rightKerningGroup = c;
unicode = 0063;
},
{
glyphname = d;
layers = (
{
anchors = (
{
name = center;
position = "{482, 618}";
},
{
name = topright;
position = "{656, 526}";
}
);
background = {
paths = (
{
closed = 1;
nodes = (
"330 -12 OFFCURVE",
"388 16 OFFCURVE",
"427 75 CURVE",
"444 0 LINE",
"606 0 LINE",
"606 725 LINE",
"407 725 LINE",
"407 479 LINE",
"369 520 OFFCURVE",
"318 540 OFFCURVE",
"259 540 CURVE SMOOTH",
"119 540 OFFCURVE",
"36 449 OFFCURVE",
"36 265 CURVE SMOOTH",
"36 79 OFFCURVE",
"119 -12 OFFCURVE",
"259 -12 CURVE SMOOTH"
);
},
{
closed = 1;
nodes = (
"259 135 OFFCURVE",
"235 175 OFFCURVE",
"235 237 CURVE SMOOTH",
"235 290 LINE SMOOTH",
"235 352 OFFCURVE",
"259 393 OFFCURVE",
"321 393 CURVE SMOOTH",
"383 393 OFFCURVE",
"409 342 OFFCURVE",
"409 280 CURVE SMOOTH",
"409 247 LINE SMOOTH",
"409 185 OFFCURVE",
"383 135 OFFCURVE",
"321 135 CURVE SMOOTH"
);
}
);
};
layerId = "150D365C-6679-4329-86DF-DF48353E59C3";
paths = (
{
closed = 1;
nodes = (
"328 -12 OFFCURVE",
"386 15 OFFCURVE",
"423 75 CURVE",
"430 75 LINE",
"444 0 LINE",
"606 0 LINE",
"606 725 LINE",
"407 725 LINE",
"407 479 LINE",
"400 479 LINE",
"369 521 OFFCURVE",
"315 540 OFFCURVE",
"259 540 CURVE SMOOTH",
"119 540 OFFCURVE",
"36 449 OFFCURVE",
"36 265 CURVE SMOOTH",
"36 79 OFFCURVE",
"119 -12 OFFCURVE",
"259 -12 CURVE SMOOTH"
);
},
{
closed = 1;
nodes = (
"259 135 OFFCURVE",
"235 175 OFFCURVE",
"235 237 CURVE SMOOTH",
"235 290 LINE SMOOTH",
"235 352 OFFCURVE",
"259 393 OFFCURVE",
"321 393 CURVE SMOOTH",
"383 393 OFFCURVE",
"409 342 OFFCURVE",
"409 280 CURVE SMOOTH",
"409 247 LINE SMOOTH",
"409 185 OFFCURVE",
"383 135 OFFCURVE",
"321 135 CURVE SMOOTH"
);
}
);
width = 667;
}
);
leftKerningGroup = o;
note = d;
rightKerningGroup = l;
unicode = 0064;
},
{
glyphname = eth;
layers = (
{
layerId = "150D365C-6679-4329-86DF-DF48353E59C3";
paths = (
{
closed = 1;
nodes = (
"513 -12 OFFCURVE",
"631 79 OFFCURVE",
"631 264 CURVE SMOOTH",
"631 419 OFFCURVE",
"567 532 OFFCURVE",
"502 608 CURVE",
"570 616 LINE",
"570 694 LINE",
"431 678 LINE",
"392 710 OFFCURVE",
"363 725 OFFCURVE",
"363 725 CURVE SMOOTH",
"165 725 LINE",
"164 721 LINE",
"183 709 OFFCURVE",
"213 687 OFFCURVE",
"247 656 CURVE",
"149 645 LINE",
"149 567 LINE",
"314 586 LINE",
"332 564 OFFCURVE",
"351 543 OFFCURVE",
"367 518 CURVE",
"361 511 LINE",
"344 518 OFFCURVE",
"319 524 OFFCURVE",
"298 524 CURVE SMOOTH",
"136 524 OFFCURVE",
"36 418 OFFCURVE",
"36 264 CURVE SMOOTH",
"36 79 OFFCURVE",
"153 -12 OFFCURVE",
"333 -12 CURVE SMOOTH"
);
},
{
closed = 1;
nodes = (
"263 123 OFFCURVE",
"235 165 OFFCURVE",
"235 235 CURVE SMOOTH",
"235 292 LINE SMOOTH",
"235 362 OFFCURVE",
"263 405 OFFCURVE",
"333 405 CURVE SMOOTH",
"403 405 OFFCURVE",
"432 362 OFFCURVE",
"432 292 CURVE SMOOTH",
"432 235 LINE SMOOTH",
"432 165 OFFCURVE",
"403 123 OFFCURVE",
"333 123 CURVE SMOOTH"
);
}
);
width = 667;
}
);
leftKerningGroup = o;
note = eth;
rightKerningGroup = o;
unicode = 00F0;
},
{
glyphname = dcaron;
layers = (
{
background = {
paths = (
{
closed = 1;
nodes = (
"328 -12 OFFCURVE",
"386 15 OFFCURVE",
"423 75 CURVE",
"430 75 LINE",
"444 0 LINE",
"606 0 LINE",
"606 725 LINE",
"407 725 LINE",
"407 479 LINE",
"400 479 LINE",
"369 521 OFFCURVE",
"315 540 OFFCURVE",
"259 540 CURVE SMOOTH",
"119 540 OFFCURVE",
"36 449 OFFCURVE",
"36 265 CURVE SMOOTH",
"36 79 OFFCURVE",
"119 -12 OFFCURVE",
"259 -12 CURVE SMOOTH"
);
},
{
closed = 1;
nodes = (
"259 135 OFFCURVE",
"235 175 OFFCURVE",
"235 237 CURVE SMOOTH",
"235 290 LINE SMOOTH",
"235 352 OFFCURVE",
"259 393 OFFCURVE",
"321 393 CURVE SMOOTH",
"383 393 OFFCURVE",
"409 342 OFFCURVE",
"409 280 CURVE SMOOTH",
"409 247 LINE SMOOTH",
"409 185 OFFCURVE",
"383 135 OFFCURVE",
"321 135 CURVE SMOOTH"
);
},
{
closed = 1;
nodes = (
"738 441 LINE",
"807 579 LINE",
"807 719 LINE",
"642 719 LINE",
"642 571 LINE",
"704 571 LINE",
"652 441 LINE"
);
}
);
};
components = (
{
name = d;
},
{
name = caroncomb.alt;
transform = "{1, 0, 0, 1, 656, 0}";
}
);
layerId = "150D365C-6679-4329-86DF-DF48353E59C3";
width = 667;
}
);
leftKerningGroup = o;
note = dcaron;
rightKerningGroup = dcaron;
unicode = 010F;
},
{
glyphname = dcroat;
layers = (
{
background = {
paths = (
{
closed = 1;
nodes = (
"667 668 LINE",
"606 668 LINE",
"606 725 LINE",
"407 725 LINE",
"407 668 LINE",
"336 668 LINE",
"336 575 LINE",
"407 575 LINE",
"407 479 LINE",
"369 520 OFFCURVE",
"318 540 OFFCURVE",
"259 540 CURVE SMOOTH",
"119 540 OFFCURVE",
"36 449 OFFCURVE",
"36 265 CURVE SMOOTH",
"36 79 OFFCURVE",
"119 -12 OFFCURVE",
"259 -12 CURVE SMOOTH",
"330 -12 OFFCURVE",
"388 16 OFFCURVE",
"427 75 CURVE",
"444 0 LINE",
"606 0 LINE",
"606 575 LINE",
"667 575 LINE"
);
},
{
closed = 1;
nodes = (
"383 393 OFFCURVE",
"409 342 OFFCURVE",
"409 280 CURVE SMOOTH",
"409 247 LINE SMOOTH",
"409 185 OFFCURVE",
"383 135 OFFCURVE",
"321 135 CURVE SMOOTH",
"259 135 OFFCURVE",
"235 175 OFFCURVE",
"235 237 CURVE SMOOTH",
"235 290 LINE SMOOTH",
"235 352 OFFCURVE",
"259 393 OFFCURVE",
"321 393 CURVE SMOOTH"
);
}
);
};
components = (
{
name = d;
}
);
layerId = "150D365C-6679-4329-86DF-DF48353E59C3";
paths = (
{
closed = 1;
nodes = (
"667 575 LINE",
"667 668 LINE",
"246 668 LINE",
"246 575 LINE"
);
}
);
width = 667;
}
);
leftKerningGroup = o;
note = dcroat;
rightKerningGroup = l;
unicode = 0111;
},
{
glyphname = e;
layers = (
{
anchors = (
{
name = bottom;
position = "{336, 0}";
},
{
name = ogonek;
position = "{460, 0}";
},
{
name = top;
position = "{332, 528}";
}
);
layerId = "150D365C-6679-4329-86DF-DF48353E59C3";
paths = (
{
closed = 1;
nodes = (
"535 -12 OFFCURVE",
"631 66 OFFCURVE",
"631 192 CURVE",
"438 192 LINE",
"438 149 OFFCURVE",
"412 115 OFFCURVE",
"341 115 CURVE SMOOTH",
"265 115 OFFCURVE",
"235 157 OFFCURVE",
"235 230 CURVE",
"631 230 LINE",
"631 264 LINE SMOOTH",
"631 454 OFFCURVE",
"523 540 OFFCURVE",
"333 540 CURVE SMOOTH",
"153 540 OFFCURVE",
"36 449 OFFCURVE",
"36 264 CURVE SMOOTH",
"36 74 OFFCURVE",
"155 -12 OFFCURVE",
"345 -12 CURVE SMOOTH"
);
},
{
closed = 1;
nodes = (
"243 379 OFFCURVE",
"274 413 OFFCURVE",
"341 413 CURVE SMOOTH",
"397 413 OFFCURVE",
"430 379 OFFCURVE",
"430 324 CURVE",
"236 324 LINE"
);
}
);
width = 667;
}
);
leftKerningGroup = o;
note = e;
rightKerningGroup = e;
unicode = 0065;
},
{
glyphname = f;
layers = (
{
layerId = "150D365C-6679-4329-86DF-DF48353E59C3";
paths = (
{
closed = 1;
nodes = (
"281 0 LINE",
"281 393 LINE",
"383 393 LINE",
"383 528 LINE",
"281 528 LINE",
"281 549 LINE SMOOTH",
"281 586 OFFCURVE",
"293 602 OFFCURVE",
"337 602 CURVE SMOOTH",
"383 602 LINE",
"383 719 LINE",
"356 729 OFFCURVE",
"304 737 OFFCURVE",
"275 737 CURVE SMOOTH",
"161 737 OFFCURVE",
"82 694 OFFCURVE",
"82 550 CURVE SMOOTH",
"82 528 LINE",
"8 528 LINE",
"8 393 LINE",
"82 393 LINE",
"82 0 LINE"
);
}
);
width = 389;
}
);
leftKerningGroup = f;
note = f;
rightKerningGroup = f;
unicode = 0066;
},
{
glyphname = g;
layers = (
{
anchors = (
{
name = top;
position = "{324, 528}";
}
);
layerId = "150D365C-6679-4329-86DF-DF48353E59C3";
paths = (
{
closed = 1;
nodes = (
"432 -210 LINE SMOOTH",
"550 -210 OFFCURVE",
"654 -141 OFFCURVE",
"654 -29 CURVE SMOOTH",
"654 69 OFFCURVE",
"598 140 OFFCURVE",
"476 140 CURVE SMOOTH",
"296 140 LINE SMOOTH",
"245 140 OFFCURVE",
"233 154 OFFCURVE",
"233 171 CURVE SMOOTH",
"233 188 OFFCURVE",
"250 200 OFFCURVE",
"296 200 CURVE SMOOTH",
"372 200 LINE SMOOTH",
"490 200 OFFCURVE",
"594 252 OFFCURVE",
"594 370 CURVE SMOOTH",
"594 414 OFFCURVE",
"571 455 OFFCURVE",
"532 484 CURVE",
"608 504 OFFCURVE",
"654 541 OFFCURVE",
"654 627 CURVE",
"490 627 LINE SMOOTH",
"490 627 OFFCURVE",
"491 583 OFFCURVE",
"412 534 CURVE",
"390 538 OFFCURVE",
"365 540 OFFCURVE",
"325 540 CURVE SMOOTH",
"177 540 OFFCURVE",
"53 500 OFFCURVE",
"53 369 CURVE SMOOTH",
"53 318 OFFCURVE",
"90 274 OFFCURVE",
"138 243 CURVE",
"82 229 OFFCURVE",
"37 183 OFFCURVE",
"37 130 CURVE SMOOTH",
"37 92 OFFCURVE",
"57 59 OFFCURVE",
"89 37 CURVE",
"45 17 OFFCURVE",
"5 -26 OFFCURVE",
"5 -81 CURVE SMOOTH",
"5 -154 OFFCURVE",
"65 -210 OFFCURVE",
"138 -210 CURVE SMOOTH"
);
},
{
closed = 1;
nodes = (
"217 -99 OFFCURVE",
"194 -79 OFFCURVE",
"194 -48 CURVE SMOOTH",
"194 -17 OFFCURVE",
"217 0 OFFCURVE",
"246 0 CURVE SMOOTH",
"402 0 LINE SMOOTH",
"431 0 OFFCURVE",
"455 -18 OFFCURVE",
"455 -49 CURVE SMOOTH",
"455 -80 OFFCURVE",
"431 -99 OFFCURVE",
"402 -99 CURVE SMOOTH",
"246 -99 LINE SMOOTH"
);
},
{
closed = 1;
nodes = (
"276 304 OFFCURVE",
"248 325 OFFCURVE",
"248 370 CURVE SMOOTH",
"248 415 OFFCURVE",
"281 436 OFFCURVE",
"323 436 CURVE SMOOTH",
"370 436 OFFCURVE",
"400 415 OFFCURVE",
"400 370 CURVE SMOOTH",
"400 325 OFFCURVE",
"370 304 OFFCURVE",
"323 304 CURVE SMOOTH"
);
}
);
width = 667;
}
);
leftKerningGroup = g;
note = g;
rightKerningGroup = g;
unicode = 0067;
},
{
glyphname = h;
layers = (
{
anchors = (
{
name = bottom;
position = "{332, 0}";
},
{
name = center;
position = "{207, 627}";
},
{
name = top;
position = "{160, 688}";
}
);
background = {
paths = (
{
closed = 1;
nodes = (
"60 725 LINE",
"60 0 LINE",
"259 0 LINE",
"259 310 LINE SMOOTH",
"259 355 OFFCURVE",
"292 393 OFFCURVE",
"342 393 CURVE SMOOTH",
"386 393 OFFCURVE",
"409 362 OFFCURVE",
"409 318 CURVE SMOOTH",
"409 0 LINE",
"608 0 LINE",
"608 342 LINE SMOOTH",
"608 467 OFFCURVE",
"549 540 OFFCURVE",
"424 540 CURVE SMOOTH",
"361 540 OFFCURVE",
"301 515 OFFCURVE",
"259 473 CURVE",
"259 725 LINE"
);
}
);
};
layerId = "150D365C-6679-4329-86DF-DF48353E59C3";
paths = (
{
closed = 1;
nodes = (
"259 0 LINE",
"259 310 LINE SMOOTH",
"259 355 OFFCURVE",
"292 393 OFFCURVE",
"342 393 CURVE SMOOTH",
"386 393 OFFCURVE",
"409 362 OFFCURVE",
"409 318 CURVE SMOOTH",
"409 0 LINE",
"608 0 LINE",
"608 342 LINE SMOOTH",
"608 467 OFFCURVE",
"549 540 OFFCURVE",
"424 540 CURVE SMOOTH",
"365 540 OFFCURVE",
"300 516 OFFCURVE",
"266 473 CURVE",
"259 473 LINE",
"259 725 LINE",
"60 725 LINE",
"60 0 LINE"
);
}
);
width = 667;
}
);
leftKerningGroup = l;
note = h;
rightKerningGroup = n;
unicode = 0068;
},
{
glyphname = hbar;
layers = (
{
background = {
paths = (
{
closed = 1;
nodes = (
"329 668 LINE",
"259 668 LINE",
"259 725 LINE",
"60 725 LINE",
"60 668 LINE",
"-2 668 LINE",
"-2 575 LINE",
"60 575 LINE",
"60 0 LINE",
"259 0 LINE",
"259 310 LINE SMOOTH",
"259 355 OFFCURVE",
"292 393 OFFCURVE",
"342 393 CURVE SMOOTH",
"386 393 OFFCURVE",
"409 362 OFFCURVE",
"409 318 CURVE SMOOTH",
"409 0 LINE",
"608 0 LINE",
"608 342 LINE SMOOTH",
"608 467 OFFCURVE",
"549 540 OFFCURVE",
"424 540 CURVE SMOOTH",
"361 540 OFFCURVE",
"301 515 OFFCURVE",
"259 473 CURVE",
"259 575 LINE",
"329 575 LINE"
);
}
);
};
components = (
{
alignment = -1;
name = h;
}
);
layerId = "150D365C-6679-4329-86DF-DF48353E59C3";
paths = (
{
closed = 1;
nodes = (
"421 575 LINE",
"421 668 LINE",
"0 668 LINE",
"0 575 LINE"
);
}
);
width = 667;
}
);
leftKerningGroup = h;
note = hbar;
rightKerningGroup = n;
unicode = 0127;
},
{
glyphname = i;
layers = (
{
components = (
{
name = idotless;
}
);
layerId = "150D365C-6679-4329-86DF-DF48353E59C3";
paths = (
{
closed = 1;
nodes = (
"266 586 LINE",
"266 725 LINE",
"67 725 LINE",
"67 586 LINE"
);
}
);
width = 333;
}
);
leftKerningGroup = i;
note = i;
rightKerningGroup = i;
unicode = 0069;
},
{
glyphname = idotless;
layers = (
{
anchors = (
{
name = bottom;
position = "{167, 0}";
},
{
name = ogonek;
position = "{217, 0}";
},
{
name = top;
position = "{166, 528}";
}
);
layerId = "150D365C-6679-4329-86DF-DF48353E59C3";
paths = (
{
closed = 1;
nodes = (
"266 0 LINE",
"266 528 LINE",
"67 528 LINE",
"67 0 LINE"
);
}
);
width = 333;
}
);
leftKerningGroup = i;
note = dotlessi;
rightKerningGroup = i;
unicode = 0131;
},
{
glyphname = j;
layers = (
{
layerId = "150D365C-6679-4329-86DF-DF48353E59C3";
paths = (
{
closed = 1;
nodes = (
"211 -210 OFFCURVE",
"266 -157 OFFCURVE",
"266 -29 CURVE SMOOTH",
"266 528 LINE",
"67 528 LINE",
"67 -9 LINE SMOOTH",
"67 -50 OFFCURVE",
"51 -73 OFFCURVE",
"11 -73 CURVE SMOOTH",
"-41 -73 LINE",
"-41 -192 LINE",
"-10 -203 OFFCURVE",
"51 -210 OFFCURVE",
"83 -210 CURVE SMOOTH"
);
},
{
closed = 1;
nodes = (
"266 590 LINE",
"266 725 LINE",
"67 725 LINE",
"67 590 LINE"
);
}
);
width = 333;
}
);
leftKerningGroup = j;
note = j;
rightKerningGroup = i;
unicode = 006A;
},
{
glyphname = jdotless;
layers = (
{
anchors = (
{
name = top;
position = "{165, 528}";
}
);
layerId = "150D365C-6679-4329-86DF-DF48353E59C3";
paths = (
{
closed = 1;
nodes = (
"211 -210 OFFCURVE",
"266 -157 OFFCURVE",
"266 -29 CURVE SMOOTH",
"266 528 LINE",
"67 528 LINE",
"67 -9 LINE SMOOTH",
"67 -50 OFFCURVE",
"51 -73 OFFCURVE",
"11 -73 CURVE SMOOTH",
"-41 -73 LINE",
"-41 -192 LINE",
"-10 -203 OFFCURVE",
"51 -210 OFFCURVE",
"83 -210 CURVE SMOOTH"
);
}
);
width = 333;
}
);
leftKerningGroup = j;
note = uni0237;
rightKerningGroup = j;
unicode = 0237;
},
{
glyphname = jacute;
layers = (
{
background = {
paths = (
{
closed = 1;
nodes = (
"544 -210 OFFCURVE",
"599 -157 OFFCURVE",
"599 -29 CURVE SMOOTH",
"599 528 LINE",
"400 528 LINE",
"400 -9 LINE SMOOTH",
"400 -50 OFFCURVE",
"384 -73 OFFCURVE",
"344 -73 CURVE SMOOTH",
"292 -73 LINE",
"292 -192 LINE",
"323 -203 OFFCURVE",
"384 -210 OFFCURVE",
"416 -210 CURVE SMOOTH"
);
},
{
closed = 1;
nodes = (
"266 0 LINE",
"266 528 LINE",
"67 528 LINE",
"67 0 LINE"
);
},
{
closed = 1;
nodes = (
"191 592 LINE",
"351 721 LINE",
"349 725 LINE",
"156 725 LINE",
"64 592 LINE"
);
},
{
closed = 1;
nodes = (
"529 592 LINE",
"689 721 LINE",
"687 725 LINE",
"494 725 LINE",
"402 592 LINE"
);
}
);
};
components = (
{
name = idotless;
},
{
name = acutecomb;
transform = "{1, 0, 0, 1, 85, 2}";
},
{
name = jdotless;
transform = "{1, 0, 0, 1, 333, 0}";
},
{
name = acutecomb;
transform = "{1, 0, 0, 1, 417, 2}";
}
);
layerId = "150D365C-6679-4329-86DF-DF48353E59C3";
width = 666;
}
);
leftKerningGroup = i;
rightKerningGroup = j;
},
{
glyphname = k;
layers = (
{
anchors = (
{
name = bottom;
position = "{345, 0}";
}
);
layerId = "150D365C-6679-4329-86DF-DF48353E59C3";
paths = (
{
closed = 1;
nodes = (
"259 0 LINE",
"259 114 LINE",
"328 181 LINE",
"439 0 LINE",
"665 0 LINE",
"465 315 LINE",
"660 528 LINE",
"428 528 LINE",
"259 326 LINE",
"259 726 LINE",
"60 726 LINE",
"60 0 LINE"
);
}
);
width = 667;
}
);
leftKerningGroup = l;
note = k;
rightKerningGroup = k;
unicode = 006B;
},
{
glyphname = kgreenlandic;
layers = (
{
layerId = "150D365C-6679-4329-86DF-DF48353E59C3";
paths = (
{
closed = 1;
nodes = (
"259 0 LINE",
"259 114 LINE",
"328 181 LINE",
"439 0 LINE",
"665 0 LINE",
"465 315 LINE",
"660 528 LINE",
"428 528 LINE",
"259 326 LINE",
"259 528 LINE",
"60 528 LINE",
"60 0 LINE"
);
}
);
width = 667;
}
);
leftKerningGroup = n;
note = kgreenlandic;
rightKerningGroup = k;
unicode = 0138;
},
{
glyphname = l;
layers = (
{
anchors = (
{
name = bottom;
position = "{163, 0}";
},
{
name = center;
position = "{395, 360}";
},
{
name = top;
position = "{162, 700}";
},
{
name = topright;
position = "{311, 526}";
}
);
layerId = "150D365C-6679-4329-86DF-DF48353E59C3";
paths = (
{
closed = 1;
nodes = (
"261 0 LINE",
"261 725 LINE",
"62 725 LINE",
"62 0 LINE"
);
}
);
width = 322;
}
);
leftKerningGroup = l;
note = l;
rightKerningGroup = l;
unicode = 006C;
},
{
glyphname = lcaron;
layers = (
{
background = {
paths = (
{
closed = 1;
nodes = (
"266 0 LINE",
"266 725 LINE",
"67 725 LINE",
"67 0 LINE"
);
},
{
closed = 1;
nodes = (
"420 411 LINE",
"489 549 LINE",
"489 689 LINE",
"324 689 LINE",
"324 541 LINE",
"386 541 LINE",
"334 411 LINE"
);
}
);
};
components = (
{
name = l;
},
{
name = caroncomb.alt;
transform = "{1, 0, 0, 1, 311, 0}";
}
);
layerId = "150D365C-6679-4329-86DF-DF48353E59C3";
width = 322;
}
);
leftKerningGroup = h;
note = lcaron;
rightKerningGroup = dcaron;
unicode = 013E;
},
{
glyphname = ldot;
layers = (
{
background = {
paths = (
{
closed = 1;
nodes = (
"266 0 LINE",
"266 725 LINE",
"67 725 LINE",
"67 0 LINE"
);
},
{
closed = 1;
nodes = (
"492 310 LINE",
"492 449 LINE",
"339 449 LINE",
"339 310 LINE"
);
}
);
};
components = (
{
name = l;
},
{
name = periodcentered.loclCAT;
transform = "{1, 0, 0, 1, 298, 0}";
}
);
layerId = "150D365C-6679-4329-86DF-DF48353E59C3";
width = 322;
}
);
leftKerningGroup = h;
note = ldot;
rightKerningGroup = ldot;
unicode = 0140;
},
{
glyphname = lslash;
layers = (
{
background = {
paths = (
{
closed = 1;
nodes = (
"362 509 LINE",
"266 450 LINE",
"266 725 LINE",
"67 725 LINE",
"67 333 LINE",
"-15 283 LINE",
"-15 185 LINE",
"67 234 LINE",
"67 0 LINE",
"266 0 LINE",
"266 351 LINE",
"362 409 LINE"
);
}
);
};
components = (
{
name = l;
}
);
layerId = "150D365C-6679-4329-86DF-DF48353E59C3";
paths = (
{
closed = 1;
nodes = (
"355 411 LINE",
"355 511 LINE",
"-22 285 LINE",
"-22 187 LINE"
);
}
);
width = 333;
}
);
leftKerningGroup = l;
note = lslash;
rightKerningGroup = l;
unicode = 0142;
},
{
glyphname = m;
layers = (
{
background = {
paths = (
{
closed = 1;
nodes = (
"60 528 LINE",
"60 0 LINE",
"259 0 LINE",
"259 310 LINE SMOOTH",
"259 355 OFFCURVE",
"290 393 OFFCURVE",
"338 393 CURVE SMOOTH",
"379 393 OFFCURVE",
"401 362 OFFCURVE",
"401 318 CURVE SMOOTH",
"401 0 LINE",
"600 0 LINE",
"600 310 LINE SMOOTH",
"600 355 OFFCURVE",
"631 393 OFFCURVE",
"679 393 CURVE SMOOTH",
"720 393 OFFCURVE",
"742 362 OFFCURVE",
"742 318 CURVE SMOOTH",
"742 0 LINE",
"941 0 LINE",
"941 342 LINE SMOOTH",
"941 467 OFFCURVE",
"883 540 OFFCURVE",
"761 540 CURVE SMOOTH",
"690 540 OFFCURVE",
"621 504 OFFCURVE",
"580 449 CURVE",
"554 507 OFFCURVE",
"501 540 OFFCURVE",
"420 540 CURVE SMOOTH",
"347 540 OFFCURVE",
"276 505 OFFCURVE",
"236 449 CURVE",
"223 528 LINE"
);
}
);
};
layerId = "150D365C-6679-4329-86DF-DF48353E59C3";
paths = (
{
closed = 1;
nodes = (
"259 0 LINE",
"259 310 LINE SMOOTH",
"259 355 OFFCURVE",
"290 393 OFFCURVE",
"338 393 CURVE SMOOTH",
"379 393 OFFCURVE",
"401 362 OFFCURVE",
"401 318 CURVE SMOOTH",
"401 0 LINE",
"600 0 LINE",
"600 310 LINE SMOOTH",
"600 355 OFFCURVE",
"631 393 OFFCURVE",
"679 393 CURVE SMOOTH",
"720 393 OFFCURVE",
"742 362 OFFCURVE",
"742 318 CURVE SMOOTH",
"742 0 LINE",
"941 0 LINE",
"941 342 LINE SMOOTH",
"941 467 OFFCURVE",
"883 540 OFFCURVE",
"761 540 CURVE SMOOTH",
"692 540 OFFCURVE",
"625 509 OFFCURVE",
"587 449 CURVE",
"580 449 LINE",
"554 507 OFFCURVE",
"501 540 OFFCURVE",
"420 540 CURVE SMOOTH",
"350 540 OFFCURVE",
"280 509 OFFCURVE",
"243 449 CURVE",
"236 449 LINE",
"223 528 LINE",
"60 528 LINE",
"60 0 LINE"
);
}
);
width = 1000;
}
);
leftKerningGroup = n;
note = m;
rightKerningGroup = n;
unicode = 006D;
},
{
glyphname = n;
layers = (
{
anchors = (
{
name = bottom;
position = "{336, 0}";
},
{
name = top;
position = "{335, 528}";
},
{
name = topright;
position = "{148, 528}";
}
);
background = {
paths = (
{
closed = 1;
nodes = (
"60 528 LINE",
"60 0 LINE",
"259 0 LINE",
"259 310 LINE SMOOTH",
"259 355 OFFCURVE",
"292 393 OFFCURVE",
"342 393 CURVE SMOOTH",
"386 393 OFFCURVE",
"409 362 OFFCURVE",
"409 318 CURVE SMOOTH",
"409 0 LINE",
"608 0 LINE",
"608 342 LINE SMOOTH",
"608 467 OFFCURVE",
"549 540 OFFCURVE",
"424 540 CURVE SMOOTH",
"349 540 OFFCURVE",
"277 504 OFFCURVE",
"236 448 CURVE",
"223 528 LINE"
);
}
);
};
layerId = "150D365C-6679-4329-86DF-DF48353E59C3";
paths = (
{
closed = 1;
nodes = (
"259 0 LINE",
"259 310 LINE SMOOTH",
"259 355 OFFCURVE",
"292 393 OFFCURVE",
"342 393 CURVE SMOOTH",
"386 393 OFFCURVE",
"409 362 OFFCURVE",
"409 318 CURVE SMOOTH",
"409 0 LINE",
"608 0 LINE",
"608 342 LINE SMOOTH",
"608 467 OFFCURVE",
"549 540 OFFCURVE",
"424 540 CURVE SMOOTH",
"351 540 OFFCURVE",
"284 510 OFFCURVE",
"243 448 CURVE",
"236 448 LINE",
"223 528 LINE",
"60 528 LINE",
"60 0 LINE"
);
}
);
width = 667;
}
);
leftKerningGroup = n;
note = n;
rightKerningGroup = n;
unicode = 006E;
},
{
glyphname = eng;
layers = (
{
layerId = "150D365C-6679-4329-86DF-DF48353E59C3";
paths = (
{
closed = 1;
nodes = (
"553 -210 OFFCURVE",
"608 -157 OFFCURVE",
"608 -29 CURVE SMOOTH",
"608 342 LINE SMOOTH",
"608 467 OFFCURVE",
"549 540 OFFCURVE",
"424 540 CURVE SMOOTH",
"351 540 OFFCURVE",
"284 510 OFFCURVE",
"243 448 CURVE",
"236 448 LINE",
"223 528 LINE",
"60 528 LINE",
"60 0 LINE",
"259 0 LINE",
"259 310 LINE SMOOTH",
"259 355 OFFCURVE",
"292 393 OFFCURVE",
"342 393 CURVE SMOOTH",
"386 393 OFFCURVE",
"409 362 OFFCURVE",
"409 318 CURVE SMOOTH",
"409 -9 LINE SMOOTH",
"409 -50 OFFCURVE",
"393 -73 OFFCURVE",
"353 -73 CURVE SMOOTH",
"301 -73 LINE",
"301 -192 LINE",
"332 -203 OFFCURVE",
"393 -210 OFFCURVE",
"425 -210 CURVE SMOOTH"
);
}
);
width = 667;
}
);
leftKerningGroup = n;
note = eng;
rightKerningGroup = n;
unicode = 014B;
},
{
glyphname = nhookleft;
layers = (
{
layerId = "150D365C-6679-4329-86DF-DF48353E59C3";
paths = (
{
closed = 1;
nodes = (
"204 -210 OFFCURVE",
"259 -157 OFFCURVE",
"259 -29 CURVE SMOOTH",
"259 310 LINE SMOOTH",
"259 355 OFFCURVE",
"292 393 OFFCURVE",
"342 393 CURVE SMOOTH",
"386 393 OFFCURVE",
"409 362 OFFCURVE",
"409 318 CURVE SMOOTH",
"409 0 LINE",
"608 0 LINE",
"608 342 LINE SMOOTH",
"608 467 OFFCURVE",
"549 540 OFFCURVE",
"424 540 CURVE SMOOTH",
"351 540 OFFCURVE",
"284 510 OFFCURVE",
"243 448 CURVE",
"236 448 LINE",
"223 528 LINE",
"60 528 LINE",
"60 -9 LINE SMOOTH",
"60 -50 OFFCURVE",
"44 -73 OFFCURVE",
"4 -73 CURVE SMOOTH",
"-48 -73 LINE",
"-48 -192 LINE",
"-17 -203 OFFCURVE",
"44 -210 OFFCURVE",
"76 -210 CURVE SMOOTH"
);
}
);
width = 667;
}
);
leftKerningGroup = j;
note = uni0272;
rightKerningGroup = n;
unicode = 0272;
},
{
glyphname = o;
layers = (
{
anchors = (
{
name = bottom;
position = "{335, 0}";
},
{
name = center;
position = "{334, 264}";
},
{
name = ogonek;
position = "{379, 0}";
},
{
name = top;
position = "{333, 528}";
},
{
name = topright;
position = "{425, 526}";
}
);
guideLines = (
{
angle = 90;
position = "{631, 264}";
}
);
layerId = "150D365C-6679-4329-86DF-DF48353E59C3";
paths = (
{
closed = 1;
nodes = (
"513 -12 OFFCURVE",
"631 79 OFFCURVE",
"631 264 CURVE SMOOTH",
"631 449 OFFCURVE",
"513 540 OFFCURVE",
"333 540 CURVE SMOOTH",
"153 540 OFFCURVE",
"36 449 OFFCURVE",
"36 264 CURVE SMOOTH",
"36 79 OFFCURVE",
"153 -12 OFFCURVE",
"333 -12 CURVE SMOOTH"
);
},
{
closed = 1;
nodes = (
"263 123 OFFCURVE",
"235 165 OFFCURVE",
"235 235 CURVE SMOOTH",
"235 292 LINE SMOOTH",
"235 362 OFFCURVE",
"263 405 OFFCURVE",
"333 405 CURVE SMOOTH",
"403 405 OFFCURVE",
"432 362 OFFCURVE",
"432 292 CURVE SMOOTH",
"432 235 LINE SMOOTH",
"432 165 OFFCURVE",
"403 123 OFFCURVE",
"333 123 CURVE SMOOTH"
);
}
);
width = 667;
}
);
leftKerningGroup = o;
note = o;
rightKerningGroup = o;
unicode = 006F;
},
{
glyphname = oslash;
layers = (
{
anchors = (
{
name = top;
position = "{330, 528}";
}
);
background = {
paths = (
{
closed = 1;
nodes = (
"622 559 LINE",
"530 559 LINE",
"490 509 LINE",
"446 530 OFFCURVE",
"393 540 OFFCURVE",
"333 540 CURVE SMOOTH",
"153 540 OFFCURVE",
"36 449 OFFCURVE",
"36 264 CURVE SMOOTH",
"36 168 OFFCURVE",
"68 97 OFFCURVE",
"123 51 CURVE",
"46 -45 LINE",
"138 -45 LINE",
"185 14 LINE",
"227 -3 OFFCURVE",
"277 -12 OFFCURVE",
"333 -12 CURVE SMOOTH",
"513 -12 OFFCURVE",
"631 79 OFFCURVE",
"631 264 CURVE SMOOTH",
"631 355 OFFCURVE",
"602 424 OFFCURVE",
"551 470 CURVE"
);
},
{
closed = 1;
nodes = (
"358 405 OFFCURVE",
"378 399 OFFCURVE",
"393 389 CURVE",
"238 195 LINE",
"236 207 OFFCURVE",
"235 220 OFFCURVE",
"235 235 CURVE SMOOTH",
"235 292 LINE SMOOTH",
"235 362 OFFCURVE",
"263 405 OFFCURVE",
"333 405 CURVE SMOOTH"
);
},
{
closed = 1;
nodes = (
"430 320 LINE",
"431 311 OFFCURVE",
"432 302 OFFCURVE",
"432 292 CURVE SMOOTH",
"432 235 LINE SMOOTH",
"432 165 OFFCURVE",
"403 123 OFFCURVE",
"333 123 CURVE SMOOTH",
"312 123 OFFCURVE",
"295 127 OFFCURVE",
"281 134 CURVE"
);
}
);
};
components = (
{
name = o;
},
{
name = slashlongcomb;
transform = "{1, 0, 0, 1, 46, 7}";
}
);
layerId = "150D365C-6679-4329-86DF-DF48353E59C3";
width = 667;
}
);
leftKerningGroup = o;
note = oslash;
rightKerningGroup = o;
unicode = 00F8;
},
{
glyphname = oe;
layers = (
{
layerId = "150D365C-6679-4329-86DF-DF48353E59C3";
paths = (
{
closed = 1;
nodes = (
"390 -12 OFFCURVE",
"453 4 OFFCURVE",
"502 38 CURVE",
"552 4 OFFCURVE",
"618 -12 OFFCURVE",
"698 -12 CURVE SMOOTH",
"881 -12 OFFCURVE",
"974 66 OFFCURVE",
"974 192 CURVE",
"781 192 LINE",
"781 149 OFFCURVE",
"758 115 OFFCURVE",
"694 115 CURVE SMOOTH",
"625 115 OFFCURVE",
"598 157 OFFCURVE",
"598 230 CURVE",
"974 230 LINE",
"974 264 LINE SMOOTH",
"974 454 OFFCURVE",
"870 540 OFFCURVE",
"686 540 CURVE SMOOTH",
"612 540 OFFCURVE",
"550 523 OFFCURVE",
"502 490 CURVE",
"454 523 OFFCURVE",
"390 540 OFFCURVE",
"316 540 CURVE SMOOTH",
"142 540 OFFCURVE",
"29 449 OFFCURVE",
"29 264 CURVE SMOOTH",
"29 79 OFFCURVE",
"142 -12 OFFCURVE",
"316 -12 CURVE SMOOTH"
);
},
{
closed = 1;
nodes = (
"253 123 OFFCURVE",
"228 165 OFFCURVE",
"228 235 CURVE SMOOTH",
"228 292 LINE SMOOTH",
"228 362 OFFCURVE",
"253 405 OFFCURVE",
"316 405 CURVE SMOOTH",
"379 405 OFFCURVE",
"405 362 OFFCURVE",
"405 292 CURVE SMOOTH",
"405 235 LINE SMOOTH",
"405 165 OFFCURVE",
"379 123 OFFCURVE",
"316 123 CURVE SMOOTH"
);
},
{
closed = 1;
nodes = (
"605 379 OFFCURVE",
"633 413 OFFCURVE",
"694 413 CURVE SMOOTH",
"744 413 OFFCURVE",
"773 379 OFFCURVE",
"773 324 CURVE",
"599 324 LINE"
);
}
);
width = 1000;
}
);
leftKerningGroup = o;
note = oe;
rightKerningGroup = e;
unicode = 0153;
},
{
glyphname = p;
layers = (
{
background = {
paths = (
{
closed = 1;
nodes = (
"61 528 LINE",
"61 -197 LINE",
"260 -197 LINE",
"260 48 LINE",
"298 7 OFFCURVE",
"348 -12 OFFCURVE",
"408 -12 CURVE SMOOTH",
"548 -12 OFFCURVE",
"631 79 OFFCURVE",
"631 263 CURVE SMOOTH",
"631 449 OFFCURVE",
"548 540 OFFCURVE",
"408 540 CURVE SMOOTH",
"337 540 OFFCURVE",
"279 512 OFFCURVE",
"240 453 CURVE",
"223 528 LINE"
);
},
{
closed = 1;
nodes = (
"284 135 OFFCURVE",
"258 186 OFFCURVE",
"258 248 CURVE SMOOTH",
"258 281 LINE SMOOTH",
"258 343 OFFCURVE",
"284 393 OFFCURVE",
"346 393 CURVE SMOOTH",
"408 393 OFFCURVE",
"432 353 OFFCURVE",
"432 291 CURVE SMOOTH",
"432 238 LINE SMOOTH",
"432 176 OFFCURVE",
"408 135 OFFCURVE",
"346 135 CURVE SMOOTH"
);
}
);
};
layerId = "150D365C-6679-4329-86DF-DF48353E59C3";
paths = (
{
closed = 1;
nodes = (
"260 -197 LINE",
"260 48 LINE",
"267 48 LINE",
"298 6 OFFCURVE",
"351 -12 OFFCURVE",
"408 -12 CURVE SMOOTH",
"548 -12 OFFCURVE",
"631 79 OFFCURVE",
"631 263 CURVE SMOOTH",
"631 449 OFFCURVE",
"548 540 OFFCURVE",
"408 540 CURVE SMOOTH",
"340 540 OFFCURVE",
"284 516 OFFCURVE",
"247 453 CURVE",
"240 453 LINE",
"223 528 LINE",
"61 528 LINE",
"61 -197 LINE"
);
},
{
closed = 1;
nodes = (
"284 135 OFFCURVE",
"258 186 OFFCURVE",
"258 248 CURVE SMOOTH",
"258 281 LINE SMOOTH",
"258 343 OFFCURVE",
"284 393 OFFCURVE",
"346 393 CURVE SMOOTH",
"408 393 OFFCURVE",
"432 353 OFFCURVE",
"432 291 CURVE SMOOTH",
"432 238 LINE SMOOTH",
"432 176 OFFCURVE",
"408 135 OFFCURVE",
"346 135 CURVE SMOOTH"
);
}
);
width = 667;
}
);
leftKerningGroup = n;
note = p;
rightKerningGroup = o;
unicode = 0070;
},
{
glyphname = thorn;
layers = (
{
layerId = "150D365C-6679-4329-86DF-DF48353E59C3";
paths = (
{
closed = 1;
nodes = (
"260 -197 LINE",
"260 48 LINE",
"267 48 LINE",
"298 6 OFFCURVE",
"351 -12 OFFCURVE",
"408 -12 CURVE SMOOTH",
"548 -12 OFFCURVE",
"631 79 OFFCURVE",
"631 263 CURVE SMOOTH",
"631 449 OFFCURVE",
"548 540 OFFCURVE",
"408 540 CURVE SMOOTH",
"340 540 OFFCURVE",
"289 503 OFFCURVE",
"267 453 CURVE",
"260 453 LINE",
"260 728 LINE",
"61 728 LINE",
"61 -197 LINE"
);
},
{
closed = 1;
nodes = (
"284 135 OFFCURVE",
"258 186 OFFCURVE",
"258 248 CURVE SMOOTH",
"258 281 LINE SMOOTH",
"258 343 OFFCURVE",
"284 393 OFFCURVE",
"346 393 CURVE SMOOTH",
"408 393 OFFCURVE",
"432 353 OFFCURVE",
"432 291 CURVE SMOOTH",
"432 238 LINE SMOOTH",
"432 176 OFFCURVE",
"408 135 OFFCURVE",
"346 135 CURVE SMOOTH"
);
}
);
width = 667;
}
);
leftKerningGroup = h;
note = thorn;
rightKerningGroup = o;
unicode = 00FE;
},
{
glyphname = q;
layers = (
{
layerId = "150D365C-6679-4329-86DF-DF48353E59C3";
paths = (
{
closed = 1;
nodes = (
"606 -197 LINE",
"606 528 LINE",
"444 528 LINE",
"427 453 LINE",
"420 453 LINE",
"386 510 OFFCURVE",
"327 540 OFFCURVE",
"259 540 CURVE SMOOTH",
"119 540 OFFCURVE",
"36 449 OFFCURVE",
"36 263 CURVE SMOOTH",
"36 79 OFFCURVE",
"119 -12 OFFCURVE",
"259 -12 CURVE SMOOTH",
"315 -12 OFFCURVE",
"364 9 OFFCURVE",
"400 48 CURVE",
"407 48 LINE",
"407 -197 LINE"
);
},
{
closed = 1;
nodes = (
"259 135 OFFCURVE",
"235 176 OFFCURVE",
"235 238 CURVE SMOOTH",
"235 291 LINE SMOOTH",
"235 353 OFFCURVE",
"259 393 OFFCURVE",
"321 393 CURVE SMOOTH",
"383 393 OFFCURVE",
"409 343 OFFCURVE",
"409 281 CURVE SMOOTH",
"409 248 LINE SMOOTH",
"409 186 OFFCURVE",
"383 135 OFFCURVE",
"321 135 CURVE SMOOTH"
);
}
);
width = 667;
}
);
leftKerningGroup = o;
note = q;
rightKerningGroup = q;
unicode = 0071;
},
{
glyphname = r;
layers = (
{
anchors = (
{
name = bottom;
position = "{158, 0}";
},
{
name = top;
position = "{251, 528}";
}
);
layerId = "150D365C-6679-4329-86DF-DF48353E59C3";
paths = (
{
closed = 1;
nodes = (
"259 0 LINE",
"259 235 LINE SMOOTH",
"259 315 OFFCURVE",
"290 362 OFFCURVE",
"376 362 CURVE SMOOTH",
"440 362 LINE",
"440 529 LINE",
"440 529 OFFCURVE",
"418 541 OFFCURVE",
"381 541 CURVE SMOOTH",
"321 541 OFFCURVE",
"268 508 OFFCURVE",
"243 448 CURVE",
"236 448 LINE",
"223 528 LINE",
"60 528 LINE",
"60 0 LINE"
);
}
);
width = 444;
}
);
leftKerningGroup = n;
note = r;
rightKerningGroup = r;
unicode = 0072;
},
{
glyphname = s;
layers = (
{
anchors = (
{
name = bottom;
position = "{307, 0}";
},
{
name = top;
position = "{298, 528}";
}
);
layerId = "150D365C-6679-4329-86DF-DF48353E59C3";
paths = (
{
closed = 1;
nodes = (
"449 -12 OFFCURVE",
"577 30 OFFCURVE",
"577 175 CURVE SMOOTH",
"577 390 OFFCURVE",
"236 311 OFFCURVE",
"236 387 CURVE SMOOTH",
"236 421 OFFCURVE",
"291 421 OFFCURVE",
"308 421 CURVE SMOOTH",
"342 421 OFFCURVE",
"376 407 OFFCURVE",
"379 378 CURVE SMOOTH",
"379 375 OFFCURVE",
"379 373 OFFCURVE",
"379 370 CURVE",
"562 370 LINE",
"562 375 OFFCURVE",
"563 379 OFFCURVE",
"563 384 CURVE SMOOTH",
"563 498 OFFCURVE",
"431 540 OFFCURVE",
"311 540 CURVE SMOOTH",
"172 540 OFFCURVE",
"46 500 OFFCURVE",
"46 361 CURVE SMOOTH",
"46 153 OFFCURVE",
"387 225 OFFCURVE",
"387 146 CURVE SMOOTH",
"387 109 OFFCURVE",
"332 107 OFFCURVE",
"304 107 CURVE SMOOTH",
"258 107 OFFCURVE",
"220 124 OFFCURVE",
"219 161 CURVE SMOOTH",
"219 164 OFFCURVE",
"219 168 OFFCURVE",
"220 172 CURVE",
"35 172 LINE",
"34 167 OFFCURVE",
"34 162 OFFCURVE",
"34 158 CURVE SMOOTH",
"34 36 OFFCURVE",
"177 -12 OFFCURVE",
"304 -12 CURVE SMOOTH"
);
}
);
width = 611;
}
);
leftKerningGroup = s;
note = s;
rightKerningGroup = s;
unicode = 0073;
},
{
glyphname = germandbls;
layers = (
{
layerId = "150D365C-6679-4329-86DF-DF48353E59C3";
paths = (
{
closed = 1;
nodes = (
"266 0 LINE",
"266 534 LINE SMOOTH",
"266 573 OFFCURVE",
"293 603 OFFCURVE",
"336 603 CURVE SMOOTH",
"380 603 OFFCURVE",
"406 573 OFFCURVE",
"406 534 CURVE SMOOTH",
"406 496 OFFCURVE",
"378 466 OFFCURVE",
"341 466 CURVE SMOOTH",
"314 466 LINE",
"314 325 LINE",
"342 325 LINE SMOOTH",
"387 325 OFFCURVE",
"425 282 OFFCURVE",
"425 229 CURVE SMOOTH",
"425 179 OFFCURVE",
"388 136 OFFCURVE",
"342 136 CURVE SMOOTH",
"314 136 LINE",
"314 0 LINE",
"378 0 LINE SMOOTH",
"520 0 OFFCURVE",
"624 70 OFFCURVE",
"624 214 CURVE SMOOTH",
"624 294 OFFCURVE",
"574 369 OFFCURVE",
"503 395 CURVE",
"503 400 LINE",
"561 424 OFFCURVE",
"597 484 OFFCURVE",
"597 548 CURVE SMOOTH",
"597 694 OFFCURVE",
"458 737 OFFCURVE",
"336 737 CURVE SMOOTH",
"206 737 OFFCURVE",
"67 675 OFFCURVE",
"67 517 CURVE SMOOTH",
"67 0 LINE"
);
}
);
width = 667;
}
);
leftKerningGroup = f;
note = germandbls;
rightKerningGroup = B;
unicode = 00DF;
},
{
glyphname = longs;
layers = (
{
layerId = "150D365C-6679-4329-86DF-DF48353E59C3";
paths = (
{
closed = 1;
nodes = (
"281 0 LINE",
"281 549 LINE SMOOTH",
"281 586 OFFCURVE",
"293 602 OFFCURVE",
"337 602 CURVE SMOOTH",
"383 602 LINE",
"383 719 LINE",
"356 729 OFFCURVE",
"304 737 OFFCURVE",
"275 737 CURVE SMOOTH",
"161 737 OFFCURVE",
"82 694 OFFCURVE",
"82 550 CURVE SMOOTH",
"82 528 LINE",
"8 528 LINE",
"8 393 LINE",
"82 393 LINE",
"82 0 LINE"
);
}
);
width = 390;
}
);
leftKerningGroup = f;
note = longs;
rightKerningGroup = f;
unicode = 017F;
},
{
glyphname = t;
layers = (
{
anchors = (
{
name = bottom;
position = "{246, 0}";
},
{
name = center;
position = "{202, 278}";
},
{
name = topright;
position = "{340, 548}";
}
);
layerId = "150D365C-6679-4329-86DF-DF48353E59C3";
paths = (
{
closed = 1;
nodes = (
"319 -12 OFFCURVE",
"379 -5 OFFCURVE",
"412 6 CURVE",
"412 123 LINE",
"356 123 LINE SMOOTH",
"311 123 OFFCURVE",
"300 147 OFFCURVE",
"300 192 CURVE SMOOTH",
"300 393 LINE",
"412 393 LINE",
"412 528 LINE",
"300 528 LINE",
"300 688 LINE",
"152 688 LINE",
"109 528 LINE",
"27 528 LINE",
"27 393 LINE",
"101 393 LINE",
"101 129 LINE SMOOTH",
"101 21 OFFCURVE",
"176 -12 OFFCURVE",
"284 -12 CURVE SMOOTH"
);
}
);
width = 444;
}
);
leftKerningGroup = t;
note = t;
rightKerningGroup = t;
unicode = 0074;
},
{
glyphname = tbar;
layers = (
{
background = {
paths = (
{
closed = 1;
nodes = (
"412 528 LINE",
"300 528 LINE",
"300 688 LINE",
"152 688 LINE",
"109 528 LINE",
"27 528 LINE",
"27 393 LINE",
"101 393 LINE",
"101 310 LINE",
"31 310 LINE",
"31 209 LINE",
"101 209 LINE",
"101 129 LINE SMOOTH",
"101 21 OFFCURVE",
"176 -12 OFFCURVE",
"284 -12 CURVE SMOOTH",
"319 -12 OFFCURVE",
"379 -5 OFFCURVE",
"412 6 CURVE",
"412 123 LINE",
"356 123 LINE SMOOTH",
"311 123 OFFCURVE",
"300 147 OFFCURVE",
"300 192 CURVE SMOOTH",
"300 209 LINE",
"391 209 LINE",
"391 310 LINE",
"300 310 LINE",
"300 393 LINE",
"412 393 LINE"
);
}
);
};
layerId = "150D365C-6679-4329-86DF-DF48353E59C3";
paths = (
{
closed = 1;
nodes = (
"319 -12 OFFCURVE",
"379 -5 OFFCURVE",
"412 6 CURVE",
"412 123 LINE",
"356 123 LINE SMOOTH",
"311 123 OFFCURVE",
"300 147 OFFCURVE",
"300 192 CURVE SMOOTH",
"300 209 LINE",
"392 209 LINE",
"392 310 LINE",
"300 310 LINE",
"300 393 LINE",
"412 393 LINE",
"412 528 LINE",
"300 528 LINE",
"300 688 LINE",
"152 688 LINE",
"109 528 LINE",
"27 528 LINE",
"27 393 LINE",
"101 393 LINE",
"101 310 LINE",
"27 310 LINE",
"27 209 LINE",
"101 209 LINE",
"101 129 LINE SMOOTH",
"101 21 OFFCURVE",
"176 -12 OFFCURVE",
"284 -12 CURVE SMOOTH"
);
}
);
width = 444;
}
);
leftKerningGroup = t;
note = tbar;
rightKerningGroup = t;
unicode = 0167;
},
{
glyphname = tcaron;
layers = (
{
background = {
paths = (
{
closed = 1;
nodes = (
"412 528 LINE",
"300 528 LINE",
"300 688 LINE",
"152 688 LINE",
"109 528 LINE",
"27 528 LINE",
"27 393 LINE",
"101 393 LINE",
"101 129 LINE SMOOTH",
"101 21 OFFCURVE",
"176 -12 OFFCURVE",
"284 -12 CURVE SMOOTH",
"319 -12 OFFCURVE",
"379 -5 OFFCURVE",
"412 6 CURVE",
"412 123 LINE",
"356 123 LINE SMOOTH",
"311 123 OFFCURVE",
"300 147 OFFCURVE",
"300 192 CURVE SMOOTH",
"300 393 LINE",
"412 393 LINE"
);
},
{
closed = 1;
nodes = (
"529 480 LINE",
"583 579 LINE",
"583 688 LINE",
"454 688 LINE",
"454 572 LINE",
"503 572 LINE",
"462 480 LINE"
);
}
);
};
components = (
{
name = t;
},
{
name = caroncomb.alt;
transform = "{1, 0, 0, 1, 340, 22}";
}
);
layerId = "150D365C-6679-4329-86DF-DF48353E59C3";
width = 444;
}
);
leftKerningGroup = t;
note = tcaron;
rightKerningGroup = t;
unicode = 0165;
},
{
glyphname = u;
layers = (
{
anchors = (
{
name = bottom;
position = "{333, 0}";
},
{
name = ogonek;
position = "{606, 0}";
},
{
name = top;
position = "{331, 528}";
},
{
name = topright;
position = "{477, 528}";
}
);
layerId = "150D365C-6679-4329-86DF-DF48353E59C3";
paths = (
{
closed = 1;
nodes = (
"314 -12 OFFCURVE",
"387 21 OFFCURVE",
"426 80 CURVE",
"433 80 LINE",
"443 0 LINE",
"606 0 LINE",
"606 528 LINE",
"407 528 LINE",
"407 218 LINE SMOOTH",
"407 173 OFFCURVE",
"374 135 OFFCURVE",
"324 135 CURVE SMOOTH",
"280 135 OFFCURVE",
"257 166 OFFCURVE",
"257 210 CURVE SMOOTH",
"257 528 LINE",
"58 528 LINE",
"58 186 LINE SMOOTH",
"58 61 OFFCURVE",
"117 -12 OFFCURVE",
"242 -12 CURVE SMOOTH"
);
}
);
width = 667;
}
);
leftKerningGroup = u;
note = u;
rightKerningGroup = u;
unicode = 0075;
},
{
glyphname = v;
layers = (
{
layerId = "150D365C-6679-4329-86DF-DF48353E59C3";
paths = (
{
closed = 1;
nodes = (
"409 0 LINE",
"611 528 LINE",
"415 528 LINE",
"364 357 LINE SMOOTH",
"350 310 OFFCURVE",
"318 199 OFFCURVE",
"318 199 CURVE SMOOTH",
"311 199 LINE SMOOTH",
"311 199 OFFCURVE",
"277 317 OFFCURVE",
"265 357 CURVE SMOOTH",
"214 528 LINE",
"0 528 LINE",
"200 0 LINE"
);
}
);
width = 611;
}
);
leftKerningGroup = v;
note = v;
rightKerningGroup = v;
unicode = 0076;
},
{
glyphname = w;
layers = (
{
anchors = (
{
name = top;
position = "{476, 528}";
}
);
layerId = "150D365C-6679-4329-86DF-DF48353E59C3";
paths = (
{
closed = 1;
nodes = (
"387 0 LINE",
"438 179 LINE SMOOTH",
"453 230 OFFCURVE",
"470 294 OFFCURVE",
"470 294 CURVE",
"474 294 LINE",
"474 294 OFFCURVE",
"492 228 OFFCURVE",
"506 178 CURVE SMOOTH",
"556 0 LINE",
"750 0 LINE",
"944 528 LINE",
"750 528 LINE",
"707 365 LINE SMOOTH",
"692 309 OFFCURVE",
"669 216 OFFCURVE",
"669 216 CURVE SMOOTH",
"662 216 LINE SMOOTH",
"662 216 OFFCURVE",
"636 317 OFFCURVE",
"624 365 CURVE SMOOTH",
"582 528 LINE",
"384 528 LINE",
"341 366 LINE SMOOTH",
"329 321 OFFCURVE",
"301 216 OFFCURVE",
"301 216 CURVE SMOOTH",
"294 216 LINE SMOOTH",
"294 216 OFFCURVE",
"265 330 OFFCURVE",
"256 367 CURVE SMOOTH",
"215 528 LINE",
"0 528 LINE",
"193 0 LINE"
);
}
);
width = 944;
}
);
leftKerningGroup = v;
note = w;
rightKerningGroup = v;
unicode = 0077;
},
{
glyphname = x;
layers = (
{
layerId = "150D365C-6679-4329-86DF-DF48353E59C3";
paths = (
{
closed = 1;
nodes = (
"225 0 LINE",
"326 166 LINE",
"330 166 LINE",
"430 0 LINE",
"662 0 LINE",
"464 275 LINE",
"650 528 LINE",
"430 528 LINE",
"346 388 LINE",
"342 388 LINE",
"258 528 LINE",
"24 528 LINE",
"207 280 LINE",
"4 0 LINE"
);
}
);
width = 667;
}
);
leftKerningGroup = x;
note = x;
rightKerningGroup = x;
unicode = 0078;
},
{
glyphname = y;
layers = (
{
anchors = (
{
name = bottom;
position = "{521, 0}";
},
{
name = top;
position = "{309, 528}";
}
);
layerId = "150D365C-6679-4329-86DF-DF48353E59C3";
paths = (
{
closed = 1;
nodes = (
"310 -210 OFFCURVE",
"375 -115 OFFCURVE",
"423 16 CURVE SMOOTH",
"611 528 LINE",
"415 528 LINE",
"358 313 LINE SMOOTH",
"346 266 OFFCURVE",
"322 177 OFFCURVE",
"322 177 CURVE SMOOTH",
"315 177 LINE SMOOTH",
"315 177 OFFCURVE",
"289 271 OFFCURVE",
"276 314 CURVE SMOOTH",
"214 528 LINE",
"0 528 LINE",
"210 0 LINE",
"205 -26 OFFCURVE",
"191 -73 OFFCURVE",
"121 -73 CURVE SMOOTH",
"41 -73 LINE",
"41 -192 LINE",
"66 -201 OFFCURVE",
"108 -210 OFFCURVE",
"156 -210 CURVE SMOOTH"
);
}
);
width = 611;
}
);
leftKerningGroup = y;
note = y;
rightKerningGroup = y;
unicode = 0079;
},
{
glyphname = z;
layers = (
{
anchors = (
{
name = top;
position = "{284, 528}";
}
);
layerId = "150D365C-6679-4329-86DF-DF48353E59C3";
paths = (
{
closed = 1;
nodes = (
"535 0 LINE",
"535 135 LINE",
"302 135 LINE",
"526 466 LINE",
"526 528 LINE",
"32 528 LINE",
"32 393 LINE",
"242 393 LINE",
"20 65 LINE",
"20 0 LINE"
);
}
);
width = 556;
}
);
leftKerningGroup = z;
note = z;
rightKerningGroup = z;
unicode = 007A;
},
{
glyphname = y.loclGUA;
layers = (
{
anchors = (
{
name = top;
position = "{331, 528}";
}
);
layerId = "150D365C-6679-4329-86DF-DF48353E59C3";
paths = (
{
closed = 1;
nodes = (
"491 -210 OFFCURVE",
"607 -142 OFFCURVE",
"607 27 CURVE SMOOTH",
"607 528 LINE",
"408 528 LINE",
"408 252 LINE SMOOTH",
"408 207 OFFCURVE",
"375 169 OFFCURVE",
"325 169 CURVE SMOOTH",
"281 169 OFFCURVE",
"258 200 OFFCURVE",
"258 244 CURVE SMOOTH",
"258 528 LINE",
"59 528 LINE",
"59 220 LINE SMOOTH",
"59 95 OFFCURVE",
"118 22 OFFCURVE",
"243 22 CURVE SMOOTH",
"341 22 OFFCURVE",
"395 58 OFFCURVE",
"432 99 CURVE",
"440 99 LINE",
"439 31 LINE SMOOTH",
"438 -40 OFFCURVE",
"409 -70 OFFCURVE",
"342 -70 CURVE SMOOTH",
"275 -70 OFFCURVE",
"255 -47 OFFCURVE",
"255 -13 CURVE",
"58 -13 LINE",
"58 -52 LINE SMOOTH",
"58 -161 OFFCURVE",
"170 -210 OFFCURVE",
"319 -210 CURVE SMOOTH"
);
}
);
width = 668;
}
);
leftKerningGroup = y.loclGUA;
note = y.loclGUA;
rightKerningGroup = y.loclGUA;
},
{
glyphname = f_f;
layers = (
{
layerId = "150D365C-6679-4329-86DF-DF48353E59C3";
paths = (
{
closed = 1;
nodes = (
"281 0 LINE",
"281 393 LINE",
"456 393 LINE",
"456 0 LINE",
"655 0 LINE",
"655 393 LINE",
"757 393 LINE",
"757 528 LINE",
"655 528 LINE",
"655 549 LINE SMOOTH",
"655 586 OFFCURVE",
"667 602 OFFCURVE",
"711 602 CURVE SMOOTH",
"757 602 LINE",
"757 719 LINE",
"730 729 OFFCURVE",
"678 737 OFFCURVE",
"649 737 CURVE SMOOTH",
"535 737 OFFCURVE",
"456 694 OFFCURVE",
"456 550 CURVE SMOOTH",
"456 528 LINE",
"281 528 LINE",
"281 549 LINE SMOOTH",
"281 586 OFFCURVE",
"293 602 OFFCURVE",
"337 602 CURVE SMOOTH",
"383 602 LINE",
"383 719 LINE",
"356 729 OFFCURVE",
"304 737 OFFCURVE",
"275 737 CURVE SMOOTH",
"161 737 OFFCURVE",
"82 694 OFFCURVE",
"82 550 CURVE SMOOTH",
"82 528 LINE",
"8 528 LINE",
"8 393 LINE",
"82 393 LINE",
"82 0 LINE"
);
}
);
width = 763;
}
);
leftKerningGroup = f;
leftMetricsKey = f;
note = f_f;
rightKerningGroup = f;
rightMetricsKey = f;
},
{
glyphname = fi;
layers = (
{
layerId = "150D365C-6679-4329-86DF-DF48353E59C3";
paths = (
{
closed = 1;
nodes = (
"281 0 LINE",
"281 393 LINE",
"371 393 LINE",
"371 528 LINE",
"281 528 LINE",
"281 549 LINE SMOOTH",
"281 586 OFFCURVE",
"293 602 OFFCURVE",
"330 602 CURVE SMOOTH",
"371 602 LINE",
"371 719 LINE",
"344 729 OFFCURVE",
"303 737 OFFCURVE",
"274 737 CURVE SMOOTH",
"160 737 OFFCURVE",
"82 694 OFFCURVE",
"82 550 CURVE SMOOTH",
"82 528 LINE",
"8 528 LINE",
"8 393 LINE",
"82 393 LINE",
"82 0 LINE"
);
},
{
closed = 1;
nodes = (
"612 0 LINE",
"612 528 LINE",
"413 528 LINE",
"413 0 LINE"
);
},
{
closed = 1;
nodes = (
"612 590 LINE",
"612 725 LINE",
"413 725 LINE",
"413 590 LINE"
);
}
);
width = 679;
}
);
leftKerningGroup = f;
leftMetricsKey = f;
note = fi;
rightKerningGroup = i;
rightMetricsKey = i;
unicode = FB01;
},
{
glyphname = fl;
layers = (
{
layerId = "150D365C-6679-4329-86DF-DF48353E59C3";
paths = (
{
closed = 1;
nodes = (
"275 0 LINE",
"275 393 LINE",
"365 393 LINE",
"365 528 LINE",
"275 528 LINE",
"275 549 LINE SMOOTH",
"275 586 OFFCURVE",
"285 602 OFFCURVE",
"329 602 CURVE SMOOTH",
"365 602 LINE",
"365 719 LINE",
"340 729 OFFCURVE",
"295 737 OFFCURVE",
"269 737 CURVE SMOOTH",
"155 737 OFFCURVE",
"76 694 OFFCURVE",
"76 550 CURVE SMOOTH",
"76 528 LINE",
"8 528 LINE",
"8 393 LINE",
"76 393 LINE",
"76 0 LINE"
);
},
{
closed = 1;
nodes = (
"607 0 LINE",
"607 725 LINE",
"408 725 LINE",
"408 0 LINE"
);
}
);
width = 667;
}
);
leftKerningGroup = f;
note = fl;
rightKerningGroup = l;
unicode = FB02;
},
{
glyphname = ordfeminine;
layers = (
{
layerId = "150D365C-6679-4329-86DF-DF48353E59C3";
paths = (
{
closed = 1;
nodes = (
"190 405 OFFCURVE",
"229 421 OFFCURVE",
"258 445 CURVE",
"265 445 LINE",
"277 421 OFFCURVE",
"305 405 OFFCURVE",
"358 405 CURVE SMOOTH",
"396 405 OFFCURVE",
"418 416 OFFCURVE",
"426 420 CURVE",
"426 486 LINE",
"402 486 LINE",
"391 486 OFFCURVE",
"381 494 OFFCURVE",
"381 510 CURVE SMOOTH",
"381 633 LINE SMOOTH",
"381 711 OFFCURVE",
"297 737 OFFCURVE",
"203 737 CURVE SMOOTH",
"84 737 OFFCURVE",
"22 697 OFFCURVE",
"22 640 CURVE SMOOTH",
"22 637 OFFCURVE",
"22 632 OFFCURVE",
"23 630 CURVE",
"151 630 LINE",
"151 636 LINE",
"151 648 OFFCURVE",
"166 660 OFFCURVE",
"201 660 CURVE SMOOTH",
"229 660 OFFCURVE",
"251 648 OFFCURVE",
"251 623 CURVE SMOOTH",
"251 607 LINE",
"100 607 OFFCURVE",
"12 589 OFFCURVE",
"12 494 CURVE SMOOTH",
"12 428 OFFCURVE",
"62 405 OFFCURVE",
"134 405 CURVE SMOOTH"
);
},
{
closed = 1;
nodes = (
"165 480 OFFCURVE",
"143 485 OFFCURVE",
"143 510 CURVE SMOOTH",
"143 533 OFFCURVE",
"174 551 OFFCURVE",
"251 551 CURVE",
"251 524 LINE SMOOTH",
"251 498 OFFCURVE",
"220 480 OFFCURVE",
"187 480 CURVE SMOOTH"
);
}
);
width = 400;
}
);
leftKerningGroup = ordfeminine;
note = ordfeminine;
rightKerningGroup = ordfeminine;
unicode = 00AA;
},
{
glyphname = ordmasculine;
layers = (
{
layerId = "150D365C-6679-4329-86DF-DF48353E59C3";
paths = (
{
closed = 1;
nodes = (
"324 405 OFFCURVE",
"401 460 OFFCURVE",
"401 571 CURVE SMOOTH",
"401 682 OFFCURVE",
"324 737 OFFCURVE",
"206 737 CURVE SMOOTH",
"89 737 OFFCURVE",
"12 682 OFFCURVE",
"12 571 CURVE SMOOTH",
"12 460 OFFCURVE",
"89 405 OFFCURVE",
"206 405 CURVE SMOOTH"
);
},
{
closed = 1;
nodes = (
"160 486 OFFCURVE",
"142 512 OFFCURVE",
"142 554 CURVE SMOOTH",
"142 588 LINE SMOOTH",
"142 630 OFFCURVE",
"160 656 OFFCURVE",
"206 656 CURVE SMOOTH",
"252 656 OFFCURVE",
"271 630 OFFCURVE",
"271 588 CURVE SMOOTH",
"271 554 LINE SMOOTH",
"271 512 OFFCURVE",
"252 486 OFFCURVE",
"206 486 CURVE SMOOTH"
);
}
);
width = 400;
}
);
leftKerningGroup = ordfeminine;
note = ordmasculine;
rightKerningGroup = ordfeminine;
unicode = 00BA;
},
{
glyphname = nmod;
layers = (
{
layerId = "150D365C-6679-4329-86DF-DF48353E59C3";
paths = (
{
closed = 1;
nodes = (
"173 412 LINE",
"173 598 LINE SMOOTH",
"173 625 OFFCURVE",
"195 648 OFFCURVE",
"227 648 CURVE SMOOTH",
"256 648 OFFCURVE",
"271 629 OFFCURVE",
"271 603 CURVE SMOOTH",
"271 412 LINE",
"401 412 LINE",
"401 617 LINE SMOOTH",
"401 692 OFFCURVE",
"363 736 OFFCURVE",
"281 736 CURVE SMOOTH",
"236 736 OFFCURVE",
"190 716 OFFCURVE",
"165 681 CURVE",
"158 681 LINE",
"149 729 LINE",
"43 729 LINE",
"43 412 LINE"
);
}
);
width = 436;
}
);
leftKerningGroup = nmod;
note = uni207F;
rightKerningGroup = nmod;
unicode = 207F;
},
{
glyphname = mu;
layers = (
{
layerId = "150D365C-6679-4329-86DF-DF48353E59C3";
paths = (
{
closed = 1;
nodes = (
"257 -196 LINE",
"257 -78 LINE SMOOTH",
"257 -59 OFFCURVE",
"252 -20 OFFCURVE",
"247 9 CURVE",
"269 3 OFFCURVE",
"289 0 OFFCURVE",
"307 0 CURVE SMOOTH",
"362 0 OFFCURVE",
"402 27 OFFCURVE",
"426 80 CURVE",
"433 80 LINE",
"443 0 LINE",
"606 0 LINE",
"606 528 LINE",
"407 528 LINE",
"407 218 LINE SMOOTH",
"407 173 OFFCURVE",
"374 135 OFFCURVE",
"324 135 CURVE SMOOTH",
"280 135 OFFCURVE",
"257 166 OFFCURVE",
"257 210 CURVE SMOOTH",
"257 528 LINE",
"58 528 LINE",
"58 -196 LINE"
);
}
);
width = 667;
}
);
leftKerningGroup = p;
note = uni03BC;
rightKerningGroup = u;
unicode = 03BC;
},
{
glyphname = pi;
layers = (
{
layerId = "150D365C-6679-4329-86DF-DF48353E59C3";
paths = (
{
closed = 1;
nodes = (
"257 0 LINE",
"291 80 OFFCURVE",
"316 286 OFFCURVE",
"320 403 CURVE",
"412 403 LINE",
"412 153 LINE SMOOTH",
"412 82 OFFCURVE",
"417 19 OFFCURVE",
"431 0 CURVE",
"606 0 LINE",
"599 33 OFFCURVE",
"593 90 OFFCURVE",
"593 165 CURVE SMOOTH",
"593 403 LINE",
"666 403 LINE",
"679 528 LINE",
"219 528 LINE SMOOTH",
"111 528 OFFCURVE",
"47 515 OFFCURVE",
"22 492 CURVE",
"37 393 LINE",
"64 400 OFFCURVE",
"99 403 OFFCURVE",
"143 403 CURVE",
"143 295 OFFCURVE",
"113 103 OFFCURVE",
"81 0 CURVE"
);
}
);
width = 707;
}
);
leftKerningGroup = pi;
note = pi;
rightKerningGroup = pi;
unicode = 03C0;
},
{
glyphname = zero;
layers = (
{
layerId = "150D365C-6679-4329-86DF-DF48353E59C3";
paths = (
{
closed = 1;
nodes = (
"562 -12 OFFCURVE",
"626 131 OFFCURVE",
"626 344 CURVE SMOOTH",
"626 557 OFFCURVE",
"562 700 OFFCURVE",
"334 700 CURVE SMOOTH",
"106 700 OFFCURVE",
"41 557 OFFCURVE",
"41 344 CURVE SMOOTH",
"41 131 OFFCURVE",
"106 -12 OFFCURVE",
"334 -12 CURVE SMOOTH"
);
},
{
closed = 1;
nodes = (
"264 123 OFFCURVE",
"238 174 OFFCURVE",
"238 295 CURVE SMOOTH",
"238 394 LINE SMOOTH",
"238 515 OFFCURVE",
"264 565 OFFCURVE",
"334 565 CURVE SMOOTH",
"404 565 OFFCURVE",
"428 515 OFFCURVE",
"428 394 CURVE SMOOTH",
"428 295 LINE SMOOTH",
"428 174 OFFCURVE",
"404 123 OFFCURVE",
"334 123 CURVE SMOOTH"
);
}
);
width = 667;
}
);
leftKerningGroup = zero;
note = zero;
rightKerningGroup = zero;
unicode = 0030;
},
{
glyphname = one;
layers = (
{
layerId = "150D365C-6679-4329-86DF-DF48353E59C3";
paths = (
{
closed = 1;
nodes = (
"624 0 LINE",
"624 154 LINE",
"467 154 LINE",
"467 689 LINE",
"400 689 LINE",
"322 638 OFFCURVE",
"198 587 OFFCURVE",
"105 581 CURVE",
"105 465 LINE",
"268 465 LINE",
"268 154 LINE",
"105 154 LINE",
"105 0 LINE"
);
}
);
width = 667;
}
);
leftKerningGroup = one;
note = one;
rightKerningGroup = one;
unicode = 0031;
},
{
glyphname = two;
layers = (
{
background = {
paths = (
{
closed = 1;
nodes = (
"49 0 LINE",
"619 0 LINE",
"619 169 LINE",
"318 169 LINE",
"460 271 OFFCURVE",
"611 344 OFFCURVE",
"611 493 CURVE SMOOTH",
"611 618 OFFCURVE",
"509 700 OFFCURVE",
"346 700 CURVE SMOOTH",
"149 700 OFFCURVE",
"51 608 OFFCURVE",
"51 467 CURVE SMOOTH",
"51 460 OFFCURVE",
"51 453 OFFCURVE",
"52 445 CURVE",
"230 445 LINE",
"230 465 LINE SMOOTH",
"230 519 OFFCURVE",
"265 559 OFFCURVE",
"327 559 CURVE SMOOTH",
"388 559 OFFCURVE",
"413 524 OFFCURVE",
"413 486 CURVE SMOOTH",
"413 421 OFFCURVE",
"301 365 OFFCURVE",
"145 226 CURVE SMOOTH",
"89 176 OFFCURVE",
"49 123 OFFCURVE",
"49 48 CURVE SMOOTH"
);
}
);
};
layerId = "150D365C-6679-4329-86DF-DF48353E59C3";
paths = (
{
closed = 1;
nodes = (
"619 0 LINE",
"619 169 LINE",
"318 169 LINE",
"326 177 OFFCURVE",
"340 185 OFFCURVE",
"351 193 CURVE SMOOTH",
"483 283 OFFCURVE",
"611 355 OFFCURVE",
"611 493 CURVE SMOOTH",
"611 618 OFFCURVE",
"509 700 OFFCURVE",
"346 700 CURVE SMOOTH",
"149 700 OFFCURVE",
"51 608 OFFCURVE",
"51 467 CURVE SMOOTH",
"51 460 OFFCURVE",
"51 453 OFFCURVE",
"52 445 CURVE",
"230 445 LINE",
"230 465 LINE SMOOTH",
"230 519 OFFCURVE",
"265 559 OFFCURVE",
"327 559 CURVE SMOOTH",
"388 559 OFFCURVE",
"413 524 OFFCURVE",
"413 486 CURVE SMOOTH",
"413 464 OFFCURVE",
"400 443 OFFCURVE",
"377 420 CURVE SMOOTH",
"266 307 OFFCURVE",
"49 208 OFFCURVE",
"49 48 CURVE SMOOTH",
"49 0 LINE"
);
}
);
width = 667;
}
);
leftKerningGroup = two;
note = two;
rightKerningGroup = two;
unicode = 0032;
},
{
glyphname = three;
layers = (
{
layerId = "150D365C-6679-4329-86DF-DF48353E59C3";
paths = (
{
closed = 1;
nodes = (
"533 -12 OFFCURVE",
"620 77 OFFCURVE",
"625 187 CURVE",
"625 271 OFFCURVE",
"581 333 OFFCURVE",
"505 357 CURVE",
"505 361 LINE",
"564 383 OFFCURVE",
"605 444 OFFCURVE",
"605 513 CURVE SMOOTH",
"605 615 OFFCURVE",
"509 700 OFFCURVE",
"339 700 CURVE SMOOTH",
"163 700 OFFCURVE",
"64 615 OFFCURVE",
"64 512 CURVE SMOOTH",
"64 487 LINE",
"231 487 LINE",
"231 497 LINE SMOOTH",
"231 531 OFFCURVE",
"271 563 OFFCURVE",
"322 563 CURVE SMOOTH",
"379 563 OFFCURVE",
"410 525 OFFCURVE",
"410 484 CURVE SMOOTH",
"410 435 OFFCURVE",
"379 412 OFFCURVE",
"340 412 CURVE SMOOTH",
"283 412 LINE",
"283 289 LINE",
"356 289 LINE SMOOTH",
"395 289 OFFCURVE",
"426 266 OFFCURVE",
"426 217 CURVE SMOOTH",
"426 164 OFFCURVE",
"399 125 OFFCURVE",
"322 125 CURVE SMOOTH",
"251 125 OFFCURVE",
"218 153 OFFCURVE",
"218 188 CURVE SMOOTH",
"218 207 LINE",
"42 207 LINE",
"42 186 LINE SMOOTH",
"42 77 OFFCURVE",
"134 -12 OFFCURVE",
"335 -12 CURVE SMOOTH"
);
}
);
width = 667;
}
);
leftKerningGroup = three;
note = three;
rightKerningGroup = three;
unicode = 0033;
},
{
glyphname = four;
layers = (
{
layerId = "150D365C-6679-4329-86DF-DF48353E59C3";
paths = (
{
closed = 1;
nodes = (
"548 0 LINE",
"548 141 LINE",
"644 141 LINE",
"644 288 LINE",
"548 288 LINE",
"548 634 LINE",
"463 634 LINE",
"449 577 OFFCURVE",
"392 480 OFFCURVE",
"358 431 CURVE",
"358 288 LINE",
"160 288 LINE",
"255 385 OFFCURVE",
"396 591 OFFCURVE",
"411 700 CURVE",
"215 700 LINE",
"170 543 OFFCURVE",
"88 385 OFFCURVE",
"23 290 CURVE",
"23 141 LINE",
"358 141 LINE",
"358 0 LINE"
);
}
);
width = 667;
}
);
leftKerningGroup = four;
note = four;
rightKerningGroup = four;
unicode = 0034;
},
{
glyphname = five;
layers = (
{
layerId = "150D365C-6679-4329-86DF-DF48353E59C3";
paths = (
{
closed = 1;
nodes = (
"516 -12 OFFCURVE",
"625 94 OFFCURVE",
"625 225 CURVE SMOOTH",
"625 371 OFFCURVE",
"532 459 OFFCURVE",
"386 459 CURVE SMOOTH",
"293 459 OFFCURVE",
"239 414 OFFCURVE",
"239 414 CURVE",
"247 518 LINE",
"574 518 LINE",
"574 688 LINE",
"98 688 LINE",
"69 303 LINE",
"227 281 LINE",
"238 294 OFFCURVE",
"256 331 OFFCURVE",
"323 331 CURVE SMOOTH",
"391 331 OFFCURVE",
"428 287 OFFCURVE",
"428 228 CURVE SMOOTH",
"428 170 OFFCURVE",
"392 126 OFFCURVE",
"322 126 CURVE SMOOTH",
"251 126 OFFCURVE",
"215 170 OFFCURVE",
"215 222 CURVE",
"39 222 LINE",
"39 82 OFFCURVE",
"143 -12 OFFCURVE",
"343 -12 CURVE SMOOTH"
);
}
);
width = 667;
}
);
leftKerningGroup = five;
note = five;
rightKerningGroup = five;
unicode = 0035;
},
{
glyphname = six;
layers = (
{
layerId = "150D365C-6679-4329-86DF-DF48353E59C3";
paths = (
{
closed = 1;
nodes = (
"517 -12 OFFCURVE",
"631 74 OFFCURVE",
"631 228 CURVE SMOOTH",
"631 365 OFFCURVE",
"523 439 OFFCURVE",
"387 439 CURVE SMOOTH",
"344 439 OFFCURVE",
"283 424 OFFCURVE",
"242 387 CURVE",
"242 513 OFFCURVE",
"261 565 OFFCURVE",
"342 565 CURVE SMOOTH",
"399 565 OFFCURVE",
"436 533 OFFCURVE",
"436 468 CURVE",
"614 468 LINE",
"614 620 OFFCURVE",
"502 700 OFFCURVE",
"339 700 CURVE SMOOTH",
"139 700 OFFCURVE",
"41 594 OFFCURVE",
"41 327 CURVE SMOOTH",
"41 94 OFFCURVE",
"139 -12 OFFCURVE",
"339 -12 CURVE SMOOTH"
);
},
{
closed = 1;
nodes = (
"276 123 OFFCURVE",
"242 158 OFFCURVE",
"242 221 CURVE SMOOTH",
"242 284 OFFCURVE",
"277 319 OFFCURVE",
"340 319 CURVE SMOOTH",
"403 319 OFFCURVE",
"438 282 OFFCURVE",
"438 219 CURVE SMOOTH",
"438 156 OFFCURVE",
"402 123 OFFCURVE",
"339 123 CURVE SMOOTH"
);
}
);
width = 667;
}
);
leftKerningGroup = six;
note = six;
rightKerningGroup = six;
unicode = 0036;
},
{
glyphname = seven;
layers = (
{
layerId = "150D365C-6679-4329-86DF-DF48353E59C3";
paths = (
{
closed = 1;
nodes = (
"380 0 LINE",
"380 20 OFFCURVE",
"380 39 OFFCURVE",
"380 59 CURVE SMOOTH",
"380 262 OFFCURVE",
"498 440 OFFCURVE",
"625 597 CURVE",
"625 688 LINE",
"45 688 LINE",
"45 516 LINE",
"375 516 LINE",
"250 370 OFFCURVE",
"158 190 OFFCURVE",
"158 0 CURVE"
);
}
);
width = 667;
}
);
leftKerningGroup = seven;
note = seven;
rightKerningGroup = seven;
unicode = 0037;
},
{
glyphname = eight;
layers = (
{
layerId = "150D365C-6679-4329-86DF-DF48353E59C3";
paths = (
{
closed = 1;
nodes = (
"510 -12 OFFCURVE",
"626 58 OFFCURVE",
"626 189 CURVE SMOOTH",
"626 271 OFFCURVE",
"582 312 OFFCURVE",
"516 349 CURVE",
"581 400 OFFCURVE",
"600 437 OFFCURVE",
"600 497 CURVE SMOOTH",
"600 628 OFFCURVE",
"480 700 OFFCURVE",
"332 700 CURVE SMOOTH",
"184 700 OFFCURVE",
"66 628 OFFCURVE",
"66 497 CURVE SMOOTH",
"66 439 OFFCURVE",
"83 402 OFFCURVE",
"150 349 CURVE",
"84 312 OFFCURVE",
"41 271 OFFCURVE",
"41 189 CURVE SMOOTH",
"41 58 OFFCURVE",
"154 -12 OFFCURVE",
"332 -12 CURVE SMOOTH"
);
},
{
closed = 1;
nodes = (
"278 123 OFFCURVE",
"240 151 OFFCURVE",
"240 205 CURVE SMOOTH",
"240 259 OFFCURVE",
"282 287 OFFCURVE",
"332 287 CURVE SMOOTH",
"382 287 OFFCURVE",
"427 259 OFFCURVE",
"427 205 CURVE SMOOTH",
"427 151 OFFCURVE",
"386 123 OFFCURVE",
"332 123 CURVE SMOOTH"
);
},
{
closed = 1;
nodes = (
"282 414 OFFCURVE",
"240 435 OFFCURVE",
"240 489 CURVE SMOOTH",
"240 543 OFFCURVE",
"278 565 OFFCURVE",
"332 565 CURVE SMOOTH",
"386 565 OFFCURVE",
"427 543 OFFCURVE",
"427 489 CURVE SMOOTH",
"427 435 OFFCURVE",
"382 414 OFFCURVE",
"332 414 CURVE SMOOTH"
);
}
);
width = 667;
}
);
leftKerningGroup = eight;
note = eight;
rightKerningGroup = eight;
unicode = 0038;
},
{
glyphname = nine;
layers = (
{
layerId = "150D365C-6679-4329-86DF-DF48353E59C3";
paths = (
{
closed = 1;
nodes = (
"528 -12 OFFCURVE",
"626 94 OFFCURVE",
"626 361 CURVE SMOOTH",
"626 594 OFFCURVE",
"528 700 OFFCURVE",
"328 700 CURVE SMOOTH",
"150 700 OFFCURVE",
"36 614 OFFCURVE",
"36 460 CURVE SMOOTH",
"36 323 OFFCURVE",
"144 249 OFFCURVE",
"280 249 CURVE SMOOTH",
"323 249 OFFCURVE",
"384 264 OFFCURVE",
"425 301 CURVE",
"425 175 OFFCURVE",
"406 123 OFFCURVE",
"325 123 CURVE SMOOTH",
"268 123 OFFCURVE",
"231 155 OFFCURVE",
"231 220 CURVE",
"53 220 LINE",
"53 68 OFFCURVE",
"165 -12 OFFCURVE",
"328 -12 CURVE SMOOTH"
);
},
{
closed = 1;
nodes = (
"263 369 OFFCURVE",
"229 404 OFFCURVE",
"229 467 CURVE SMOOTH",
"229 530 OFFCURVE",
"264 565 OFFCURVE",
"327 565 CURVE SMOOTH",
"390 565 OFFCURVE",
"425 528 OFFCURVE",
"425 465 CURVE SMOOTH",
"425 402 OFFCURVE",
"389 369 OFFCURVE",
"326 369 CURVE SMOOTH"
);
}
);
width = 667;
}
);
leftKerningGroup = nine;
note = nine;
rightKerningGroup = nine;
unicode = 0039;
},
{
glyphname = zero.osf;
layers = (
{
layerId = "150D365C-6679-4329-86DF-DF48353E59C3";
paths = (
{
closed = 1;
nodes = (
"563 -10 OFFCURVE",
"609 139 OFFCURVE",
"609 300 CURVE SMOOTH",
"609 460 OFFCURVE",
"563 610 OFFCURVE",
"335 610 CURVE SMOOTH",
"107 610 OFFCURVE",
"59 460 OFFCURVE",
"59 300 CURVE SMOOTH",
"59 139 OFFCURVE",
"107 -10 OFFCURVE",
"335 -10 CURVE SMOOTH"
);
},
{
closed = 1;
nodes = (
"275 118 OFFCURVE",
"254 164 OFFCURVE",
"254 250 CURVE SMOOTH",
"254 350 LINE SMOOTH",
"254 433 OFFCURVE",
"273 481 OFFCURVE",
"335 481 CURVE SMOOTH",
"395 481 OFFCURVE",
"413 436 OFFCURVE",
"413 351 CURVE SMOOTH",
"413 250 LINE SMOOTH",
"413 167 OFFCURVE",
"396 118 OFFCURVE",
"335 118 CURVE SMOOTH"
);
}
);
userData = {
RMXScaler = {
height = 87;
width = 87;
};
};
width = 667;
}
);
userData = {
RMXScaler = {
source = zero;
};
};
},
{
glyphname = one.osf;
layers = (
{
layerId = "150D365C-6679-4329-86DF-DF48353E59C3";
paths = (
{
closed = 1;
nodes = (
"599 0 LINE",
"599 152 LINE",
"460 152 LINE",
"460 601 LINE",
"401 601 LINE",
"329 552 OFFCURVE",
"213 502 OFFCURVE",
"119 496 CURVE",
"119 382 LINE",
"261 382 LINE",
"261 152 LINE",
"119 152 LINE",
"119 0 LINE"
);
}
);
userData = {
RMXScaler = {
height = 87;
width = 87;
};
};
width = 667;
}
);
userData = {
RMXScaler = {
source = one;
};
};
},
{
glyphname = two.osf;
layers = (
{
background = {
paths = (
{
closed = 1;
nodes = (
"597 0 LINE",
"597 167 LINE",
"342 167 LINE",
"350 173 OFFCURVE",
"368 182 OFFCURVE",
"375 186 CURVE SMOOTH",
"512 264 OFFCURVE",
"589 327 OFFCURVE",
"589 427 CURVE SMOOTH",
"589 558 OFFCURVE",
"474 610 OFFCURVE",
"343 610 CURVE SMOOTH",
"147 610 OFFCURVE",
"67 518 OFFCURVE",
"67 398 CURVE SMOOTH",
"67 396 OFFCURVE",
"66 394 OFFCURVE",
"67 385 CURVE",
"240 385 LINE",
"240 395 LINE SMOOTH",
"240 437 OFFCURVE",
"271 474 OFFCURVE",
"321 474 CURVE SMOOTH",
"370 474 OFFCURVE",
"392 448 OFFCURVE",
"392 416 CURVE SMOOTH",
"392 399 OFFCURVE",
"379 386 OFFCURVE",
"357 367 CURVE SMOOTH",
"249 274 OFFCURVE",
"67 173 OFFCURVE",
"67 47 CURVE SMOOTH",
"67 0 LINE"
);
}
);
};
layerId = "150D365C-6679-4329-86DF-DF48353E59C3";
paths = (
{
closed = 1;
nodes = (
"597 0 LINE",
"597 167 LINE",
"372 167 LINE",
"372 197 OFFCURVE",
"584 265 OFFCURVE",
"584 427 CURVE SMOOTH",
"584 558 OFFCURVE",
"468 610 OFFCURVE",
"335 610 CURVE SMOOTH",
"144 610 OFFCURVE",
"67 518 OFFCURVE",
"67 398 CURVE SMOOTH",
"67 396 OFFCURVE",
"66 394 OFFCURVE",
"67 385 CURVE",
"240 385 LINE",
"240 395 LINE SMOOTH",
"240 437 OFFCURVE",
"273 474 OFFCURVE",
"323 474 CURVE SMOOTH",
"372 474 OFFCURVE",
"392 453 OFFCURVE",
"392 423 CURVE SMOOTH",
"392 318 OFFCURVE",
"67 221 OFFCURVE",
"67 47 CURVE SMOOTH",
"67 0 LINE"
);
}
);
userData = {
RMXScaler = {
height = 87;
width = 87;
};
};
width = 667;
}
);
userData = {
RMXScaler = {
source = two;
};
};
},
{
glyphname = three.osf;
layers = (
{
layerId = "150D365C-6679-4329-86DF-DF48353E59C3";
paths = (
{
closed = 1;
nodes = (
"496 -10 OFFCURVE",
"605 60 OFFCURVE",
"605 164 CURVE SMOOTH",
"605 238 OFFCURVE",
"566 292 OFFCURVE",
"501 312 CURVE",
"501 316 LINE",
"548 335 OFFCURVE",
"579 386 OFFCURVE",
"579 444 CURVE SMOOTH",
"579 544 OFFCURVE",
"483 610 OFFCURVE",
"340 610 CURVE SMOOTH",
"180 610 OFFCURVE",
"83 548 OFFCURVE",
"83 446 CURVE SMOOTH",
"83 425 LINE",
"248 425 LINE",
"248 431 LINE SMOOTH",
"248 462 OFFCURVE",
"275 479 OFFCURVE",
"318 479 CURVE SMOOTH",
"366 479 OFFCURVE",
"393 457 OFFCURVE",
"393 418 CURVE SMOOTH",
"393 382 OFFCURVE",
"371 362 OFFCURVE",
"333 362 CURVE SMOOTH",
"268 362 LINE",
"268 249 LINE",
"334 249 LINE SMOOTH",
"382 249 OFFCURVE",
"407 224 OFFCURVE",
"407 186 CURVE SMOOTH",
"407 139 OFFCURVE",
"375 120 OFFCURVE",
"318 120 CURVE SMOOTH",
"262 120 OFFCURVE",
"237 141 OFFCURVE",
"237 168 CURVE SMOOTH",
"237 179 LINE",
"61 179 LINE",
"61 159 LINE SMOOTH",
"61 70 OFFCURVE",
"143 -10 OFFCURVE",
"333 -10 CURVE SMOOTH"
);
}
);
userData = {
RMXScaler = {
height = 87;
width = 87;
};
};
width = 667;
}
);
userData = {
RMXScaler = {
source = three;
};
};
},
{
glyphname = four.osf;
layers = (
{
layerId = "150D365C-6679-4329-86DF-DF48353E59C3";
paths = (
{
closed = 1;
nodes = (
"534 0 LINE",
"534 119 LINE",
"622 119 LINE",
"622 263 LINE",
"534 263 LINE",
"534 566 LINE",
"451 566 LINE",
"439 515 OFFCURVE",
"382 427 OFFCURVE",
"346 380 CURVE",
"346 263 LINE",
"169 263 LINE",
"271 363 OFFCURVE",
"401 540 OFFCURVE",
"405 610 CURVE",
"211 610 LINE",
"171 478 OFFCURVE",
"92 334 OFFCURVE",
"41 265 CURVE",
"41 119 LINE",
"346 119 LINE",
"346 0 LINE"
);
}
);
userData = {
RMXScaler = {
height = 87;
width = 87;
};
};
width = 667;
}
);
userData = {
RMXScaler = {
source = four;
};
};
},
{
glyphname = five.osf;
layers = (
{
layerId = "150D365C-6679-4329-86DF-DF48353E59C3";
paths = (
{
closed = 1;
nodes = (
"467 -11 OFFCURVE",
"606 59 OFFCURVE",
"606 196 CURVE SMOOTH",
"606 321 OFFCURVE",
"523 404 OFFCURVE",
"384 404 CURVE SMOOTH",
"292 404 OFFCURVE",
"238 355 OFFCURVE",
"248 362 CURVE",
"254 451 LINE",
"556 451 LINE",
"556 599 LINE",
"112 599 LINE",
"86 262 LINE",
"236 241 LINE",
"243 247 OFFCURVE",
"254 283 OFFCURVE",
"319 283 CURVE SMOOTH",
"381 283 OFFCURVE",
"411 243 OFFCURVE",
"411 200 CURVE SMOOTH",
"411 161 OFFCURVE",
"382 122 OFFCURVE",
"319 122 CURVE SMOOTH",
"256 122 OFFCURVE",
"226 159 OFFCURVE",
"226 196 CURVE",
"57 196 LINE",
"57 57 OFFCURVE",
"192 -11 OFFCURVE",
"329 -11 CURVE SMOOTH"
);
}
);
userData = {
RMXScaler = {
height = 87;
width = 87;
};
};
width = 667;
}
);
userData = {
RMXScaler = {
source = five;
};
};
},
{
glyphname = six.osf;
layers = (
{
layerId = "150D365C-6679-4329-86DF-DF48353E59C3";
paths = (
{
closed = 1;
nodes = (
"504 -10 OFFCURVE",
"610 64 OFFCURVE",
"610 204 CURVE SMOOTH",
"610 325 OFFCURVE",
"500 382 OFFCURVE",
"383 382 CURVE SMOOTH",
"362 382 OFFCURVE",
"306 382 OFFCURVE",
"257 339 CURVE",
"256 439 OFFCURVE",
"281 481 OFFCURVE",
"341 481 CURVE SMOOTH",
"388 481 OFFCURVE",
"425 456 OFFCURVE",
"425 401 CURVE",
"597 401 LINE",
"597 545 OFFCURVE",
"481 610 OFFCURVE",
"335 610 CURVE SMOOTH",
"145 610 OFFCURVE",
"57 511 OFFCURVE",
"57 286 CURVE SMOOTH",
"57 91 OFFCURVE",
"144 -10 OFFCURVE",
"333 -10 CURVE SMOOTH"
);
},
{
closed = 1;
nodes = (
"283 118 OFFCURVE",
"254 145 OFFCURVE",
"254 195 CURVE SMOOTH",
"254 244 OFFCURVE",
"284 271 OFFCURVE",
"337 271 CURVE SMOOTH",
"390 271 OFFCURVE",
"420 243 OFFCURVE",
"420 192 CURVE SMOOTH",
"420 144 OFFCURVE",
"390 118 OFFCURVE",
"335 118 CURVE SMOOTH"
);
}
);
userData = {
RMXScaler = {
height = 87;
width = 87;
};
};
width = 667;
}
);
userData = {
RMXScaler = {
source = six;
};
};
},
{
glyphname = seven.osf;
layers = (
{
layerId = "150D365C-6679-4329-86DF-DF48353E59C3";
paths = (
{
closed = 1;
nodes = (
"392 0 LINE",
"392 14 OFFCURVE",
"392 37 OFFCURVE",
"392 54 CURVE SMOOTH",
"392 226 OFFCURVE",
"484 371 OFFCURVE",
"602 518 CURVE",
"602 599 LINE",
"65 599 LINE",
"65 429 LINE",
"348 429 LINE",
"238 300 OFFCURVE",
"168 152 OFFCURVE",
"168 0 CURVE"
);
}
);
userData = {
RMXScaler = {
height = 87;
width = 87;
};
};
width = 667;
}
);
userData = {
RMXScaler = {
source = seven;
};
};
},
{
glyphname = eight.osf;
layers = (
{
layerId = "150D365C-6679-4329-86DF-DF48353E59C3";
paths = (
{
closed = 1;
nodes = (
"487 -10 OFFCURVE",
"605 43 OFFCURVE",
"605 165 CURVE SMOOTH",
"605 238 OFFCURVE",
"563 268 OFFCURVE",
"509 303 CURVE",
"562 349 OFFCURVE",
"579 381 OFFCURVE",
"579 429 CURVE SMOOTH",
"579 552 OFFCURVE",
"459 610 OFFCURVE",
"331 610 CURVE SMOOTH",
"203 610 OFFCURVE",
"85 552 OFFCURVE",
"85 429 CURVE SMOOTH",
"85 382 OFFCURVE",
"103 350 OFFCURVE",
"155 303 CURVE",
"101 268 OFFCURVE",
"60 239 OFFCURVE",
"60 165 CURVE SMOOTH",
"60 43 OFFCURVE",
"175 -10 OFFCURVE",
"331 -10 CURVE SMOOTH"
);
},
{
closed = 1;
nodes = (
"280 118 OFFCURVE",
"252 141 OFFCURVE",
"252 182 CURVE SMOOTH",
"252 226 OFFCURVE",
"280 250 OFFCURVE",
"331 250 CURVE SMOOTH",
"384 250 OFFCURVE",
"413 226 OFFCURVE",
"413 182 CURVE SMOOTH",
"413 141 OFFCURVE",
"384 118 OFFCURVE",
"331 118 CURVE SMOOTH"
);
},
{
closed = 1;
nodes = (
"284 360 OFFCURVE",
"258 382 OFFCURVE",
"258 422 CURVE SMOOTH",
"258 460 OFFCURVE",
"284 481 OFFCURVE",
"331 481 CURVE SMOOTH",
"380 481 OFFCURVE",
"407 460 OFFCURVE",
"407 422 CURVE SMOOTH",
"407 382 OFFCURVE",
"380 360 OFFCURVE",
"331 360 CURVE SMOOTH"
);
}
);
userData = {
RMXScaler = {
height = 87;
width = 87;
};
};
width = 667;
}
);
userData = {
RMXScaler = {
source = eight;
};
};
},
{
glyphname = nine.osf;
layers = (
{
layerId = "150D365C-6679-4329-86DF-DF48353E59C3";
paths = (
{
closed = 1;
nodes = (
"520 -10 OFFCURVE",
"608 88 OFFCURVE",
"608 313 CURVE SMOOTH",
"608 507 OFFCURVE",
"522 610 OFFCURVE",
"322 610 CURVE SMOOTH",
"160 610 OFFCURVE",
"55 535 OFFCURVE",
"55 396 CURVE SMOOTH",
"55 274 OFFCURVE",
"166 218 OFFCURVE",
"281 218 CURVE SMOOTH",
"303 218 OFFCURVE",
"359 218 OFFCURVE",
"408 261 CURVE",
"409 152 OFFCURVE",
"389 118 OFFCURVE",
"324 118 CURVE SMOOTH",
"277 118 OFFCURVE",
"240 143 OFFCURVE",
"240 198 CURVE",
"68 198 LINE",
"68 54 OFFCURVE",
"184 -10 OFFCURVE",
"330 -10 CURVE SMOOTH"
);
},
{
closed = 1;
nodes = (
"276 328 OFFCURVE",
"245 353 OFFCURVE",
"245 405 CURVE SMOOTH",
"245 458 OFFCURVE",
"278 481 OFFCURVE",
"328 481 CURVE SMOOTH",
"380 481 OFFCURVE",
"411 455 OFFCURVE",
"411 402 CURVE SMOOTH",
"411 351 OFFCURVE",
"379 328 OFFCURVE",
"327 328 CURVE SMOOTH"
);
}
);
userData = {
RMXScaler = {
height = 87;
width = 87;
};
};
width = 667;
}
);
userData = {
RMXScaler = {
source = nine;
};
};
},
{
glyphname = zero.osf.zero;
layers = (
{
components = (
{
name = zero.tosf;
}
);
layerId = "150D365C-6679-4329-86DF-DF48353E59C3";
paths = (
{
closed = 1;
nodes = (
"271 38 LINE",
"439 488 LINE",
"375 488 LINE",
"207 38 LINE"
);
}
);
width = 667;
}
);
leftKerningGroup = zero.tf.zero;
leftMetricsKey = zero.osf;
rightKerningGroup = zero.tf.zero;
rightMetricsKey = zero.osf;
},
{
glyphname = zero.zero;
layers = (
{
components = (
{
name = zero;
}
);
layerId = "150D365C-6679-4329-86DF-DF48353E59C3";
paths = (
{
closed = 1;
nodes = (
"259 64 LINE",
"466 620 LINE",
"402 620 LINE",
"195 64 LINE"
);
}
);
width = 667;
}
);
leftKerningGroup = zero.zero;
rightKerningGroup = zero.zero;
},
{
glyphname = zerosuperior;
layers = (
{
layerId = "150D365C-6679-4329-86DF-DF48353E59C3";
paths = (
{
closed = 1;
nodes = (
"335 428 OFFCURVE",
"373 508 OFFCURVE",
"373 614 CURVE SMOOTH",
"373 720 OFFCURVE",
"335 800 OFFCURVE",
"211 800 CURVE SMOOTH",
"86 800 OFFCURVE",
"47 720 OFFCURVE",
"47 614 CURVE SMOOTH",
"47 508 OFFCURVE",
"86 428 OFFCURVE",
"211 428 CURVE SMOOTH"
);
},
{
closed = 1;
nodes = (
"179 513 OFFCURVE",
"165 530 OFFCURVE",
"165 588 CURVE SMOOTH",
"165 640 LINE SMOOTH",
"165 698 OFFCURVE",
"179 714 OFFCURVE",
"211 714 CURVE SMOOTH",
"242 714 OFFCURVE",
"255 698 OFFCURVE",
"255 640 CURVE SMOOTH",
"255 588 LINE SMOOTH",
"255 530 OFFCURVE",
"242 513 OFFCURVE",
"211 513 CURVE SMOOTH"
);
}
);
width = 420;
}
);
leftKerningGroup = zerosuperior;
rightKerningGroup = zerosuperior;
unicode = 2070;
},
{
glyphname = onesuperior;
layers = (
{
background = {
paths = (
{
closed = 1;
nodes = (
"105 405 LINE",
"105 330 LINE",
"344 330 LINE",
"344 405 LINE",
"270 405 LINE",
"270 686 LINE",
"227 686 LINE",
"192 666 OFFCURVE",
"139 648 OFFCURVE",
"105 645 CURVE",
"105 590 LINE",
"187 590 LINE",
"187 405 LINE"
);
}
);
};
layerId = "150D365C-6679-4329-86DF-DF48353E59C3";
paths = (
{
closed = 1;
nodes = (
"391 434 LINE",
"391 526 LINE",
"288 526 LINE",
"288 794 LINE",
"244 794 LINE",
"193 763 OFFCURVE",
"111 733 OFFCURVE",
"50 729 CURVE",
"50 660 LINE",
"157 660 LINE",
"157 526 LINE",
"50 526 LINE",
"50 434 LINE"
);
}
);
width = 420;
}
);
leftKerningGroup = onesuperior;
note = uni00B9;
rightKerningGroup = onesuperior;
unicode = 00B9;
},
{
glyphname = twosuperior;
layers = (
{
background = {
paths = (
{
closed = 1;
nodes = (
"66 329 LINE",
"322 329 LINE",
"322 404 LINE",
"168 404 LINE",
"177 413 OFFCURVE",
"193 425 OFFCURVE",
"209 436 CURVE SMOOTH",
"257 468 OFFCURVE",
"320 511 OFFCURVE",
"320 589 CURVE SMOOTH",
"320 618 OFFCURVE",
"309 698 OFFCURVE",
"200 698 CURVE SMOOTH",
"130 698 OFFCURVE",
"69 668 OFFCURVE",
"69 596 CURVE SMOOTH",
"69 580 OFFCURVE",
"72 568 OFFCURVE",
"72 568 CURVE",
"152 568 LINE",
"152 586 LINE SMOOTH",
"152 617 OFFCURVE",
"168 629 OFFCURVE",
"197 629 CURVE SMOOTH",
"225 629 OFFCURVE",
"238 610 OFFCURVE",
"238 593 CURVE SMOOTH",
"238 579 OFFCURVE",
"235 563 OFFCURVE",
"226 551 CURVE SMOOTH",
"211 530 OFFCURVE",
"187 512 OFFCURVE",
"160 492 CURVE SMOOTH",
"114 456 OFFCURVE",
"66 419 OFFCURVE",
"66 354 CURVE SMOOTH"
);
}
);
};
layerId = "150D365C-6679-4329-86DF-DF48353E59C3";
paths = (
{
closed = 1;
nodes = (
"375 434 LINE",
"375 525 LINE",
"222 525 LINE",
"232 532 OFFCURVE",
"246 537 OFFCURVE",
"256 544 CURVE SMOOTH",
"324 592 OFFCURVE",
"371 620 OFFCURVE",
"371 690 CURVE SMOOTH",
"371 755 OFFCURVE",
"312 799 OFFCURVE",
"218 799 CURVE SMOOTH",
"104 799 OFFCURVE",
"47 750 OFFCURVE",
"47 676 CURVE SMOOTH",
"47 672 OFFCURVE",
"47 669 OFFCURVE",
"48 665 CURVE",
"152 665 LINE",
"152 675 LINE SMOOTH",
"152 703 OFFCURVE",
"173 722 OFFCURVE",
"207 722 CURVE SMOOTH",
"239 722 OFFCURVE",
"252 706 OFFCURVE",
"252 686 CURVE SMOOTH",
"252 669 OFFCURVE",
"239 652 OFFCURVE",
"218 636 CURVE SMOOTH",
"190 615 OFFCURVE",
"152 584 OFFCURVE",
"101 549 CURVE SMOOTH",
"69 527 OFFCURVE",
"46 499 OFFCURVE",
"46 460 CURVE SMOOTH",
"46 434 LINE"
);
}
);
width = 420;
}
);
leftKerningGroup = twosuperior;
note = uni00B2;
rightKerningGroup = twosuperior;
unicode = 00B2;
},
{
glyphname = threesuperior;
layers = (
{
background = {
paths = (
{
closed = 1;
nodes = (
"265 325 OFFCURVE",
"318 364 OFFCURVE",
"318 430 CURVE SMOOTH",
"318 473 OFFCURVE",
"294 501 OFFCURVE",
"257 515 CURVE",
"257 519 LINE",
"290 536 OFFCURVE",
"311 558 OFFCURVE",
"311 596 CURVE SMOOTH",
"311 663 OFFCURVE",
"261 698 OFFCURVE",
"188 698 CURVE SMOOTH",
"118 698 OFFCURVE",
"66 658 OFFCURVE",
"66 596 CURVE SMOOTH",
"66 584 LINE",
"149 584 LINE",
"149 592 LINE SMOOTH",
"149 617 OFFCURVE",
"165 630 OFFCURVE",
"189 630 CURVE SMOOTH",
"212 630 OFFCURVE",
"227 619 OFFCURVE",
"227 592 CURVE SMOOTH",
"227 562 OFFCURVE",
"210 549 OFFCURVE",
"186 549 CURVE SMOOTH",
"152 549 LINE",
"152 480 LINE",
"184 480 LINE SMOOTH",
"211 480 OFFCURVE",
"234 471 OFFCURVE",
"234 435 CURVE SMOOTH",
"234 406 OFFCURVE",
"216 393 OFFCURVE",
"189 393 CURVE SMOOTH",
"159 393 OFFCURVE",
"142 408 OFFCURVE",
"142 434 CURVE SMOOTH",
"142 442 LINE",
"59 442 LINE",
"59 435 LINE SMOOTH",
"59 368 OFFCURVE",
"105 325 OFFCURVE",
"190 325 CURVE SMOOTH"
);
}
);
};
layerId = "150D365C-6679-4329-86DF-DF48353E59C3";
paths = (
{
closed = 1;
nodes = (
"323 427 OFFCURVE",
"385 471 OFFCURVE",
"385 538 CURVE SMOOTH",
"385 573 OFFCURVE",
"366 610 OFFCURVE",
"321 618 CURVE",
"321 624 LINE",
"358 636 OFFCURVE",
"374 666 OFFCURVE",
"374 702 CURVE SMOOTH",
"374 755 OFFCURVE",
"314 800 OFFCURVE",
"216 800 CURVE SMOOTH",
"115 800 OFFCURVE",
"53 755 OFFCURVE",
"53 692 CURVE SMOOTH",
"53 679 LINE",
"158 679 LINE",
"158 686 LINE SMOOTH",
"158 703 OFFCURVE",
"176 718 OFFCURVE",
"206 718 CURVE SMOOTH",
"233 718 OFFCURVE",
"252 708 OFFCURVE",
"252 687 CURVE SMOOTH",
"252 664 OFFCURVE",
"234 649 OFFCURVE",
"212 649 CURVE SMOOTH",
"183 649 LINE",
"183 584 LINE",
"220 584 LINE SMOOTH",
"244 584 OFFCURVE",
"261 575 OFFCURVE",
"261 550 CURVE SMOOTH",
"261 524 OFFCURVE",
"239 509 OFFCURVE",
"206 509 CURVE SMOOTH",
"172 509 OFFCURVE",
"152 523 OFFCURVE",
"152 545 CURVE SMOOTH",
"152 552 LINE",
"40 552 LINE",
"40 540 LINE SMOOTH",
"40 472 OFFCURVE",
"95 427 OFFCURVE",
"209 427 CURVE SMOOTH"
);
}
);
width = 420;
}
);
leftKerningGroup = threesuperior;
note = uni00B3;
rightKerningGroup = threesuperior;
unicode = 00B3;
},
{
glyphname = foursuperior;
layers = (
{
layerId = "150D365C-6679-4329-86DF-DF48353E59C3";
paths = (
{
closed = 1;
nodes = (
"339 434 LINE",
"339 494 LINE",
"402 494 LINE",
"402 582 LINE",
"339 582 LINE",
"339 760 LINE",
"283 760 LINE",
"274 726 OFFCURVE",
"237 668 OFFCURVE",
"215 638 CURVE",
"215 582 LINE",
"105 582 LINE",
"163 631 OFFCURVE",
"240 734 OFFCURVE",
"249 800 CURVE",
"121 800 LINE",
"91 706 OFFCURVE",
"53 631 OFFCURVE",
"15 583 CURVE",
"15 494 LINE",
"215 494 LINE",
"215 434 LINE"
);
}
);
width = 420;
}
);
leftKerningGroup = foursuperior;
rightKerningGroup = foursuperior;
unicode = 2074;
},
{
glyphname = fivesuperior;
layers = (
{
layerId = "150D365C-6679-4329-86DF-DF48353E59C3";
paths = (
{
closed = 1;
nodes = (
"323 427 OFFCURVE",
"397 483 OFFCURVE",
"397 563 CURVE SMOOTH",
"397 631 OFFCURVE",
"344 676 OFFCURVE",
"265 676 CURVE SMOOTH",
"233 676 OFFCURVE",
"200 670 OFFCURVE",
"174 650 CURVE",
"179 700 LINE",
"365 700 LINE",
"365 788 LINE",
"84 788 LINE",
"66 586 LINE",
"166 574 LINE",
"180 594 OFFCURVE",
"200 604 OFFCURVE",
"226 604 CURVE SMOOTH",
"254 604 OFFCURVE",
"273 584 OFFCURVE",
"273 560 CURVE SMOOTH",
"273 524 OFFCURVE",
"243 504 OFFCURVE",
"210 504 CURVE SMOOTH",
"183 504 OFFCURVE",
"158 525 OFFCURVE",
"158 552 CURVE",
"48 552 LINE",
"48 477 OFFCURVE",
"98 427 OFFCURVE",
"219 427 CURVE SMOOTH"
);
}
);
width = 420;
}
);
leftKerningGroup = fivesuperior;
rightKerningGroup = fivesuperior;
unicode = 2075;
},
{
glyphname = sixsuperior;
layers = (
{
layerId = "150D365C-6679-4329-86DF-DF48353E59C3";
paths = (
{
closed = 1;
nodes = (
"301 426 OFFCURVE",
"361 472 OFFCURVE",
"361 552 CURVE SMOOTH",
"361 624 OFFCURVE",
"310 663 OFFCURVE",
"227 663 CURVE SMOOTH",
"199 663 OFFCURVE",
"169 653 OFFCURVE",
"152 636 CURVE",
"152 702 OFFCURVE",
"157 724 OFFCURVE",
"199 724 CURVE SMOOTH",
"229 724 OFFCURVE",
"243 712 OFFCURVE",
"243 678 CURVE",
"352 678 LINE",
"352 758 OFFCURVE",
"293 799 OFFCURVE",
"198 800 CURVE SMOOTH",
"83 801 OFFCURVE",
"31 744 OFFCURVE",
"31 604 CURVE SMOOTH",
"31 482 OFFCURVE",
"83 428 OFFCURVE",
"198 427 CURVE SMOOTH"
);
},
{
closed = 1;
nodes = (
"170 502 OFFCURVE",
"152 521 OFFCURVE",
"152 549 CURVE SMOOTH",
"152 577 OFFCURVE",
"170 595 OFFCURVE",
"198 595 CURVE SMOOTH",
"226 595 OFFCURVE",
"244 576 OFFCURVE",
"244 548 CURVE SMOOTH",
"244 520 OFFCURVE",
"226 502 OFFCURVE",
"198 502 CURVE SMOOTH"
);
}
);
width = 420;
}
);
leftKerningGroup = sixsuperior;
rightKerningGroup = sixsuperior;
unicode = 2076;
},
{
glyphname = sevensuperior;
layers = (
{
layerId = "150D365C-6679-4329-86DF-DF48353E59C3";
paths = (
{
closed = 1;
nodes = (
"240 434 LINE",
"240 445 OFFCURVE",
"240 456 OFFCURVE",
"240 467 CURVE SMOOTH",
"240 581 OFFCURVE",
"302 648 OFFCURVE",
"380 736 CURVE",
"380 788 LINE",
"44 788 LINE",
"44 692 LINE",
"226 692 LINE",
"150 610 OFFCURVE",
"103 541 OFFCURVE",
"103 434 CURVE"
);
}
);
width = 420;
}
);
leftKerningGroup = sevensuperior;
rightKerningGroup = sevensuperior;
unicode = 2077;
},
{
glyphname = eightsuperior;
layers = (
{
layerId = "150D365C-6679-4329-86DF-DF48353E59C3";
paths = (
{
closed = 1;
nodes = (
"311 427 OFFCURVE",
"384 464 OFFCURVE",
"384 532 CURVE SMOOTH",
"384 564 OFFCURVE",
"372 596 OFFCURVE",
"322 618 CURVE",
"350 636 OFFCURVE",
"370 652 OFFCURVE",
"370 693 CURVE SMOOTH",
"370 761 OFFCURVE",
"294 799 OFFCURVE",
"210 799 CURVE SMOOTH",
"124 799 OFFCURVE",
"50 761 OFFCURVE",
"50 693 CURVE SMOOTH",
"50 652 OFFCURVE",
"71 636 OFFCURVE",
"98 618 CURVE",
"51 597 OFFCURVE",
"36 566 OFFCURVE",
"36 532 CURVE SMOOTH",
"36 464 OFFCURVE",
"108 427 OFFCURVE",
"210 427 CURVE SMOOTH"
);
},
{
closed = 1;
nodes = (
"178 498 OFFCURVE",
"157 512 OFFCURVE",
"157 541 CURVE SMOOTH",
"157 568 OFFCURVE",
"181 583 OFFCURVE",
"210 583 CURVE SMOOTH",
"238 583 OFFCURVE",
"264 568 OFFCURVE",
"264 541 CURVE SMOOTH",
"264 512 OFFCURVE",
"240 498 OFFCURVE",
"210 498 CURVE SMOOTH"
);
},
{
closed = 1;
nodes = (
"181 650 OFFCURVE",
"157 660 OFFCURVE",
"157 689 CURVE SMOOTH",
"157 717 OFFCURVE",
"178 728 OFFCURVE",
"210 728 CURVE SMOOTH",
"240 728 OFFCURVE",
"264 717 OFFCURVE",
"264 689 CURVE SMOOTH",
"264 660 OFFCURVE",
"238 650 OFFCURVE",
"210 650 CURVE SMOOTH"
);
}
);
width = 420;
}
);
leftKerningGroup = eightsuperior;
rightKerningGroup = eightsuperior;
unicode = 2078;
},
{
glyphname = ninesuperior;
layers = (
{
layerId = "150D365C-6679-4329-86DF-DF48353E59C3";
paths = (
{
closed = 1;
nodes = (
"323 426 OFFCURVE",
"375 483 OFFCURVE",
"375 623 CURVE SMOOTH",
"375 745 OFFCURVE",
"323 799 OFFCURVE",
"208 800 CURVE SMOOTH",
"105 801 OFFCURVE",
"45 753 OFFCURVE",
"45 673 CURVE SMOOTH",
"45 601 OFFCURVE",
"96 564 OFFCURVE",
"179 564 CURVE SMOOTH",
"207 564 OFFCURVE",
"237 574 OFFCURVE",
"254 591 CURVE",
"254 525 OFFCURVE",
"249 503 OFFCURVE",
"207 503 CURVE SMOOTH",
"177 503 OFFCURVE",
"163 515 OFFCURVE",
"163 549 CURVE",
"54 549 LINE",
"54 469 OFFCURVE",
"113 428 OFFCURVE",
"208 427 CURVE SMOOTH"
);
},
{
closed = 1;
nodes = (
"180 632 OFFCURVE",
"162 651 OFFCURVE",
"162 679 CURVE SMOOTH",
"162 707 OFFCURVE",
"180 725 OFFCURVE",
"208 725 CURVE SMOOTH",
"236 725 OFFCURVE",
"254 706 OFFCURVE",
"254 678 CURVE SMOOTH",
"254 650 OFFCURVE",
"236 632 OFFCURVE",
"208 632 CURVE SMOOTH"
);
}
);
width = 420;
}
);
leftKerningGroup = ninesuperior;
rightKerningGroup = ninesuperior;
unicode = 2079;
},
{
glyphname = fraction;
layers = (
{
layerId = "150D365C-6679-4329-86DF-DF48353E59C3";
paths = (
{
closed = 1;
nodes = (
"-83 -12 LINE",
"328 700 LINE",
"232 700 LINE",
"-178 -12 LINE"
);
}
);
width = 167;
}
);
leftKerningGroup = fraction;
note = fraction;
rightKerningGroup = fraction;
unicode = 2044;
},
{
glyphname = onehalf;
layers = (
{
layerId = "150D365C-6679-4329-86DF-DF48353E59C3";
paths = (
{
closed = 1;
nodes = (
"355 -12 LINE",
"766 700 LINE",
"670 700 LINE",
"260 -12 LINE"
);
},
{
closed = 1;
nodes = (
"379 281 LINE",
"379 373 LINE",
"276 373 LINE",
"276 694 LINE",
"232 694 LINE",
"181 663 OFFCURVE",
"99 633 OFFCURVE",
"38 629 CURVE",
"38 560 LINE",
"145 560 LINE",
"145 373 LINE",
"38 373 LINE",
"38 281 LINE"
);
},
{
closed = 1;
nodes = (
"975 0 LINE",
"975 102 LINE",
"778 102 LINE",
"793 112 OFFCURVE",
"809 122 OFFCURVE",
"824 131 CURVE SMOOTH",
"901 178 OFFCURVE",
"970 221 OFFCURVE",
"970 296 CURVE SMOOTH",
"970 370 OFFCURVE",
"903 420 OFFCURVE",
"796 420 CURVE SMOOTH",
"667 420 OFFCURVE",
"602 364 OFFCURVE",
"602 280 CURVE SMOOTH",
"602 276 OFFCURVE",
"602 272 OFFCURVE",
"603 267 CURVE",
"720 267 LINE",
"720 279 LINE SMOOTH",
"720 311 OFFCURVE",
"743 335 OFFCURVE",
"783 335 CURVE SMOOTH",
"823 335 OFFCURVE",
"840 314 OFFCURVE",
"840 291 CURVE SMOOTH",
"840 276 OFFCURVE",
"830 263 OFFCURVE",
"810 246 CURVE SMOOTH",
"779 220 OFFCURVE",
"750 198 OFFCURVE",
"724 180 CURVE SMOOTH",
"649 125 OFFCURVE",
"601 93 OFFCURVE",
"601 29 CURVE SMOOTH",
"601 0 LINE"
);
}
);
width = 1000;
}
);
leftKerningGroup = onehalf;
note = onehalf;
rightKerningGroup = onehalf;
unicode = 00BD;
},
{
glyphname = onequarter;
layers = (
{
layerId = "150D365C-6679-4329-86DF-DF48353E59C3";
paths = (
{
closed = 1;
nodes = (
"355 -12 LINE",
"766 700 LINE",
"670 700 LINE",
"260 -12 LINE"
);
},
{
closed = 1;
nodes = (
"379 280 LINE",
"379 372 LINE",
"276 372 LINE",
"276 693 LINE",
"232 693 LINE",
"181 662 OFFCURVE",
"99 632 OFFCURVE",
"38 628 CURVE",
"38 559 LINE",
"145 559 LINE",
"145 372 LINE",
"38 372 LINE",
"38 280 LINE"
);
},
{
closed = 1;
nodes = (
"915 0 LINE",
"915 85 LINE",
"978 85 LINE",
"978 173 LINE",
"915 173 LINE",
"915 380 LINE",
"859 380 LINE",
"850 346 OFFCURVE",
"813 288 OFFCURVE",
"791 258 CURVE",
"791 173 LINE",
"661 173 LINE",
"723 231 OFFCURVE",
"816 354 OFFCURVE",
"825 420 CURVE",
"697 420 LINE",
"667 326 OFFCURVE",
"613 231 OFFCURVE",
"571 174 CURVE",
"571 85 LINE",
"791 85 LINE",
"791 0 LINE"
);
}
);
width = 1000;
}
);
leftKerningGroup = onehalf;
note = onequarter;
rightKerningGroup = onehalf;
unicode = 00BC;
},
{
glyphname = threequarters;
layers = (
{
layerId = "150D365C-6679-4329-86DF-DF48353E59C3";
paths = (
{
closed = 1;
nodes = (
"355 -12 LINE",
"766 700 LINE",
"670 700 LINE",
"260 -12 LINE"
);
},
{
closed = 1;
nodes = (
"350 275 OFFCURVE",
"407 328 OFFCURVE",
"411 394 CURVE",
"411 444 OFFCURVE",
"382 480 OFFCURVE",
"332 495 CURVE",
"332 499 LINE",
"371 512 OFFCURVE",
"398 548 OFFCURVE",
"398 589 CURVE SMOOTH",
"398 650 OFFCURVE",
"335 701 OFFCURVE",
"223 701 CURVE SMOOTH",
"108 701 OFFCURVE",
"43 650 OFFCURVE",
"43 589 CURVE SMOOTH",
"43 574 LINE",
"152 574 LINE",
"152 580 LINE SMOOTH",
"152 604 OFFCURVE",
"178 619 OFFCURVE",
"212 619 CURVE SMOOTH",
"249 619 OFFCURVE",
"270 596 OFFCURVE",
"270 572 CURVE SMOOTH",
"270 542 OFFCURVE",
"249 529 OFFCURVE",
"224 529 CURVE SMOOTH",
"186 529 LINE",
"186 455 LINE",
"234 455 LINE SMOOTH",
"260 455 OFFCURVE",
"280 441 OFFCURVE",
"280 412 CURVE SMOOTH",
"280 380 OFFCURVE",
"262 357 OFFCURVE",
"212 357 CURVE SMOOTH",
"163 357 OFFCURVE",
"144 378 OFFCURVE",
"144 400 CURVE SMOOTH",
"144 406 LINE",
"28 406 LINE",
"28 393 LINE SMOOTH",
"28 328 OFFCURVE",
"89 275 OFFCURVE",
"220 275 CURVE SMOOTH"
);
},
{
closed = 1;
nodes = (
"907 0 LINE",
"907 85 LINE",
"970 85 LINE",
"970 173 LINE",
"907 173 LINE",
"907 380 LINE",
"851 380 LINE",
"842 346 OFFCURVE",
"805 288 OFFCURVE",
"783 258 CURVE",
"783 173 LINE",
"653 173 LINE",
"715 231 OFFCURVE",
"808 354 OFFCURVE",
"817 420 CURVE",
"689 420 LINE",
"659 326 OFFCURVE",
"605 231 OFFCURVE",
"563 174 CURVE",
"563 85 LINE",
"783 85 LINE",
"783 0 LINE"
);
}
);
width = 1000;
}
);
leftKerningGroup = onehalf;
note = threequarters;
rightKerningGroup = onehalf;
unicode = 00BE;
},
{
glyphname = period;
layers = (
{
layerId = "150D365C-6679-4329-86DF-DF48353E59C3";
paths = (
{
closed = 1;
nodes = (
"273 0 LINE",
"273 199 LINE",
"61 199 LINE",
"61 0 LINE"
);
}
);
width = 333;
}
);
leftKerningGroup = period;
note = period;
rightKerningGroup = period;
unicode = 002E;
},
{
glyphname = comma;
layers = (
{
layerId = "150D365C-6679-4329-86DF-DF48353E59C3";
paths = (
{
closed = 1;
nodes = (
"168 -183 LINE",
"273 11 LINE",
"273 199 LINE",
"61 199 LINE",
"61 0 LINE",
"142 0 LINE",
"60 -183 LINE"
);
}
);
width = 333;
}
);
leftKerningGroup = comma;
note = comma;
rightKerningGroup = period;
unicode = 002C;
},
{
glyphname = colon;
layers = (
{
layerId = "150D365C-6679-4329-86DF-DF48353E59C3";
paths = (
{
closed = 1;
nodes = (
"273 328 LINE",
"273 528 LINE",
"61 528 LINE",
"61 328 LINE"
);
},
{
closed = 1;
nodes = (
"273 0 LINE",
"273 199 LINE",
"61 199 LINE",
"61 0 LINE"
);
}
);
width = 333;
}
);
leftKerningGroup = colon;
note = colon;
rightKerningGroup = colon;
unicode = 003A;
},
{
glyphname = semicolon;
layers = (
{
layerId = "150D365C-6679-4329-86DF-DF48353E59C3";
paths = (
{
closed = 1;
nodes = (
"168 -183 LINE",
"273 11 LINE",
"273 199 LINE",
"61 199 LINE",
"61 0 LINE",
"142 0 LINE",
"60 -183 LINE"
);
},
{
closed = 1;
nodes = (
"273 328 LINE",
"273 528 LINE",
"61 528 LINE",
"61 328 LINE"
);
}
);
width = 333;
}
);
leftKerningGroup = semicolon;
note = semicolon;
rightKerningGroup = colon;
unicode = 003B;
},
{
glyphname = ellipsis;
layers = (
{
layerId = "150D365C-6679-4329-86DF-DF48353E59C3";
paths = (
{
closed = 1;
nodes = (
"940 0 LINE",
"940 199 LINE",
"728 199 LINE",
"728 0 LINE"
);
},
{
closed = 1;
nodes = (
"273 0 LINE",
"273 199 LINE",
"61 199 LINE",
"61 0 LINE"
);
},
{
closed = 1;
nodes = (
"606 0 LINE",
"606 199 LINE",
"394 199 LINE",
"394 0 LINE"
);
}
);
width = 1000;
}
);
leftKerningGroup = period;
note = ellipsis;
rightKerningGroup = period;
unicode = 2026;
},
{
glyphname = exclam;
layers = (
{
layerId = "150D365C-6679-4329-86DF-DF48353E59C3";
paths = (
{
closed = 1;
nodes = (
"224 239 LINE",
"266 688 LINE",
"67 688 LINE",
"107 239 LINE"
);
},
{
closed = 1;
nodes = (
"256 0 LINE",
"256 167 LINE",
"76 167 LINE",
"76 0 LINE"
);
}
);
width = 333;
}
);
leftKerningGroup = exclam;
note = exclam;
rightKerningGroup = exclam;
unicode = 0021;
},
{
glyphname = exclamdown;
layers = (
{
layerId = "150D365C-6679-4329-86DF-DF48353E59C3";
paths = (
{
closed = 1;
nodes = (
"266 -160 LINE",
"226 289 LINE",
"109 289 LINE",
"67 -160 LINE"
);
},
{
closed = 1;
nodes = (
"257 361 LINE",
"257 528 LINE",
"77 528 LINE",
"77 361 LINE"
);
}
);
width = 333;
}
);
leftKerningGroup = exclam;
note = exclamdown;
rightKerningGroup = exclam;
unicode = 00A1;
},
{
glyphname = question;
layers = (
{
layerId = "150D365C-6679-4329-86DF-DF48353E59C3";
paths = (
{
closed = 1;
nodes = (
"395 246 LINE",
"395 267 LINE SMOOTH",
"395 320 OFFCURVE",
"566 360 OFFCURVE",
"566 496 CURVE SMOOTH",
"566 620 OFFCURVE",
"463 700 OFFCURVE",
"310 700 CURVE SMOOTH",
"153 700 OFFCURVE",
"37 619 OFFCURVE",
"37 489 CURVE SMOOTH",
"37 476 OFFCURVE",
"39 464 OFFCURVE",
"40 451 CURVE",
"224 451 LINE",
"223 460 OFFCURVE",
"223 469 OFFCURVE",
"223 478 CURVE SMOOTH",
"223 520 OFFCURVE",
"234 562 OFFCURVE",
"288 562 CURVE SMOOTH",
"330 562 OFFCURVE",
"354 529 OFFCURVE",
"354 492 CURVE SMOOTH",
"354 411 OFFCURVE",
"224 369 OFFCURVE",
"224 296 CURVE SMOOTH",
"224 246 LINE"
);
},
{
closed = 1;
nodes = (
"410 0 LINE",
"410 185 LINE",
"212 185 LINE",
"212 0 LINE"
);
}
);
width = 611;
}
);
leftKerningGroup = quesion;
note = question;
rightKerningGroup = question;
unicode = 003F;
},
{
glyphname = questiondown;
layers = (
{
layerId = "150D365C-6679-4329-86DF-DF48353E59C3";
paths = (
{
closed = 1;
nodes = (
"459 -173 OFFCURVE",
"575 -92 OFFCURVE",
"575 38 CURVE SMOOTH",
"575 51 OFFCURVE",
"573 63 OFFCURVE",
"572 76 CURVE",
"388 76 LINE",
"389 67 OFFCURVE",
"389 58 OFFCURVE",
"389 49 CURVE SMOOTH",
"389 7 OFFCURVE",
"378 -35 OFFCURVE",
"324 -35 CURVE SMOOTH",
"282 -35 OFFCURVE",
"258 -2 OFFCURVE",
"258 35 CURVE SMOOTH",
"258 116 OFFCURVE",
"388 158 OFFCURVE",
"388 231 CURVE SMOOTH",
"388 281 LINE",
"217 281 LINE",
"217 260 LINE SMOOTH",
"217 207 OFFCURVE",
"46 167 OFFCURVE",
"46 31 CURVE SMOOTH",
"46 -93 OFFCURVE",
"149 -173 OFFCURVE",
"302 -173 CURVE SMOOTH"
);
},
{
closed = 1;
nodes = (
"400 342 LINE",
"400 527 LINE",
"202 527 LINE",
"202 342 LINE"
);
}
);
width = 611;
}
);
leftKerningGroup = questiondown;
note = questiondown;
rightKerningGroup = questiondown;
unicode = 00BF;
},
{
glyphname = periodcentered;
layers = (
{
layerId = "150D365C-6679-4329-86DF-DF48353E59C3";
paths = (
{
closed = 1;
nodes = (
"262 235 LINE",
"262 418 LINE",
"71 418 LINE",
"71 235 LINE"
);
}
);
width = 333;
}
);
leftKerningGroup = hyphen;
note = periodcentered;
rightKerningGroup = hyphen;
unicode = 00B7;
},
{
glyphname = bullet;
layers = (
{
layerId = "150D365C-6679-4329-86DF-DF48353E59C3";
paths = (
{
closed = 1;
nodes = (
"339 183 OFFCURVE",
"412 256 OFFCURVE",
"412 345 CURVE SMOOTH",
"412 434 OFFCURVE",
"339 507 OFFCURVE",
"250 507 CURVE SMOOTH",
"161 507 OFFCURVE",
"88 434 OFFCURVE",
"88 345 CURVE SMOOTH",
"88 256 OFFCURVE",
"161 183 OFFCURVE",
"250 183 CURVE SMOOTH"
);
}
);
width = 500;
}
);
leftKerningGroup = hyphen;
note = bullet;
rightKerningGroup = hyphen;
unicode = 2022;
},
{
glyphname = asterisk;
layers = (
{
layerId = "150D365C-6679-4329-86DF-DF48353E59C3";
paths = (
{
closed = 1;
nodes = (
"324 322 LINE",
"312 444 LINE",
"413 373 LINE",
"460 454 LINE",
"348 505 LINE",
"460 557 LINE",
"413 637 LINE",
"312 567 LINE",
"324 688 LINE",
"231 688 LINE",
"243 566 LINE",
"142 637 LINE",
"95 557 LINE",
"207 505 LINE",
"95 454 LINE",
"142 373 LINE",
"243 444 LINE",
"231 322 LINE"
);
}
);
width = 556;
}
);
leftKerningGroup = asterisk;
note = asterisk;
rightKerningGroup = asterisk;
unicode = 002A;
},
{
glyphname = numbersign;
layers = (
{
layerId = "150D365C-6679-4329-86DF-DF48353E59C3";
paths = (
{
closed = 1;
nodes = (
"204 -11 LINE",
"240 159 LINE",
"355 159 LINE",
"318 -11 LINE",
"435 -11 LINE",
"472 159 LINE",
"606 159 LINE",
"606 268 LINE",
"500 268 LINE",
"526 391 LINE",
"639 391 LINE",
"639 502 LINE",
"546 502 LINE",
"592 700 LINE",
"472 700 LINE",
"428 502 LINE",
"317 502 LINE",
"362 700 LINE",
"240 700 LINE",
"196 502 LINE",
"66 502 LINE",
"66 391 LINE",
"174 391 LINE",
"146 268 LINE",
"20 268 LINE",
"20 159 LINE",
"120 159 LINE",
"84 -11 LINE"
);
},
{
closed = 1;
nodes = (
"292 390 LINE",
"406 391 LINE",
"379 267 LINE",
"265 267 LINE"
);
}
);
width = 660;
}
);
leftKerningGroup = numbersign;
note = numbersign;
rightKerningGroup = numbersign;
unicode = 0023;
},
{
glyphname = slash;
layers = (
{
layerId = "150D365C-6679-4329-86DF-DF48353E59C3";
paths = (
{
closed = 1;
nodes = (
"120 -48 LINE",
"279 736 LINE",
"158 736 LINE",
"-2 -48 LINE"
);
}
);
width = 278;
}
);
leftKerningGroup = slash;
note = slash;
rightKerningGroup = slash;
unicode = 002F;
},
{
glyphname = backslash;
layers = (
{
layerId = "150D365C-6679-4329-86DF-DF48353E59C3";
paths = (
{
closed = 1;
nodes = (
"279 -48 LINE",
"119 736 LINE",
"-2 736 LINE",
"157 -48 LINE"
);
}
);
width = 278;
}
);
leftKerningGroup = backslash;
note = backslash;
rightKerningGroup = backslash;
unicode = 005C;
},
{
glyphname = uni203E;
layers = (
{
layerId = "150D365C-6679-4329-86DF-DF48353E59C3";
paths = (
{
closed = 1;
nodes = (
"501 780 LINE",
"501 842 LINE",
"1 842 LINE",
"1 780 LINE"
);
}
);
width = 500;
}
);
leftKerningGroup = uni203E;
note = uni203E;
rightKerningGroup = uni203E;
unicode = 203E;
},
{
glyphname = periodcentered.loclCAT.case;
layers = (
{
anchors = (
{
name = _center;
position = "{96, 399}";
}
);
layerId = "150D365C-6679-4329-86DF-DF48353E59C3";
paths = (
{
closed = 1;
nodes = (
"193 310 LINE",
"193 489 LINE",
"0 489 LINE",
"0 310 LINE"
);
}
);
width = 193;
}
);
leftKerningGroup = periodcentered.loclCAT.case;
rightKerningGroup = periodcentered.loclCAT.case;
},
{
glyphname = periodcentered.loclCAT;
layers = (
{
anchors = (
{
name = _center;
position = "{97, 360}";
}
);
layerId = "150D365C-6679-4329-86DF-DF48353E59C3";
paths = (
{
closed = 1;
nodes = (
"173 290 LINE",
"173 429 LINE",
"20 429 LINE",
"20 290 LINE"
);
}
);
width = 193;
}
);
leftKerningGroup = period;
rightKerningGroup = period;
},
{
glyphname = parenleft;
layers = (
{
layerId = "150D365C-6679-4329-86DF-DF48353E59C3";
paths = (
{
closed = 1;
nodes = (
"355 -160 LINE",
"276 -37 OFFCURVE",
"222 146 OFFCURVE",
"222 288 CURVE SMOOTH",
"222 429 OFFCURVE",
"276 614 OFFCURVE",
"355 737 CURVE",
"235 737 LINE",
"120 614 OFFCURVE",
"55 452 OFFCURVE",
"55 288 CURVE SMOOTH",
"55 125 OFFCURVE",
"120 -37 OFFCURVE",
"235 -160 CURVE"
);
}
);
width = 389;
}
);
leftKerningGroup = parenleft;
note = parenleft;
rightKerningGroup = parenleft;
unicode = 0028;
},
{
glyphname = parenright;
layers = (
{
layerId = "150D365C-6679-4329-86DF-DF48353E59C3";
paths = (
{
closed = 1;
nodes = (
"154 -160 LINE",
"269 -37 OFFCURVE",
"334 125 OFFCURVE",
"334 288 CURVE SMOOTH",
"334 452 OFFCURVE",
"269 614 OFFCURVE",
"154 737 CURVE",
"34 737 LINE",
"113 614 OFFCURVE",
"167 429 OFFCURVE",
"167 288 CURVE SMOOTH",
"167 146 OFFCURVE",
"113 -37 OFFCURVE",
"34 -160 CURVE"
);
}
);
width = 389;
}
);
leftKerningGroup = parenright;
note = parenright;
rightKerningGroup = parenright;
unicode = 0029;
},
{
glyphname = braceleft;
layers = (
{
layerId = "150D365C-6679-4329-86DF-DF48353E59C3";
paths = (
{
closed = 1;
nodes = (
"349 -62 LINE",
"320 -62 OFFCURVE",
"275 -58 OFFCURVE",
"273 -20 CURVE SMOOTH",
"270 47 OFFCURVE",
"266 115 OFFCURVE",
"263 182 CURVE SMOOTH",
"260 247 OFFCURVE",
"229 285 OFFCURVE",
"162 285 CURVE",
"162 294 LINE",
"229 294 OFFCURVE",
"260 332 OFFCURVE",
"263 397 CURVE SMOOTH",
"266 464 OFFCURVE",
"270 531 OFFCURVE",
"273 598 CURVE SMOOTH",
"275 635 OFFCURVE",
"321 639 OFFCURVE",
"349 639 CURVE",
"349 737 LINE",
"183 737 OFFCURVE",
"117 717 OFFCURVE",
"117 625 CURVE SMOOTH",
"117 386 LINE SMOOTH",
"117 346 OFFCURVE",
"70 329 OFFCURVE",
"30 329 CURVE",
"30 250 LINE",
"75 250 OFFCURVE",
"117 235 OFFCURVE",
"117 195 CURVE SMOOTH",
"117 -48 LINE SMOOTH",
"117 -139 OFFCURVE",
"180 -160 OFFCURVE",
"349 -160 CURVE"
);
}
);
width = 389;
}
);
leftKerningGroup = parenleft;
note = braceleft;
rightKerningGroup = parenleft;
unicode = 007B;
},
{
glyphname = braceright;
layers = (
{
layerId = "150D365C-6679-4329-86DF-DF48353E59C3";
paths = (
{
closed = 1;
nodes = (
"206 -160 OFFCURVE",
"272 -140 OFFCURVE",
"272 -48 CURVE SMOOTH",
"272 195 LINE SMOOTH",
"272 235 OFFCURVE",
"314 250 OFFCURVE",
"359 250 CURVE",
"359 329 LINE",
"319 329 OFFCURVE",
"272 346 OFFCURVE",
"272 386 CURVE SMOOTH",
"272 625 LINE SMOOTH",
"272 716 OFFCURVE",
"209 737 OFFCURVE",
"40 737 CURVE",
"40 639 LINE",
"68 639 OFFCURVE",
"114 635 OFFCURVE",
"116 598 CURVE SMOOTH",
"119 531 OFFCURVE",
"123 464 OFFCURVE",
"126 397 CURVE SMOOTH",
"129 332 OFFCURVE",
"160 294 OFFCURVE",
"227 294 CURVE",
"227 285 LINE",
"160 285 OFFCURVE",
"129 247 OFFCURVE",
"126 182 CURVE SMOOTH",
"123 115 OFFCURVE",
"119 47 OFFCURVE",
"116 -20 CURVE SMOOTH",
"114 -58 OFFCURVE",
"69 -62 OFFCURVE",
"40 -62 CURVE",
"40 -160 LINE"
);
}
);
width = 389;
}
);
leftKerningGroup = parenright;
note = braceright;
rightKerningGroup = parenright;
unicode = 007D;
},
{
glyphname = bracketleft;
layers = (
{
layerId = "150D365C-6679-4329-86DF-DF48353E59C3";
paths = (
{
closed = 1;
nodes = (
"339 -160 LINE",
"339 -57 LINE",
"225 -57 LINE",
"225 634 LINE",
"339 634 LINE",
"339 737 LINE",
"66 737 LINE",
"66 -160 LINE"
);
}
);
width = 389;
}
);
leftKerningGroup = parenleft;
note = bracketleft;
rightKerningGroup = parenleft;
unicode = 005B;
},
{
glyphname = bracketright;
layers = (
{
layerId = "150D365C-6679-4329-86DF-DF48353E59C3";
paths = (
{
closed = 1;
nodes = (
"339 -160 LINE",
"339 737 LINE",
"66 737 LINE",
"66 634 LINE",
"180 634 LINE",
"180 -57 LINE",
"66 -57 LINE",
"66 -160 LINE"
);
}
);
width = 389;
}
);
leftKerningGroup = parenright;
note = bracketright;
rightKerningGroup = parenright;
unicode = 005D;
},
{
glyphname = hyphen;
layers = (
{
layerId = "150D365C-6679-4329-86DF-DF48353E59C3";
paths = (
{
closed = 1;
nodes = (
"294 196 LINE",
"294 354 LINE",
"39 354 LINE",
"39 196 LINE"
);
}
);
width = 333;
}
);
leftKerningGroup = hyphen;
note = hyphen;
rightKerningGroup = hyphen;
unicode = 002D;
},
{
glyphname = softhyphen;
layers = (
{
layerId = "150D365C-6679-4329-86DF-DF48353E59C3";
paths = (
{
closed = 1;
nodes = (
"294 196 LINE",
"294 354 LINE",
"39 354 LINE",
"39 196 LINE"
);
}
);
width = 333;
}
);
leftKerningGroup = uni00AD;
note = uni00AD;
rightKerningGroup = softhyphen;
unicode = 00AD;
},
{
glyphname = endash;
layers = (
{
layerId = "150D365C-6679-4329-86DF-DF48353E59C3";
paths = (
{
closed = 1;
nodes = (
"500 196 LINE",
"500 334 LINE",
"0 334 LINE",
"0 196 LINE"
);
}
);
width = 500;
}
);
leftKerningGroup = hyphen;
note = endash;
rightKerningGroup = hyphen;
unicode = 2013;
},
{
glyphname = emdash;
layers = (
{
layerId = "150D365C-6679-4329-86DF-DF48353E59C3";
paths = (
{
closed = 1;
nodes = (
"1000 196 LINE",
"1000 334 LINE",
"0 334 LINE",
"0 196 LINE"
);
}
);
width = 1000;
}
);
leftKerningGroup = hyphen;
note = emdash;
rightKerningGroup = hyphen;
unicode = 2014;
},
{
glyphname = horizontalbar;
layers = (
{
layerId = "150D365C-6679-4329-86DF-DF48353E59C3";
paths = (
{
closed = 1;
nodes = (
"900 196 LINE",
"900 334 LINE",
"100 334 LINE",
"100 196 LINE"
);
}
);
width = 1000;
}
);
leftKerningGroup = horizontalbar;
note = uni2015;
rightKerningGroup = horizontalbar;
unicode = 2015;
},
{
glyphname = underscore;
layers = (
{
layerId = "150D365C-6679-4329-86DF-DF48353E59C3";
paths = (
{
closed = 1;
nodes = (
"556 -180 LINE",
"556 -62 LINE",
"0 -62 LINE",
"0 -180 LINE"
);
}
);
width = 556;
}
);
leftKerningGroup = period;
note = underscore;
rightKerningGroup = period;
unicode = 005F;
},
{
glyphname = underscoredbl;
layers = (
{
layerId = "150D365C-6679-4329-86DF-DF48353E59C3";
paths = (
{
closed = 1;
nodes = (
"500 -126 LINE",
"500 -64 LINE",
"0 -64 LINE",
"0 -126 LINE"
);
},
{
closed = 1;
nodes = (
"499 -221 LINE",
"499 -159 LINE",
"0 -159 LINE",
"0 -221 LINE"
);
}
);
width = 500;
}
);
leftKerningGroup = underscoredbl;
note = underscoredbl;
rightKerningGroup = underscoredbl;
unicode = 2017;
},
{
glyphname = quotesinglbase;
layers = (
{
layerId = "150D365C-6679-4329-86DF-DF48353E59C3";
paths = (
{
closed = 1;
nodes = (
"139 -182 LINE",
"230 10 LINE",
"230 175 LINE",
"44 175 LINE",
"44 0 LINE",
"115 0 LINE",
"44 -182 LINE"
);
}
);
width = 278;
}
);
leftKerningGroup = period;
note = quotesinglbase;
rightKerningGroup = period;
unicode = 201A;
},
{
glyphname = quotedblbase;
layers = (
{
layerId = "150D365C-6679-4329-86DF-DF48353E59C3";
paths = (
{
closed = 1;
nodes = (
"368 -182 LINE",
"459 10 LINE",
"459 175 LINE",
"273 175 LINE",
"273 0 LINE",
"344 0 LINE",
"273 -182 LINE"
);
},
{
closed = 1;
nodes = (
"139 -182 LINE",
"230 10 LINE",
"230 175 LINE",
"44 175 LINE",
"44 0 LINE",
"115 0 LINE",
"44 -182 LINE"
);
}
);
width = 500;
}
);
leftKerningGroup = period;
note = quotedblbase;
rightKerningGroup = period;
unicode = 201E;
},
{
glyphname = quotedblleft;
layers = (
{
layerId = "150D365C-6679-4329-86DF-DF48353E59C3";
paths = (
{
closed = 1;
nodes = (
"456 331 LINE",
"456 506 LINE",
"385 506 LINE",
"456 688 LINE",
"361 688 LINE",
"270 496 LINE",
"270 331 LINE"
);
},
{
closed = 1;
nodes = (
"227 331 LINE",
"227 506 LINE",
"156 506 LINE",
"227 688 LINE",
"132 688 LINE",
"41 496 LINE",
"41 331 LINE"
);
}
);
width = 500;
}
);
leftKerningGroup = quoteleft;
note = quotedblleft;
rightKerningGroup = quoteleft;
unicode = 201C;
},
{
glyphname = quotedblright;
layers = (
{
layerId = "150D365C-6679-4329-86DF-DF48353E59C3";
paths = (
{
closed = 1;
nodes = (
"368 331 LINE",
"459 523 LINE",
"459 688 LINE",
"273 688 LINE",
"273 513 LINE",
"344 513 LINE",
"273 331 LINE"
);
},
{
closed = 1;
nodes = (
"139 331 LINE",
"230 523 LINE",
"230 688 LINE",
"44 688 LINE",
"44 513 LINE",
"115 513 LINE",
"44 331 LINE"
);
}
);
width = 500;
}
);
leftKerningGroup = quoteright;
note = quotedblright;
rightKerningGroup = quoteright;
unicode = 201D;
},
{
glyphname = quoteleft;
layers = (
{
layerId = "150D365C-6679-4329-86DF-DF48353E59C3";
paths = (
{
closed = 1;
nodes = (
"230 331 LINE",
"230 506 LINE",
"159 506 LINE",
"230 688 LINE",
"135 688 LINE",
"44 496 LINE",
"44 331 LINE"
);
}
);
width = 278;
}
);
leftKerningGroup = quoteleft;
note = quoteleft;
rightKerningGroup = quoteleft;
unicode = 2018;
},
{
glyphname = quoteright;
layers = (
{
layerId = "150D365C-6679-4329-86DF-DF48353E59C3";
paths = (
{
closed = 1;
nodes = (
"143 331 LINE",
"234 523 LINE",
"234 688 LINE",
"48 688 LINE",
"48 513 LINE",
"119 513 LINE",
"48 331 LINE"
);
}
);
width = 278;
}
);
leftKerningGroup = quoteright;
note = quoteright;
rightKerningGroup = quoteright;
unicode = 2019;
},
{
glyphname = quotereversed;
layers = (
{
layerId = "150D365C-6679-4329-86DF-DF48353E59C3";
paths = (
{
closed = 1;
nodes = (
"230 331 LINE",
"159 513 LINE",
"230 513 LINE",
"230 688 LINE",
"44 688 LINE",
"44 523 LINE",
"135 331 LINE"
);
}
);
width = 278;
}
);
leftKerningGroup = quotereversed;
rightKerningGroup = quotereversed;
unicode = 201B;
},
{
glyphname = guillemetleft;
layers = (
{
layerId = "150D365C-6679-4329-86DF-DF48353E59C3";
paths = (
{
closed = 1;
nodes = (
"606 119 LINE",
"468 324 LINE",
"606 528 LINE",
"463 528 LINE",
"296 324 LINE",
"463 119 LINE"
);
},
{
closed = 1;
nodes = (
"370 119 LINE",
"232 324 LINE",
"370 528 LINE",
"227 528 LINE",
"60 324 LINE",
"227 119 LINE"
);
}
);
width = 667;
}
);
leftKerningGroup = guilsinglleft;
note = guillemotleft;
rightKerningGroup = guilsinglleft;
unicode = 00AB;
},
{
glyphname = guillemetright;
layers = (
{
layerId = "150D365C-6679-4329-86DF-DF48353E59C3";
paths = (
{
closed = 1;
nodes = (
"440 119 LINE",
"607 324 LINE",
"440 528 LINE",
"297 528 LINE",
"435 324 LINE",
"297 119 LINE"
);
},
{
closed = 1;
nodes = (
"204 119 LINE",
"371 324 LINE",
"204 528 LINE",
"61 528 LINE",
"199 324 LINE",
"61 119 LINE"
);
}
);
width = 667;
}
);
leftKerningGroup = guilsinglright;
note = guillemotright;
rightKerningGroup = guilsinglright;
unicode = 00BB;
},
{
glyphname = guilsinglleft;
layers = (
{
layerId = "150D365C-6679-4329-86DF-DF48353E59C3";
paths = (
{
closed = 1;
nodes = (
"321 119 LINE",
"183 324 LINE",
"321 528 LINE",
"178 528 LINE",
"11 324 LINE",
"178 119 LINE"
);
}
);
width = 333;
}
);
leftKerningGroup = guilsinglleft;
note = guilsinglleft;
rightKerningGroup = guilsinglleft;
unicode = 2039;
},
{
glyphname = guilsinglright;
layers = (
{
layerId = "150D365C-6679-4329-86DF-DF48353E59C3";
paths = (
{
closed = 1;
nodes = (
"155 119 LINE",
"322 324 LINE",
"155 528 LINE",
"12 528 LINE",
"150 324 LINE",
"12 119 LINE"
);
}
);
width = 333;
}
);
leftKerningGroup = guilsinglright;
note = guilsinglright;
rightKerningGroup = guilsinglright;
unicode = 203A;
},
{
glyphname = quotedbl;
layers = (
{
layerId = "150D365C-6679-4329-86DF-DF48353E59C3";
paths = (
{
closed = 1;
nodes = (
"393 398 LINE",
"441 541 LINE",
"441 688 LINE",
"278 688 LINE",
"278 541 LINE",
"325 398 LINE"
);
},
{
closed = 1;
nodes = (
"175 398 LINE",
"222 541 LINE",
"222 688 LINE",
"59 688 LINE",
"59 541 LINE",
"106 398 LINE"
);
}
);
width = 500;
}
);
leftKerningGroup = quotesingle;
note = quotedbl;
rightKerningGroup = quotesingle;
unicode = 0022;
},
{
glyphname = quotesingle;
layers = (
{
layerId = "150D365C-6679-4329-86DF-DF48353E59C3";
paths = (
{
closed = 1;
nodes = (
"172 398 LINE",
"220 541 LINE",
"220 688 LINE",
"57 688 LINE",
"57 541 LINE",
"104 398 LINE"
);
}
);
width = 278;
}
);
leftKerningGroup = quotesingle;
note = quotesingle;
rightKerningGroup = quotesingle;
unicode = 0027;
},
{
glyphname = "leftanglebracket-math";
layers = (
{
layerId = "150D365C-6679-4329-86DF-DF48353E59C3";
paths = (
{
closed = 1;
nodes = (
"522 -120 LINE",
"222 235 LINE",
"521 589 LINE",
"352 589 LINE",
"55 235 LINE",
"353 -120 LINE"
);
}
);
width = 577;
}
);
leftKerningGroup = "leftanglebracket-math";
rightKerningGroup = "leftanglebracket-math";
unicode = 27E8;
},
{
glyphname = "rightanglebracket-math";
layers = (
{
layerId = "150D365C-6679-4329-86DF-DF48353E59C3";
paths = (
{
closed = 1;
nodes = (
"225 -120 LINE",
"522 234 LINE",
"224 589 LINE",
"55 589 LINE",
"355 234 LINE",
"56 -120 LINE"
);
}
);
width = 577;
}
);
leftKerningGroup = "rightanglebracket-math";
rightKerningGroup = "rightanglebracket-math";
unicode = 27E9;
},
{
glyphname = .notdef;
layers = (
{
layerId = "150D365C-6679-4329-86DF-DF48353E59C3";
paths = (
{
closed = 1;
nodes = (
"500 0 LINE",
"500 700 LINE",
"0 700 LINE",
"0 0 LINE"
);
},
{
closed = 1;
nodes = (
"250 305 LINE",
"420 50 LINE",
"80 50 LINE"
);
},
{
closed = 1;
nodes = (
"50 605 LINE",
"220 350 LINE",
"50 95 LINE"
);
},
{
closed = 1;
nodes = (
"280 350 LINE",
"450 605 LINE",
"450 95 LINE"
);
},
{
closed = 1;
nodes = (
"80 650 LINE",
"420 650 LINE",
"250 395 LINE"
);
}
);
width = 501;
}
);
leftKerningGroup = .notdef;
note = .notdef;
rightKerningGroup = .notdef;
},
{
glyphname = cedi;
layers = (
{
layerId = "150D365C-6679-4329-86DF-DF48353E59C3";
paths = (
{
closed = 1;
nodes = (
"592 -12 OFFCURVE",
"693 90 OFFCURVE",
"693 279 CURVE",
"489 279 LINE",
"489 200 OFFCURVE",
"466 153 OFFCURVE",
"379 153 CURVE SMOOTH",
"289 153 OFFCURVE",
"271 218 OFFCURVE",
"271 312 CURVE SMOOTH",
"271 376 LINE SMOOTH",
"271 470 OFFCURVE",
"287 535 OFFCURVE",
"381 535 CURVE SMOOTH",
"460 535 OFFCURVE",
"482 484 OFFCURVE",
"482 405 CURVE",
"693 405 LINE",
"693 597 OFFCURVE",
"582 700 OFFCURVE",
"382 700 CURVE SMOOTH",
"147 700 OFFCURVE",
"45 579 OFFCURVE",
"45 344 CURVE SMOOTH",
"45 109 OFFCURVE",
"147 -12 OFFCURVE",
"382 -12 CURVE SMOOTH"
);
},
{
closed = 1;
nodes = (
"241 -88 LINE",
"562 772 LINE",
"498 772 LINE",
"177 -88 LINE"
);
}
);
width = 738;
}
);
leftKerningGroup = O;
rightKerningGroup = C;
unicode = 20B5;
},
{
glyphname = cent;
layers = (
{
layerId = "150D365C-6679-4329-86DF-DF48353E59C3";
paths = (
{
closed = 1;
nodes = (
"374 -67 LINE",
"374 71 LINE",
"521 84 OFFCURVE",
"624 152 OFFCURVE",
"624 296 CURVE",
"439 296 LINE",
"439 244 OFFCURVE",
"415 217 OFFCURVE",
"373 207 CURVE",
"373 481 LINE",
"410 471 OFFCURVE",
"431 443 OFFCURVE",
"431 396 CURVE",
"624 396 LINE",
"624 539 OFFCURVE",
"521 605 OFFCURVE",
"374 618 CURVE",
"374 756 LINE",
"296 756 LINE",
"296 619 LINE",
"133 604 OFFCURVE",
"36 513 OFFCURVE",
"36 345 CURVE SMOOTH",
"36 176 OFFCURVE",
"133 86 OFFCURVE",
"296 71 CURVE",
"297 -67 LINE"
);
},
{
closed = 1;
nodes = (
"253 223 OFFCURVE",
"235 261 OFFCURVE",
"235 316 CURVE SMOOTH",
"235 373 LINE SMOOTH",
"235 429 OFFCURVE",
"253 468 OFFCURVE",
"297 481 CURVE",
"297 209 LINE"
);
}
);
width = 667;
}
);
leftKerningGroup = o;
note = cent;
rightKerningGroup = c;
unicode = 00A2;
},
{
glyphname = colonsign;
layers = (
{
layerId = "150D365C-6679-4329-86DF-DF48353E59C3";
paths = (
{
closed = 1;
nodes = (
"592 -12 OFFCURVE",
"693 90 OFFCURVE",
"693 279 CURVE",
"489 279 LINE",
"489 200 OFFCURVE",
"466 153 OFFCURVE",
"379 153 CURVE SMOOTH",
"289 153 OFFCURVE",
"271 218 OFFCURVE",
"271 312 CURVE SMOOTH",
"271 376 LINE SMOOTH",
"271 470 OFFCURVE",
"287 535 OFFCURVE",
"381 535 CURVE SMOOTH",
"460 535 OFFCURVE",
"482 484 OFFCURVE",
"482 405 CURVE",
"693 405 LINE",
"693 597 OFFCURVE",
"582 700 OFFCURVE",
"382 700 CURVE SMOOTH",
"147 700 OFFCURVE",
"45 579 OFFCURVE",
"45 344 CURVE SMOOTH",
"45 109 OFFCURVE",
"147 -12 OFFCURVE",
"382 -12 CURVE SMOOTH"
);
},
{
closed = 1;
nodes = (
"191 -88 LINE",
"512 772 LINE",
"448 772 LINE",
"127 -88 LINE"
);
},
{
closed = 1;
nodes = (
"311 -88 LINE",
"632 772 LINE",
"568 772 LINE",
"247 -88 LINE"
);
}
);
width = 738;
}
);
leftKerningGroup = O;
rightKerningGroup = C;
unicode = 20A1;
},
{
glyphname = currency;
layers = (
{
layerId = "150D365C-6679-4329-86DF-DF48353E59C3";
paths = (
{
closed = 1;
nodes = (
"187 137 LINE",
"219 108 OFFCURVE",
"273 91 OFFCURVE",
"329 91 CURVE SMOOTH",
"386 91 OFFCURVE",
"441 109 OFFCURVE",
"471 139 CURVE",
"529 81 LINE",
"589 141 LINE",
"533 197 LINE",
"561 231 OFFCURVE",
"577 285 OFFCURVE",
"577 339 CURVE SMOOTH",
"577 395 OFFCURVE",
"561 451 OFFCURVE",
"535 479 CURVE",
"591 535 LINE",
"523 603 LINE",
"465 545 LINE",
"439 569 OFFCURVE",
"385 587 OFFCURVE",
"329 587 CURVE SMOOTH",
"276 587 OFFCURVE",
"219 569 OFFCURVE",
"189 543 CURVE",
"132 600 LINE",
"69 537 LINE",
"127 479 LINE",
"96 449 OFFCURVE",
"81 393 OFFCURVE",
"81 339 CURVE SMOOTH",
"81 283 OFFCURVE",
"98 232 OFFCURVE",
"127 199 CURVE",
"69 141 LINE",
"130 80 LINE"
);
},
{
closed = 1;
nodes = (
"256 201 OFFCURVE",
"201 262 OFFCURVE",
"201 339 CURVE SMOOTH",
"201 415 OFFCURVE",
"255 477 OFFCURVE",
"329 477 CURVE SMOOTH",
"406 477 OFFCURVE",
"457 413 OFFCURVE",
"457 339 CURVE SMOOTH",
"457 265 OFFCURVE",
"406 201 OFFCURVE",
"329 201 CURVE SMOOTH"
);
}
);
width = 660;
}
);
leftKerningGroup = currency;
note = currency;
rightKerningGroup = currency;
unicode = 00A4;
},
{
glyphname = dollar;
layers = (
{
layerId = "150D365C-6679-4329-86DF-DF48353E59C3";
paths = (
{
closed = 1;
nodes = (
"379 -67 LINE",
"379 70 LINE",
"513 79 OFFCURVE",
"614 127 OFFCURVE",
"614 256 CURVE SMOOTH",
"614 392 OFFCURVE",
"478 410 OFFCURVE",
"378 425 CURVE",
"378 497 LINE",
"397 491 OFFCURVE",
"416 479 OFFCURVE",
"416 455 CURVE SMOOTH",
"416 451 LINE",
"599 451 LINE",
"600 458 OFFCURVE",
"600 464 OFFCURVE",
"599 470 CURVE SMOOTH",
"595 568 OFFCURVE",
"493 611 OFFCURVE",
"379 619 CURVE",
"379 756 LINE",
"301 756 LINE",
"301 618 LINE",
"176 608 OFFCURVE",
"83 562 OFFCURVE",
"83 442 CURVE SMOOTH",
"83 315 OFFCURVE",
"209 293 OFFCURVE",
"308 276 CURVE",
"308 192 LINE",
"282 198 OFFCURVE",
"255 214 OFFCURVE",
"254 249 CURVE",
"254 253 LINE",
"71 253 LINE",
"71 250 OFFCURVE",
"71 246 OFFCURVE",
"71 243 CURVE SMOOTH",
"74 134 OFFCURVE",
"180 83 OFFCURVE",
"301 71 CURVE",
"301 -67 LINE"
);
},
{
closed = 1;
nodes = (
"378 263 LINE",
"406 255 OFFCURVE",
"424 245 OFFCURVE",
"424 227 CURVE SMOOTH",
"424 203 OFFCURVE",
"402 194 OFFCURVE",
"378 190 CURVE"
);
},
{
closed = 1;
nodes = (
"283 442 OFFCURVE",
"270 453 OFFCURVE",
"270 468 CURVE SMOOTH",
"270 487 OFFCURVE",
"286 496 OFFCURVE",
"308 499 CURVE",
"308 438 LINE"
);
}
);
width = 667;
}
);
leftKerningGroup = S;
note = dollar;
rightKerningGroup = S;
unicode = 0024;
},
{
glyphname = dong;
layers = (
{
layerId = "150D365C-6679-4329-86DF-DF48353E59C3";
paths = (
{
closed = 1;
nodes = (
"657 575 LINE",
"657 668 LINE",
"246 668 LINE",
"246 575 LINE"
);
},
{
closed = 1;
nodes = (
"330 38 OFFCURVE",
"389 69 OFFCURVE",
"423 125 CURVE",
"430 125 LINE",
"444 50 LINE",
"596 50 LINE",
"596 725 LINE",
"407 725 LINE",
"407 465 LINE",
"400 465 LINE",
"373 502 OFFCURVE",
"317 526 OFFCURVE",
"259 526 CURVE SMOOTH",
"122 526 OFFCURVE",
"46 439 OFFCURVE",
"46 282 CURVE SMOOTH",
"46 125 OFFCURVE",
"122 38 OFFCURVE",
"259 38 CURVE SMOOTH"
);
},
{
closed = 1;
nodes = (
"266 155 OFFCURVE",
"235 195 OFFCURVE",
"235 267 CURVE SMOOTH",
"235 300 LINE SMOOTH",
"235 370 OFFCURVE",
"266 409 OFFCURVE",
"321 409 CURVE SMOOTH",
"373 409 OFFCURVE",
"409 370 OFFCURVE",
"409 300 CURVE SMOOTH",
"409 267 LINE SMOOTH",
"409 195 OFFCURVE",
"378 155 OFFCURVE",
"321 155 CURVE SMOOTH"
);
},
{
closed = 1;
nodes = (
"596 -93 LINE",
"596 0 LINE",
"46 0 LINE",
"46 -93 LINE"
);
}
);
width = 667;
}
);
leftKerningGroup = o;
rightKerningGroup = d;
unicode = 20AB;
},
{
glyphname = euro;
layers = (
{
layerId = "150D365C-6679-4329-86DF-DF48353E59C3";
paths = (
{
closed = 1;
nodes = (
"532 -12 OFFCURVE",
"586 0 OFFCURVE",
"628 13 CURVE",
"628 154 LINE",
"628 154 OFFCURVE",
"577 127 OFFCURVE",
"505 127 CURVE SMOOTH",
"419 127 OFFCURVE",
"362 165 OFFCURVE",
"332 227 CURVE",
"540 227 LINE",
"540 320 LINE",
"310 320 LINE",
"309 328 OFFCURVE",
"309 337 OFFCURVE",
"309 346 CURVE SMOOTH",
"309 353 OFFCURVE",
"309 361 OFFCURVE",
"309 368 CURVE",
"540 368 LINE",
"540 461 LINE",
"331 461 LINE",
"360 523 OFFCURVE",
"418 561 OFFCURVE",
"505 561 CURVE SMOOTH",
"577 561 OFFCURVE",
"628 536 OFFCURVE",
"628 536 CURVE",
"628 681 LINE",
"593 691 OFFCURVE",
"539 700 OFFCURVE",
"474 700 CURVE SMOOTH",
"339 700 OFFCURVE",
"177 645 OFFCURVE",
"126 461 CURVE",
"23 461 LINE",
"23 368 LINE",
"113 368 LINE",
"113 360 OFFCURVE",
"113 353 OFFCURVE",
"113 345 CURVE SMOOTH",
"113 337 OFFCURVE",
"113 328 OFFCURVE",
"113 320 CURVE",
"23 320 LINE",
"23 227 LINE",
"126 227 LINE",
"177 42 OFFCURVE",
"345 -12 OFFCURVE",
"471 -12 CURVE SMOOTH"
);
}
);
width = 667;
}
);
leftKerningGroup = O;
note = Euro;
rightKerningGroup = C;
unicode = 20AC;
},
{
glyphname = florin;
layers = (
{
layerId = "150D365C-6679-4329-86DF-DF48353E59C3";
paths = (
{
closed = 1;
nodes = (
"254 -210 OFFCURVE",
"342 -167 OFFCURVE",
"373 -23 CURVE SMOOTH",
"453 354 LINE",
"555 354 LINE",
"584 489 LINE",
"482 489 LINE",
"495 549 LINE SMOOTH",
"503 586 OFFCURVE",
"518 602 OFFCURVE",
"562 602 CURVE SMOOTH",
"608 602 LINE",
"633 719 LINE",
"608 729 OFFCURVE",
"558 737 OFFCURVE",
"529 737 CURVE SMOOTH",
"415 737 OFFCURVE",
"327 694 OFFCURVE",
"296 550 CURVE SMOOTH",
"283 489 LINE",
"209 489 LINE",
"180 354 LINE",
"254 354 LINE",
"174 -22 LINE SMOOTH",
"166 -59 OFFCURVE",
"151 -75 OFFCURVE",
"107 -75 CURVE SMOOTH",
"61 -75 LINE",
"36 -192 LINE",
"61 -202 OFFCURVE",
"111 -210 OFFCURVE",
"140 -210 CURVE SMOOTH"
);
}
);
width = 667;
}
);
leftKerningGroup = florin;
note = florin;
rightKerningGroup = florin;
unicode = 0192;
},
{
glyphname = franc;
layers = (
{
layerId = "150D365C-6679-4329-86DF-DF48353E59C3";
paths = (
{
closed = 1;
nodes = (
"295 0 LINE",
"295 247 LINE",
"563 247 LINE",
"563 405 LINE",
"295 405 LINE",
"295 523 LINE",
"610 523 LINE",
"610 688 LINE",
"74 688 LINE",
"74 0 LINE"
);
},
{
closed = 1;
nodes = (
"447 101 LINE",
"446 186 LINE",
"10 186 LINE",
"11 101 LINE"
);
}
);
width = 647;
}
);
leftKerningGroup = Hbar;
note = franc;
rightKerningGroup = F;
unicode = 20A3;
},
{
glyphname = guarani;
layers = (
{
layerId = "150D365C-6679-4329-86DF-DF48353E59C3";
paths = (
{
closed = 1;
nodes = (
"493 -12 OFFCURVE",
"552 15 OFFCURVE",
"614 68 CURVE",
"636 0 LINE",
"750 0 LINE",
"750 384 LINE",
"403 384 LINE",
"403 244 LINE",
"539 244 LINE",
"539 189 OFFCURVE",
"499 153 OFFCURVE",
"429 153 CURVE SMOOTH",
"324 153 OFFCURVE",
"291 212 OFFCURVE",
"291 312 CURVE SMOOTH",
"291 376 LINE SMOOTH",
"291 476 OFFCURVE",
"324 535 OFFCURVE",
"429 535 CURVE SMOOTH",
"499 535 OFFCURVE",
"539 498 OFFCURVE",
"539 439 CURVE",
"750 439 LINE",
"750 612 OFFCURVE",
"613 700 OFFCURVE",
"420 700 CURVE SMOOTH",
"182 700 OFFCURVE",
"65 579 OFFCURVE",
"65 344 CURVE SMOOTH",
"65 109 OFFCURVE",
"159 -12 OFFCURVE",
"388 -12 CURVE SMOOTH"
);
},
{
closed = 1;
nodes = (
"460 -79 LINE",
"460 753 LINE",
"379 753 LINE",
"379 -79 LINE"
);
}
);
width = 833;
}
);
leftKerningGroup = O;
note = uni20B2;
rightKerningGroup = C;
unicode = 20B2;
},
{
glyphname = kip;
layers = (
{
layerId = "150D365C-6679-4329-86DF-DF48353E59C3";
paths = (
{
closed = 1;
nodes = (
"794 0 LINE",
"429 424 LINE",
"325 295 LINE",
"520 0 LINE"
);
},
{
closed = 1;
nodes = (
"295 0 LINE",
"295 688 LINE",
"74 688 LINE",
"74 0 LINE"
);
},
{
closed = 1;
nodes = (
"774 287 LINE",
"774 399 LINE",
"16 399 LINE",
"16 287 LINE"
);
},
{
closed = 1;
nodes = (
"794 688 LINE",
"520 688 LINE",
"327 396 LINE",
"441 277 LINE"
);
}
);
width = 813;
}
);
leftKerningGroup = Hbar;
rightKerningGroup = K;
unicode = 20AD;
},
{
glyphname = lira;
layers = (
{
layerId = "150D365C-6679-4329-86DF-DF48353E59C3";
paths = (
{
closed = 1;
nodes = (
"584 0 LINE",
"584 147 LINE",
"295 147 LINE",
"304 215 LINE",
"439 215 LINE",
"439 298 LINE",
"316 298 LINE",
"322 341 LINE",
"439 341 LINE",
"439 425 LINE",
"322 425 LINE",
"322 494 LINE SMOOTH",
"322 526 OFFCURVE",
"349 552 OFFCURVE",
"381 552 CURVE SMOOTH",
"413 552 OFFCURVE",
"439 526 OFFCURVE",
"439 494 CURVE SMOOTH",
"439 470 LINE",
"638 470 LINE",
"638 494 LINE SMOOTH",
"638 608 OFFCURVE",
"550 700 OFFCURVE",
"381 700 CURVE SMOOTH",
"203 700 OFFCURVE",
"125 608 OFFCURVE",
"125 493 CURVE SMOOTH",
"125 425 LINE",
"31 425 LINE",
"31 342 LINE",
"125 342 LINE",
"125 298 LINE",
"31 298 LINE",
"31 215 LINE",
"125 215 LINE",
"125 147 LINE",
"61 147 LINE",
"61 0 LINE"
);
}
);
width = 667;
}
);
leftKerningGroup = sterling;
note = lira;
rightKerningGroup = sterling;
unicode = 20A4;
},
{
glyphname = liraTurkish;
layers = (
{
layerId = "150D365C-6679-4329-86DF-DF48353E59C3";
paths = (
{
closed = 1;
nodes = (
"360 0 LINE SMOOTH",
"540 2 OFFCURVE",
"648 91 OFFCURVE",
"648 272 CURVE SMOOTH",
"648 311 LINE",
"441 311 LINE",
"441 273 LINE SMOOTH",
"441 202 OFFCURVE",
"414 176 OFFCURVE",
"360 176 CURVE SMOOTH",
"295 176 LINE",
"295 688 LINE",
"74 688 LINE",
"74 0 LINE"
);
},
{
closed = 1;
nodes = (
"440 369 LINE",
"440 454 LINE",
"10 254 LINE",
"10 169 LINE"
);
},
{
closed = 1;
nodes = (
"440 504 LINE",
"440 589 LINE",
"10 389 LINE",
"10 304 LINE"
);
}
);
width = 667;
}
);
leftKerningGroup = Hbar;
rightKerningGroup = L;
unicode = 20BA;
},
{
glyphname = manat;
layers = (
{
layerId = "150D365C-6679-4329-86DF-DF48353E59C3";
paths = (
{
closed = 1;
nodes = (
"283 0 LINE",
"283 376 LINE SMOOTH",
"283 470 OFFCURVE",
"311 535 OFFCURVE",
"407 535 CURVE SMOOTH",
"504 535 OFFCURVE",
"534 470 OFFCURVE",
"534 376 CURVE SMOOTH",
"534 0 LINE",
"760 0 LINE",
"760 386 LINE SMOOTH",
"760 579 OFFCURVE",
"638 700 OFFCURVE",
"407 700 CURVE SMOOTH",
"177 700 OFFCURVE",
"57 579 OFFCURVE",
"57 386 CURVE SMOOTH",
"57 0 LINE"
);
},
{
closed = 1;
nodes = (
"447 121 LINE",
"447 773 LINE",
"366 773 LINE",
"366 121 LINE"
);
}
);
width = 814;
}
);
leftKerningGroup = U;
rightKerningGroup = U;
unicode = 20BC;
},
{
glyphname = naira;
layers = (
{
layerId = "150D365C-6679-4329-86DF-DF48353E59C3";
paths = (
{
closed = 1;
nodes = (
"287 0 LINE",
"287 272 LINE SMOOTH",
"287 290 OFFCURVE",
"284 332 OFFCURVE",
"284 332 CURVE",
"289 335 LINE",
"289 335 OFFCURVE",
"318 302 OFFCURVE",
"339 275 CURVE SMOOTH",
"560 0 LINE",
"749 0 LINE",
"749 688 LINE",
"546 688 LINE",
"546 410 LINE SMOOTH",
"546 399 OFFCURVE",
"549 352 OFFCURVE",
"549 352 CURVE",
"544 349 LINE",
"544 349 OFFCURVE",
"482 424 OFFCURVE",
"468 441 CURVE SMOOTH",
"274 688 LINE",
"84 688 LINE",
"74 0 LINE"
);
},
{
closed = 1;
nodes = (
"160 215 LINE",
"160 287 LINE",
"16 287 LINE",
"16 215 LINE"
);
},
{
closed = 1;
nodes = (
"160 395 LINE",
"160 467 LINE",
"16 467 LINE",
"16 395 LINE"
);
},
{
closed = 1;
nodes = (
"817 215 LINE",
"817 287 LINE",
"648 287 LINE",
"648 215 LINE"
);
},
{
closed = 1;
nodes = (
"817 395 LINE",
"817 467 LINE",
"648 467 LINE",
"648 395 LINE"
);
}
);
width = 833;
}
);
leftKerningGroup = Hbar;
rightKerningGroup = Hbar;
unicode = 20A6;
},
{
glyphname = peseta;
layers = (
{
layerId = "150D365C-6679-4329-86DF-DF48353E59C3";
paths = (
{
closed = 1;
nodes = (
"295 0 LINE",
"295 222 LINE",
"440 222 LINE SMOOTH",
"568 222 OFFCURVE",
"660 314 OFFCURVE",
"660 456 CURVE SMOOTH",
"660 594 OFFCURVE",
"570 688 OFFCURVE",
"440 688 CURVE SMOOTH",
"74 688 LINE",
"74 0 LINE"
);
},
{
closed = 1;
nodes = (
"726 422 LINE",
"726 487 LINE",
"10 487 LINE",
"10 422 LINE"
);
},
{
closed = 1;
nodes = (
"295 525 LINE",
"366 525 LINE SMOOTH",
"413 525 OFFCURVE",
"436 501 OFFCURVE",
"436 454 CURVE SMOOTH",
"436 407 OFFCURVE",
"412 383 OFFCURVE",
"366 383 CURVE SMOOTH",
"295 383 LINE"
);
}
);
width = 731;
}
);
leftKerningGroup = P;
note = peseta;
rightKerningGroup = s;
unicode = 20A7;
},
{
glyphname = peso;
layers = (
{
background = {
paths = (
{
closed = 1;
nodes = (
"74 688 LINE",
"74 0 LINE",
"295 0 LINE",
"295 222 LINE",
"440 222 LINE SMOOTH",
"568 222 OFFCURVE",
"660 314 OFFCURVE",
"660 456 CURVE SMOOTH",
"660 594 OFFCURVE",
"570 688 OFFCURVE",
"440 688 CURVE SMOOTH"
);
},
{
closed = 1;
nodes = (
"295 412 LINE",
"295 484 LINE",
"392 484 LINE SMOOTH",
"419 484 OFFCURVE",
"436 475 OFFCURVE",
"436 448 CURVE SMOOTH",
"436 421 OFFCURVE",
"418 412 OFFCURVE",
"392 412 CURVE SMOOTH"
);
},
{
closed = 1;
nodes = (
"10 484 LINE",
"726 484 LINE",
"726 549 LINE",
"10 549 LINE"
);
},
{
closed = 1;
nodes = (
"10 347 LINE",
"726 347 LINE",
"726 412 LINE",
"10 412 LINE"
);
}
);
};
layerId = "150D365C-6679-4329-86DF-DF48353E59C3";
paths = (
{
closed = 1;
nodes = (
"295 0 LINE",
"295 222 LINE",
"440 222 LINE SMOOTH",
"568 222 OFFCURVE",
"660 314 OFFCURVE",
"660 456 CURVE SMOOTH",
"660 594 OFFCURVE",
"570 688 OFFCURVE",
"440 688 CURVE SMOOTH",
"74 688 LINE",
"74 0 LINE"
);
},
{
closed = 1;
nodes = (
"193 347 LINE",
"193 412 LINE",
"10 412 LINE",
"10 347 LINE"
);
},
{
closed = 1;
nodes = (
"193 484 LINE",
"193 549 LINE",
"10 549 LINE",
"10 484 LINE"
);
},
{
closed = 1;
nodes = (
"295 525 LINE",
"366 525 LINE SMOOTH",
"413 525 OFFCURVE",
"436 501 OFFCURVE",
"436 454 CURVE SMOOTH",
"436 407 OFFCURVE",
"412 383 OFFCURVE",
"366 383 CURVE SMOOTH",
"295 383 LINE"
);
},
{
closed = 1;
nodes = (
"726 347 LINE",
"726 412 LINE",
"517 412 LINE",
"517 347 LINE"
);
},
{
closed = 1;
nodes = (
"726 484 LINE",
"726 549 LINE",
"517 549 LINE",
"517 484 LINE"
);
}
);
width = 731;
},
{
associatedMasterId = "150D365C-6679-4329-86DF-DF48353E59C3";
layerId = "E6297808-EC9B-496B-94FB-5A668E212178";
name = "May 11 18, 17:25";
paths = (
{
closed = 1;
nodes = (
"74 688 LINE",
"74 0 LINE",
"295 0 LINE",
"295 222 LINE",
"440 222 LINE SMOOTH",
"568 222 OFFCURVE",
"660 314 OFFCURVE",
"660 456 CURVE SMOOTH",
"660 594 OFFCURVE",
"570 688 OFFCURVE",
"440 688 CURVE SMOOTH"
);
},
{
closed = 1;
nodes = (
"295 383 LINE",
"295 525 LINE",
"366 525 LINE SMOOTH",
"413 525 OFFCURVE",
"436 501 OFFCURVE",
"436 454 CURVE SMOOTH",
"436 407 OFFCURVE",
"412 383 OFFCURVE",
"366 383 CURVE SMOOTH"
);
},
{
closed = 1;
nodes = (
"10 479 LINE",
"726 479 LINE",
"726 544 LINE",
"10 544 LINE"
);
},
{
closed = 1;
nodes = (
"10 352 LINE",
"726 352 LINE",
"726 417 LINE",
"10 417 LINE"
);
}
);
width = 731;
}
);
leftKerningGroup = Hbar;
rightKerningGroup = P;
unicode = 20B1;
},
{
glyphname = ruble;
layers = (
{
layerId = "150D365C-6679-4329-86DF-DF48353E59C3";
paths = (
{
closed = 1;
nodes = (
"295 0 LINE",
"295 222 LINE",
"440 222 LINE SMOOTH",
"568 222 OFFCURVE",
"660 314 OFFCURVE",
"660 456 CURVE SMOOTH",
"660 594 OFFCURVE",
"570 688 OFFCURVE",
"440 688 CURVE SMOOTH",
"74 688 LINE",
"74 0 LINE"
);
},
{
closed = 1;
nodes = (
"447 88 LINE",
"446 173 LINE",
"10 173 LINE",
"11 88 LINE"
);
},
{
closed = 1;
nodes = (
"247 222 LINE",
"246 383 LINE",
"10 383 LINE",
"11 222 LINE"
);
},
{
closed = 1;
nodes = (
"295 525 LINE",
"366 525 LINE SMOOTH",
"413 525 OFFCURVE",
"436 501 OFFCURVE",
"436 454 CURVE SMOOTH",
"436 407 OFFCURVE",
"412 383 OFFCURVE",
"366 383 CURVE SMOOTH",
"295 383 LINE"
);
}
);
width = 731;
}
);
leftKerningGroup = Hbar;
rightKerningGroup = P;
unicode = 20BD;
},
{
glyphname = rupeeIndian;
layers = (
{
layerId = "150D365C-6679-4329-86DF-DF48353E59C3";
paths = (
{
closed = 1;
nodes = (
"251 222 LINE SMOOTH",
"379 222 OFFCURVE",
"471 314 OFFCURVE",
"471 456 CURVE SMOOTH",
"471 594 OFFCURVE",
"381 688 OFFCURVE",
"251 688 CURVE SMOOTH",
"54 688 LINE",
"54 525 LINE",
"177 525 LINE SMOOTH",
"224 525 OFFCURVE",
"247 501 OFFCURVE",
"247 454 CURVE SMOOTH",
"247 407 OFFCURVE",
"223 383 OFFCURVE",
"177 383 CURVE SMOOTH",
"54 383 LINE",
"54 222 LINE"
);
},
{
closed = 1;
nodes = (
"530 0 LINE",
"297 255 LINE",
"54 222 LINE",
"259 0 LINE"
);
},
{
closed = 1;
nodes = (
"594 409 LINE",
"594 495 LINE",
"54 495 LINE",
"54 409 LINE"
);
},
{
closed = 1;
nodes = (
"594 601 LINE",
"594 688 LINE",
"54 688 LINE",
"54 601 LINE"
);
}
);
width = 606;
}
);
leftKerningGroup = I;
rightKerningGroup = rupeeIndian;
unicode = 20B9;
},
{
glyphname = sterling;
layers = (
{
layerId = "150D365C-6679-4329-86DF-DF48353E59C3";
paths = (
{
closed = 1;
nodes = (
"604 0 LINE",
"604 147 LINE",
"302 147 LINE",
"322 276 LINE",
"439 276 LINE",
"439 403 LINE",
"323 403 LINE",
"323 494 LINE SMOOTH",
"323 526 OFFCURVE",
"349 552 OFFCURVE",
"381 552 CURVE SMOOTH",
"413 552 OFFCURVE",
"439 526 OFFCURVE",
"439 494 CURVE SMOOTH",
"439 466 LINE",
"638 466 LINE",
"638 494 LINE SMOOTH",
"638 608 OFFCURVE",
"550 700 OFFCURVE",
"381 700 CURVE SMOOTH",
"203 700 OFFCURVE",
"125 608 OFFCURVE",
"125 493 CURVE SMOOTH",
"125 403 LINE",
"31 403 LINE",
"31 276 LINE",
"125 276 LINE",
"125 147 LINE",
"61 147 LINE",
"61 0 LINE"
);
}
);
width = 667;
}
);
leftKerningGroup = sterling;
note = sterling;
rightKerningGroup = sterling;
unicode = 00A3;
},
{
glyphname = won;
layers = (
{
layerId = "150D365C-6679-4329-86DF-DF48353E59C3";
paths = (
{
closed = 1;
nodes = (
"419 0 LINE",
"477 322 LINE SMOOTH",
"482 351 OFFCURVE",
"498 419 OFFCURVE",
"498 419 CURVE",
"502 419 LINE",
"502 419 OFFCURVE",
"517 357 OFFCURVE",
"523 322 CURVE SMOOTH",
"581 0 LINE",
"824 0 LINE",
"975 688 LINE",
"755 688 LINE",
"709 394 LINE SMOOTH",
"703 359 OFFCURVE",
"691 298 OFFCURVE",
"691 298 CURVE SMOOTH",
"687 298 LINE SMOOTH",
"687 298 OFFCURVE",
"672 367 OFFCURVE",
"667 394 CURVE SMOOTH",
"614 688 LINE",
"396 688 LINE",
"347 394 LINE SMOOTH",
"342 365 OFFCURVE",
"328 298 OFFCURVE",
"328 298 CURVE SMOOTH",
"324 298 LINE SMOOTH",
"324 298 OFFCURVE",
"310 364 OFFCURVE",
"305 394 CURVE SMOOTH",
"255 688 LINE",
"25 688 LINE",
"176 0 LINE"
);
},
{
closed = 1;
nodes = (
"984 320 LINE",
"984 402 LINE",
"16 402 LINE",
"16 320 LINE"
);
}
);
width = 1000;
}
);
leftKerningGroup = V;
rightKerningGroup = V;
unicode = 20A9;
},
{
glyphname = yen;
layers = (
{
background = {
paths = (
{
closed = 1;
nodes = (
"235 225 LINE",
"235 0 LINE",
"436 0 LINE",
"436 225 LINE",
"638 225 LINE",
"638 318 LINE",
"463 318 LINE",
"489 366 LINE",
"638 366 LINE",
"638 459 LINE",
"540 459 LINE",
"577 528 LINE",
"665 688 LINE",
"448 688 LINE",
"374 529 LINE SMOOTH",
"364 507 OFFCURVE",
"353 482 OFFCURVE",
"342 459 CURVE",
"338 459 LINE",
"306 528 LINE",
"232 688 LINE",
"2 688 LINE",
"98 516 LINE",
"129 459 LINE",
"32 459 LINE",
"32 366 LINE",
"180 366 LINE",
"207 318 LINE",
"32 318 LINE",
"32 225 LINE"
);
}
);
};
layerId = "150D365C-6679-4329-86DF-DF48353E59C3";
paths = (
{
closed = 1;
nodes = (
"436 0 LINE",
"436 143 LINE",
"638 143 LINE",
"638 239 LINE",
"436 239 LINE",
"436 281 LINE",
"638 281 LINE",
"638 377 LINE",
"496 377 LINE",
"549 476 LINE",
"665 688 LINE",
"448 688 LINE",
"374 529 LINE SMOOTH",
"364 507 OFFCURVE",
"353 482 OFFCURVE",
"342 459 CURVE",
"338 459 LINE",
"306 528 LINE",
"232 688 LINE",
"2 688 LINE",
"120 476 LINE",
"175 377 LINE",
"32 377 LINE",
"32 281 LINE",
"235 281 LINE",
"235 239 LINE",
"32 239 LINE",
"32 143 LINE",
"235 143 LINE",
"235 0 LINE"
);
}
);
width = 667;
}
);
leftKerningGroup = Y;
note = yen;
rightKerningGroup = Y;
unicode = 00A5;
},
{
glyphname = bulletoperator;
layers = (
{
layerId = "150D365C-6679-4329-86DF-DF48353E59C3";
paths = (
{
closed = 1;
nodes = (
"210 177 OFFCURVE",
"246 212 OFFCURVE",
"246 255 CURVE SMOOTH",
"246 297 OFFCURVE",
"210 333 OFFCURVE",
"168 333 CURVE SMOOTH",
"125 333 OFFCURVE",
"90 297 OFFCURVE",
"90 255 CURVE SMOOTH",
"90 212 OFFCURVE",
"125 177 OFFCURVE",
"168 177 CURVE SMOOTH"
);
}
);
width = 333;
}
);
leftKerningGroup = hyphen;
note = uni2219;
rightKerningGroup = hyphen;
unicode = 2219;
},
{
glyphname = divisionslash;
layers = (
{
layerId = "150D365C-6679-4329-86DF-DF48353E59C3";
paths = (
{
closed = 1;
nodes = (
"-103 -12 LINE",
"308 700 LINE",
"212 700 LINE",
"-198 -12 LINE"
);
}
);
width = 110;
}
);
leftKerningGroup = slash;
note = uni2215;
rightKerningGroup = slash;
unicode = 2215;
},
{
glyphname = equivalence;
layers = (
{
layerId = "150D365C-6679-4329-86DF-DF48353E59C3";
paths = (
{
closed = 1;
nodes = (
"537 394 LINE",
"537 506 LINE",
"62 506 LINE",
"62 394 LINE"
);
},
{
closed = 1;
nodes = (
"537 22 LINE",
"537 134 LINE",
"62 134 LINE",
"62 22 LINE"
);
},
{
closed = 1;
nodes = (
"537 208 LINE",
"537 320 LINE",
"62 320 LINE",
"62 208 LINE"
);
}
);
width = 600;
}
);
leftKerningGroup = equivalence;
note = equivalence;
rightKerningGroup = equivalence;
unicode = 2261;
},
{
glyphname = integralbt;
layers = (
{
layerId = "150D365C-6679-4329-86DF-DF48353E59C3";
paths = (
{
closed = 1;
nodes = (
"320 -256 OFFCURVE",
"383 -222 OFFCURVE",
"383 -132 CURVE SMOOTH",
"383 -57 OFFCURVE",
"377 396 OFFCURVE",
"371 848 CURVE",
"232 848 LINE",
"246 -135 LINE SMOOTH",
"247 -175 OFFCURVE",
"192 -176 OFFCURVE",
"165 -176 CURVE",
"165 -244 LINE"
);
}
);
width = 600;
}
);
leftKerningGroup = integralbt;
note = integralbt;
rightKerningGroup = integralbt;
unicode = 2321;
},
{
glyphname = integraltp;
layers = (
{
layerId = "150D365C-6679-4329-86DF-DF48353E59C3";
paths = (
{
closed = 1;
nodes = (
"367 -250 LINE",
"353 733 LINE SMOOTH",
"352 773 OFFCURVE",
"407 774 OFFCURVE",
"434 774 CURVE",
"434 842 LINE",
"279 854 OFFCURVE",
"216 820 OFFCURVE",
"216 730 CURVE SMOOTH",
"216 655 OFFCURVE",
"222 202 OFFCURVE",
"228 -250 CURVE"
);
}
);
width = 600;
}
);
leftKerningGroup = integraltp;
note = integraltp;
rightKerningGroup = integraltp;
unicode = 2320;
},
{
glyphname = plus;
layers = (
{
layerId = "150D365C-6679-4329-86DF-DF48353E59C3";
paths = (
{
closed = 1;
nodes = (
"396 0 LINE",
"396 198 LINE",
"594 198 LINE",
"594 330 LINE",
"396 330 LINE",
"396 528 LINE",
"264 528 LINE",
"264 330 LINE",
"66 330 LINE",
"66 198 LINE",
"264 198 LINE",
"264 0 LINE"
);
}
);
width = 660;
}
);
leftKerningGroup = plus;
note = plus;
rightKerningGroup = plus;
unicode = 002B;
},
{
glyphname = minus;
layers = (
{
layerId = "150D365C-6679-4329-86DF-DF48353E59C3";
paths = (
{
closed = 1;
nodes = (
"594 198 LINE",
"594 330 LINE",
"66 330 LINE",
"66 198 LINE"
);
}
);
width = 660;
}
);
leftKerningGroup = plus;
note = minus;
rightKerningGroup = plus;
unicode = 2212;
},
{
glyphname = multiply;
layers = (
{
layerId = "150D365C-6679-4329-86DF-DF48353E59C3";
paths = (
{
closed = 1;
nodes = (
"330 171 LINE",
"498 2 LINE",
"592 96 LINE",
"423 264 LINE",
"592 432 LINE",
"498 526 LINE",
"330 357 LINE",
"162 526 LINE",
"68 432 LINE",
"237 264 LINE",
"68 96 LINE",
"162 2 LINE"
);
}
);
width = 660;
}
);
leftKerningGroup = plus;
note = multiply;
rightKerningGroup = plus;
unicode = 00D7;
},
{
glyphname = divide;
layers = (
{
layerId = "150D365C-6679-4329-86DF-DF48353E59C3";
paths = (
{
closed = 1;
nodes = (
"594 196 LINE",
"594 328 LINE",
"66 328 LINE",
"66 196 LINE"
);
},
{
closed = 1;
nodes = (
"397 15 LINE",
"397 146 LINE",
"266 146 LINE",
"266 15 LINE"
);
},
{
closed = 1;
nodes = (
"397 377 LINE",
"397 508 LINE",
"266 508 LINE",
"266 377 LINE"
);
}
);
width = 660;
}
);
leftKerningGroup = plus;
note = divide;
rightKerningGroup = plus;
unicode = 00F7;
},
{
glyphname = equal;
layers = (
{
layerId = "150D365C-6679-4329-86DF-DF48353E59C3";
paths = (
{
closed = 1;
nodes = (
"594 311 LINE",
"594 443 LINE",
"66 443 LINE",
"66 311 LINE"
);
},
{
closed = 1;
nodes = (
"594 85 LINE",
"594 217 LINE",
"66 217 LINE",
"66 85 LINE"
);
}
);
width = 660;
}
);
leftKerningGroup = plus;
note = equal;
rightKerningGroup = plus;
unicode = 003D;
},
{
glyphname = notequal;
layers = (
{
layerId = "150D365C-6679-4329-86DF-DF48353E59C3";
paths = (
{
closed = 1;
nodes = (
"216 0 LINE",
"271 85 LINE",
"594 85 LINE",
"594 217 LINE",
"356 217 LINE",
"417 311 LINE",
"594 311 LINE",
"594 443 LINE",
"502 443 LINE",
"557 528 LINE",
"444 528 LINE",
"389 443 LINE",
"66 443 LINE",
"66 311 LINE",
"304 311 LINE",
"243 217 LINE",
"66 217 LINE",
"66 85 LINE",
"158 85 LINE",
"103 0 LINE"
);
}
);
width = 660;
}
);
leftKerningGroup = plus;
note = notequal;
rightKerningGroup = plus;
unicode = 2260;
},
{
glyphname = greater;
layers = (
{
layerId = "150D365C-6679-4329-86DF-DF48353E59C3";
paths = (
{
closed = 1;
nodes = (
"593 189 LINE",
"593 332 LINE",
"68 535 LINE",
"68 392 LINE",
"427 260 LINE",
"68 129 LINE",
"68 -13 LINE"
);
}
);
width = 660;
}
);
leftKerningGroup = plus;
note = greater;
rightKerningGroup = plus;
unicode = 003E;
},
{
glyphname = less;
layers = (
{
layerId = "150D365C-6679-4329-86DF-DF48353E59C3";
paths = (
{
closed = 1;
nodes = (
"592 129 LINE",
"233 260 LINE",
"592 392 LINE",
"592 535 LINE",
"67 332 LINE",
"67 189 LINE",
"592 -13 LINE"
);
}
);
width = 660;
}
);
leftKerningGroup = plus;
note = less;
rightKerningGroup = plus;
unicode = 003C;
},
{
glyphname = greaterequal;
layers = (
{
layerId = "150D365C-6679-4329-86DF-DF48353E59C3";
paths = (
{
closed = 1;
nodes = (
"594 347 LINE",
"594 490 LINE",
"66 675 LINE",
"66 532 LINE",
"438 418 LINE",
"66 305 LINE",
"66 163 LINE"
);
},
{
closed = 1;
nodes = (
"594 0 LINE",
"594 132 LINE",
"66 132 LINE",
"66 0 LINE"
);
}
);
width = 660;
}
);
leftKerningGroup = plus;
note = greaterequal;
rightKerningGroup = plus;
unicode = 2265;
},
{
glyphname = lessequal;
layers = (
{
layerId = "150D365C-6679-4329-86DF-DF48353E59C3";
paths = (
{
closed = 1;
nodes = (
"594 305 LINE",
"222 418 LINE",
"594 532 LINE",
"594 675 LINE",
"66 490 LINE",
"66 347 LINE",
"594 163 LINE"
);
},
{
closed = 1;
nodes = (
"594 0 LINE",
"594 132 LINE",
"66 132 LINE",
"66 0 LINE"
);
}
);
width = 660;
}
);
leftKerningGroup = plus;
note = lessequal;
rightKerningGroup = plus;
unicode = 2264;
},
{
glyphname = plusminus;
layers = (
{
layerId = "150D365C-6679-4329-86DF-DF48353E59C3";
paths = (
{
closed = 1;
nodes = (
"396 176 LINE",
"396 358 LINE",
"594 358 LINE",
"594 490 LINE",
"396 490 LINE",
"396 672 LINE",
"264 672 LINE",
"264 490 LINE",
"66 490 LINE",
"66 358 LINE",
"264 358 LINE",
"264 176 LINE"
);
},
{
closed = 1;
nodes = (
"594 0 LINE",
"594 132 LINE",
"66 132 LINE",
"66 0 LINE"
);
}
);
width = 660;
}
);
leftKerningGroup = plus;
note = plusminus;
rightKerningGroup = plus;
unicode = 00B1;
},
{
glyphname = approxequal;
layers = (
{
layerId = "150D365C-6679-4329-86DF-DF48353E59C3";
paths = (
{
closed = 1;
nodes = (
"39 275 OFFCURVE",
"107 355 OFFCURVE",
"207 355 CURVE SMOOTH",
"297 355 OFFCURVE",
"365 287 OFFCURVE",
"453 287 CURVE SMOOTH",
"549 287 OFFCURVE",
"621 367 OFFCURVE",
"621 367 CURVE",
"621 497 LINE",
"621 497 OFFCURVE",
"552 417 OFFCURVE",
"453 417 CURVE SMOOTH",
"363 417 OFFCURVE",
"294 485 OFFCURVE",
"207 485 CURVE SMOOTH",
"109 485 OFFCURVE",
"39 405 OFFCURVE",
"39 405 CURVE",
"39 275 LINE"
);
},
{
closed = 1;
nodes = (
"39 41 OFFCURVE",
"107 121 OFFCURVE",
"207 121 CURVE SMOOTH",
"297 121 OFFCURVE",
"365 53 OFFCURVE",
"453 53 CURVE SMOOTH",
"549 53 OFFCURVE",
"621 133 OFFCURVE",
"621 133 CURVE",
"621 263 LINE",
"621 263 OFFCURVE",
"552 183 OFFCURVE",
"453 183 CURVE SMOOTH",
"363 183 OFFCURVE",
"294 251 OFFCURVE",
"207 251 CURVE SMOOTH",
"109 251 OFFCURVE",
"39 171 OFFCURVE",
"39 171 CURVE",
"39 41 LINE"
);
}
);
width = 660;
}
);
leftKerningGroup = plus;
note = approxequal;
rightKerningGroup = plus;
unicode = 2248;
},
{
glyphname = asciitilde;
layers = (
{
layerId = "150D365C-6679-4329-86DF-DF48353E59C3";
paths = (
{
closed = 1;
nodes = (
"39 187 OFFCURVE",
"107 267 OFFCURVE",
"207 267 CURVE SMOOTH",
"297 267 OFFCURVE",
"365 199 OFFCURVE",
"453 199 CURVE SMOOTH",
"549 199 OFFCURVE",
"621 279 OFFCURVE",
"621 279 CURVE",
"621 409 LINE",
"621 409 OFFCURVE",
"552 329 OFFCURVE",
"453 329 CURVE SMOOTH",
"363 329 OFFCURVE",
"294 397 OFFCURVE",
"207 397 CURVE SMOOTH",
"109 397 OFFCURVE",
"39 317 OFFCURVE",
"39 317 CURVE",
"39 187 LINE"
);
}
);
width = 660;
}
);
leftKerningGroup = plus;
note = asciitilde;
rightKerningGroup = plus;
unicode = 007E;
},
{
glyphname = logicalnot;
layers = (
{
layerId = "150D365C-6679-4329-86DF-DF48353E59C3";
paths = (
{
closed = 1;
nodes = (
"604 154 LINE",
"604 490 LINE",
"50 490 LINE",
"50 335 LINE",
"450 335 LINE",
"450 154 LINE"
);
}
);
width = 660;
}
);
leftKerningGroup = plus;
note = logicalnot;
rightKerningGroup = plus;
unicode = 00AC;
},
{
glyphname = asciicircum;
layers = (
{
layerId = "150D365C-6679-4329-86DF-DF48353E59C3";
paths = (
{
closed = 1;
nodes = (
"199 337 LINE",
"301 549 LINE",
"402 337 LINE",
"544 337 LINE",
"371 688 LINE",
"228 688 LINE",
"55 337 LINE"
);
}
);
width = 600;
}
);
leftKerningGroup = asterisk;
note = asciicircum;
rightKerningGroup = asterisk;
unicode = 005E;
},
{
glyphname = infinity;
layers = (
{
layerId = "150D365C-6679-4329-86DF-DF48353E59C3";
paths = (
{
closed = 1;
nodes = (
"264 138 OFFCURVE",
"309 171 OFFCURVE",
"354 227 CURVE",
"412 149 OFFCURVE",
"471 138 OFFCURVE",
"512 138 CURVE SMOOTH",
"590 138 OFFCURVE",
"664 198 OFFCURVE",
"664 302 CURVE SMOOTH",
"664 399 OFFCURVE",
"594 457 OFFCURVE",
"512 457 CURVE SMOOTH",
"434 457 OFFCURVE",
"392 404 OFFCURVE",
"362 372 CURVE",
"319 427 OFFCURVE",
"271 457 OFFCURVE",
"204 457 CURVE SMOOTH",
"115 457 OFFCURVE",
"47 392 OFFCURVE",
"47 296 CURVE SMOOTH",
"47 199 OFFCURVE",
"118 138 OFFCURVE",
"196 138 CURVE SMOOTH"
);
},
{
closed = 1;
nodes = (
"175 231 OFFCURVE",
"153 266 OFFCURVE",
"153 300 CURVE SMOOTH",
"153 333 OFFCURVE",
"175 365 OFFCURVE",
"217 365 CURVE SMOOTH",
"249 365 OFFCURVE",
"280 342 OFFCURVE",
"304 293 CURVE",
"285 258 OFFCURVE",
"250 231 OFFCURVE",
"218 231 CURVE SMOOTH"
);
},
{
closed = 1;
nodes = (
"474 231 OFFCURVE",
"439 247 OFFCURVE",
"408 298 CURVE",
"446 351 OFFCURVE",
"470 365 OFFCURVE",
"494 365 CURVE SMOOTH",
"537 365 OFFCURVE",
"558 330 OFFCURVE",
"558 296 CURVE SMOOTH",
"558 263 OFFCURVE",
"536 231 OFFCURVE",
"497 231 CURVE SMOOTH"
);
}
);
width = 713;
}
);
leftKerningGroup = infinity;
note = infinity;
rightKerningGroup = infinity;
unicode = 221E;
},
{
glyphname = emptyset;
layers = (
{
layerId = "150D365C-6679-4329-86DF-DF48353E59C3";
paths = (
{
closed = 1;
nodes = (
"187 137 LINE",
"219 108 OFFCURVE",
"273 91 OFFCURVE",
"329 91 CURVE SMOOTH",
"462 91 OFFCURVE",
"577 198 OFFCURVE",
"577 339 CURVE SMOOTH",
"577 395 OFFCURVE",
"561 451 OFFCURVE",
"535 479 CURVE",
"591 535 LINE",
"523 603 LINE",
"465 545 LINE",
"439 569 OFFCURVE",
"385 587 OFFCURVE",
"329 587 CURVE SMOOTH",
"191 587 OFFCURVE",
"81 473 OFFCURVE",
"81 339 CURVE SMOOTH",
"81 283 OFFCURVE",
"98 232 OFFCURVE",
"127 199 CURVE",
"69 141 LINE",
"130 80 LINE"
);
},
{
closed = 1;
nodes = (
"306 201 OFFCURVE",
"285 207 OFFCURVE",
"266 218 CURVE",
"446 396 LINE",
"453 378 OFFCURVE",
"457 359 OFFCURVE",
"457 339 CURVE SMOOTH",
"457 265 OFFCURVE",
"406 201 OFFCURVE",
"329 201 CURVE SMOOTH"
);
},
{
closed = 1;
nodes = (
"204 304 OFFCURVE",
"201 321 OFFCURVE",
"201 339 CURVE SMOOTH",
"201 415 OFFCURVE",
"255 477 OFFCURVE",
"329 477 CURVE SMOOTH",
"349 477 OFFCURVE",
"368 473 OFFCURVE",
"384 465 CURVE",
"210 288 LINE"
);
}
);
width = 660;
}
);
leftKerningGroup = emptyset;
rightKerningGroup = emptyset;
unicode = 2205;
},
{
glyphname = intersection;
layers = (
{
layerId = "150D365C-6679-4329-86DF-DF48353E59C3";
paths = (
{
closed = 1;
nodes = (
"648 0 LINE",
"648 444 LINE SMOOTH",
"648 583 OFFCURVE",
"579 688 OFFCURVE",
"358 688 CURVE SMOOTH",
"138 688 OFFCURVE",
"69 583 OFFCURVE",
"69 444 CURVE SMOOTH",
"69 1 LINE",
"209 1 LINE",
"209 448 LINE SMOOTH",
"209 501 OFFCURVE",
"246 576 OFFCURVE",
"358 576 CURVE SMOOTH",
"491 576 OFFCURVE",
"507 498 OFFCURVE",
"507 448 CURVE SMOOTH",
"507 0 LINE"
);
}
);
width = 719;
}
);
leftKerningGroup = intersection;
note = intersection;
rightKerningGroup = intersection;
unicode = 2229;
},
{
glyphname = integral;
layers = (
{
layerId = "150D365C-6679-4329-86DF-DF48353E59C3";
paths = (
{
closed = 1;
nodes = (
"131 -108 OFFCURVE",
"217 -76 OFFCURVE",
"217 14 CURVE SMOOTH",
"217 171 OFFCURVE",
"191 794 OFFCURVE",
"191 794 CURVE",
"191 834 OFFCURVE",
"245 835 OFFCURVE",
"272 835 CURVE",
"272 903 LINE",
"140 923 OFFCURVE",
"54 881 OFFCURVE",
"54 791 CURVE SMOOTH",
"54 634 OFFCURVE",
"80 11 OFFCURVE",
"80 11 CURVE",
"80 -28 OFFCURVE",
"26 -30 OFFCURVE",
"-1 -30 CURVE",
"-1 -98 LINE"
);
}
);
width = 271;
}
);
leftKerningGroup = integral;
note = integral;
rightKerningGroup = integral;
unicode = 222B;
},
{
glyphname = Omega;
layers = (
{
layerId = "150D365C-6679-4329-86DF-DF48353E59C3";
paths = (
{
closed = 1;
nodes = (
"367 0 LINE",
"367 147 LINE",
"310 170 OFFCURVE",
"283 224 OFFCURVE",
"283 296 CURVE SMOOTH",
"283 376 LINE SMOOTH",
"283 470 OFFCURVE",
"331 535 OFFCURVE",
"427 535 CURVE SMOOTH",
"524 535 OFFCURVE",
"574 470 OFFCURVE",
"574 376 CURVE SMOOTH",
"574 296 LINE SMOOTH",
"574 224 OFFCURVE",
"545 169 OFFCURVE",
"488 147 CURVE",
"488 0 LINE",
"824 0 LINE",
"824 166 LINE",
"792 166 LINE",
"759 159 OFFCURVE",
"725 153 OFFCURVE",
"692 146 CURVE",
"754 204 OFFCURVE",
"799 285 OFFCURVE",
"799 386 CURVE SMOOTH",
"799 579 OFFCURVE",
"658 700 OFFCURVE",
"427 700 CURVE SMOOTH",
"197 700 OFFCURVE",
"57 579 OFFCURVE",
"57 386 CURVE SMOOTH",
"57 285 OFFCURVE",
"101 204 OFFCURVE",
"162 146 CURVE",
"129 153 OFFCURVE",
"95 159 OFFCURVE",
"62 166 CURVE",
"31 166 LINE",
"31 0 LINE"
);
}
);
width = 854;
}
);
leftKerningGroup = Omega;
note = uni03A9;
rightKerningGroup = Omega;
unicode = 2126;
},
{
glyphname = Delta;
layers = (
{
layerId = "150D365C-6679-4329-86DF-DF48353E59C3";
paths = (
{
closed = 1;
nodes = (
"766 0 LINE",
"526 688 LINE",
"265 688 LINE",
"26 0 LINE"
);
},
{
closed = 1;
nodes = (
"280 176 OFFCURVE",
"287 198 OFFCURVE",
"294 221 CURVE",
"360 429 LINE",
"370 461 OFFCURVE",
"380 492 OFFCURVE",
"390 524 CURVE",
"394 524 LINE",
"403 492 OFFCURVE",
"413 461 OFFCURVE",
"422 429 CURVE",
"485 218 LINE",
"492 196 OFFCURVE",
"498 175 OFFCURVE",
"505 153 CURVE",
"273 153 LINE"
);
}
);
width = 788;
}
);
leftKerningGroup = A;
note = uni0394;
rightKerningGroup = A;
unicode = 2206;
},
{
glyphname = product;
layers = (
{
layerId = "150D365C-6679-4329-86DF-DF48353E59C3";
paths = (
{
closed = 1;
nodes = (
"311 -138 LINE",
"311 579 LINE",
"513 579 LINE",
"513 -138 LINE",
"686 -138 LINE",
"686 579 LINE",
"803 579 LINE",
"803 725 LINE",
"21 725 LINE",
"21 579 LINE",
"138 579 LINE",
"138 -138 LINE"
);
}
);
width = 823;
}
);
leftKerningGroup = product;
note = product;
rightKerningGroup = product;
unicode = 220F;
},
{
glyphname = summation;
layers = (
{
layerId = "150D365C-6679-4329-86DF-DF48353E59C3";
paths = (
{
closed = 1;
nodes = (
"684 -138 LINE",
"684 10 LINE",
"267 10 LINE",
"267 15 LINE",
"478 318 LINE",
"301 574 LINE",
"301 578 LINE",
"658 578 LINE",
"658 726 LINE",
"42 726 LINE",
"42 615 LINE",
"268 293 LINE",
"29 -53 LINE",
"29 -138 LINE"
);
}
);
width = 713;
}
);
leftKerningGroup = summation;
note = summation;
rightKerningGroup = summation;
unicode = 2211;
},
{
glyphname = radical;
layers = (
{
layerId = "150D365C-6679-4329-86DF-DF48353E59C3";
paths = (
{
closed = 1;
nodes = (
"388 -146 LINE",
"599 842 LINE",
"493 842 LINE",
"323 22 LINE",
"316 48 OFFCURVE",
"306 81 OFFCURVE",
"295 111 CURVE SMOOTH",
"179 424 LINE",
"-33 337 LINE",
"-5 252 LINE",
"78 285 LINE",
"252 -146 LINE"
);
}
);
width = 549;
}
);
leftKerningGroup = radical;
note = radical;
rightKerningGroup = radical;
unicode = 221A;
},
{
glyphname = partialdiff;
layers = (
{
layerId = "150D365C-6679-4329-86DF-DF48353E59C3";
paths = (
{
closed = 1;
nodes = (
"390 -13 OFFCURVE",
"481 140 OFFCURVE",
"481 353 CURVE SMOOTH",
"481 568 OFFCURVE",
"363 700 OFFCURVE",
"213 700 CURVE SMOOTH",
"149 700 OFFCURVE",
"102 684 OFFCURVE",
"69 667 CURVE",
"69 539 LINE",
"89 550 OFFCURVE",
"130 570 OFFCURVE",
"187 570 CURVE SMOOTH",
"282 570 OFFCURVE",
"335 479 OFFCURVE",
"335 385 CURVE",
"335 378 OFFCURVE",
"334 371 OFFCURVE",
"334 364 CURVE",
"327 364 LINE",
"314 392 OFFCURVE",
"272 440 OFFCURVE",
"200 440 CURVE SMOOTH",
"87 440 OFFCURVE",
"9 341 OFFCURVE",
"9 206 CURVE SMOOTH",
"9 100 OFFCURVE",
"79 -13 OFFCURVE",
"226 -13 CURVE SMOOTH"
);
},
{
closed = 1;
nodes = (
"186 107 OFFCURVE",
"158 149 OFFCURVE",
"158 203 CURVE SMOOTH",
"158 270 OFFCURVE",
"191 326 OFFCURVE",
"241 326 CURVE SMOOTH",
"286 326 OFFCURVE",
"316 278 OFFCURVE",
"321 252 CURVE",
"314 187 OFFCURVE",
"278 107 OFFCURVE",
"225 107 CURVE SMOOTH"
);
}
);
width = 500;
}
);
leftKerningGroup = partialdiff;
note = partialdiff;
rightKerningGroup = partialdiff;
unicode = 2202;
},
{
glyphname = orthogonal;
layers = (
{
layerId = "150D365C-6679-4329-86DF-DF48353E59C3";
paths = (
{
closed = 1;
nodes = (
"802 0 LINE",
"802 112 LINE",
"299 112 LINE",
"299 625 LINE",
"177 625 LINE",
"177 0 LINE"
);
}
);
width = 979;
}
);
leftKerningGroup = orthogonal;
note = orthogonal;
rightKerningGroup = orthogonal;
unicode = 221F;
},
{
glyphname = percent;
layers = (
{
layerId = "150D365C-6679-4329-86DF-DF48353E59C3";
paths = (
{
closed = 1;
nodes = (
"342 0 LINE",
"759 687 LINE",
"650 687 LINE",
"231 0 LINE"
);
},
{
closed = 1;
nodes = (
"360 342 OFFCURVE",
"413 414 OFFCURVE",
"413 520 CURVE SMOOTH",
"413 628 OFFCURVE",
"360 700 OFFCURVE",
"230 700 CURVE SMOOTH",
"100 700 OFFCURVE",
"46 628 OFFCURVE",
"46 520 CURVE SMOOTH",
"46 414 OFFCURVE",
"100 342 OFFCURVE",
"230 342 CURVE SMOOTH"
);
},
{
closed = 1;
nodes = (
"187 418 OFFCURVE",
"170 455 OFFCURVE",
"170 505 CURVE SMOOTH",
"170 537 LINE SMOOTH",
"170 587 OFFCURVE",
"187 624 OFFCURVE",
"230 624 CURVE SMOOTH",
"274 624 OFFCURVE",
"289 587 OFFCURVE",
"289 537 CURVE SMOOTH",
"289 505 LINE SMOOTH",
"289 455 OFFCURVE",
"274 418 OFFCURVE",
"230 418 CURVE SMOOTH"
);
},
{
closed = 1;
nodes = (
"892 -12 OFFCURVE",
"945 60 OFFCURVE",
"945 166 CURVE SMOOTH",
"945 274 OFFCURVE",
"892 346 OFFCURVE",
"762 346 CURVE SMOOTH",
"632 346 OFFCURVE",
"578 274 OFFCURVE",
"578 166 CURVE SMOOTH",
"578 60 OFFCURVE",
"632 -12 OFFCURVE",
"762 -12 CURVE SMOOTH"
);
},
{
closed = 1;
nodes = (
"719 64 OFFCURVE",
"702 101 OFFCURVE",
"702 151 CURVE SMOOTH",
"702 183 LINE SMOOTH",
"702 233 OFFCURVE",
"719 270 OFFCURVE",
"762 270 CURVE SMOOTH",
"806 270 OFFCURVE",
"821 233 OFFCURVE",
"821 183 CURVE SMOOTH",
"821 151 LINE SMOOTH",
"821 101 OFFCURVE",
"806 64 OFFCURVE",
"762 64 CURVE SMOOTH"
);
}
);
width = 1000;
}
);
leftKerningGroup = percent;
note = percent;
rightKerningGroup = percent;
unicode = 0025;
},
{
glyphname = perthousand;
layers = (
{
layerId = "150D365C-6679-4329-86DF-DF48353E59C3";
paths = (
{
closed = 1;
nodes = (
"253 0 LINE",
"504 688 LINE",
"417 688 LINE",
"167 0 LINE"
);
},
{
closed = 1;
nodes = (
"262 342 OFFCURVE",
"294 414 OFFCURVE",
"294 521 CURVE SMOOTH",
"294 628 OFFCURVE",
"262 700 OFFCURVE",
"147 700 CURVE SMOOTH",
"33 700 OFFCURVE",
"0 628 OFFCURVE",
"0 521 CURVE SMOOTH",
"0 414 OFFCURVE",
"33 342 OFFCURVE",
"147 342 CURVE SMOOTH"
);
},
{
closed = 1;
nodes = (
"112 410 OFFCURVE",
"99 435 OFFCURVE",
"99 496 CURVE SMOOTH",
"99 546 LINE SMOOTH",
"99 607 OFFCURVE",
"112 632 OFFCURVE",
"147 632 CURVE SMOOTH",
"182 632 OFFCURVE",
"194 607 OFFCURVE",
"194 546 CURVE SMOOTH",
"194 496 LINE SMOOTH",
"194 435 OFFCURVE",
"182 410 OFFCURVE",
"147 410 CURVE SMOOTH"
);
},
{
closed = 1;
nodes = (
"637 -12 OFFCURVE",
"669 60 OFFCURVE",
"669 167 CURVE SMOOTH",
"669 274 OFFCURVE",
"637 346 OFFCURVE",
"522 346 CURVE SMOOTH",
"408 346 OFFCURVE",
"375 274 OFFCURVE",
"375 167 CURVE SMOOTH",
"375 60 OFFCURVE",
"408 -12 OFFCURVE",
"522 -12 CURVE SMOOTH"
);
},
{
closed = 1;
nodes = (
"487 56 OFFCURVE",
"474 81 OFFCURVE",
"474 142 CURVE SMOOTH",
"474 192 LINE SMOOTH",
"474 253 OFFCURVE",
"487 278 OFFCURVE",
"522 278 CURVE SMOOTH",
"557 278 OFFCURVE",
"569 253 OFFCURVE",
"569 192 CURVE SMOOTH",
"569 142 LINE SMOOTH",
"569 81 OFFCURVE",
"557 56 OFFCURVE",
"522 56 CURVE SMOOTH"
);
},
{
closed = 1;
nodes = (
"968 -12 OFFCURVE",
"1000 60 OFFCURVE",
"1000 167 CURVE SMOOTH",
"1000 274 OFFCURVE",
"968 346 OFFCURVE",
"853 346 CURVE SMOOTH",
"739 346 OFFCURVE",
"706 274 OFFCURVE",
"706 167 CURVE SMOOTH",
"706 60 OFFCURVE",
"739 -12 OFFCURVE",
"853 -12 CURVE SMOOTH"
);
},
{
closed = 1;
nodes = (
"818 56 OFFCURVE",
"805 81 OFFCURVE",
"805 142 CURVE SMOOTH",
"805 192 LINE SMOOTH",
"805 253 OFFCURVE",
"818 278 OFFCURVE",
"853 278 CURVE SMOOTH",
"888 278 OFFCURVE",
"900 253 OFFCURVE",
"900 192 CURVE SMOOTH",
"900 142 LINE SMOOTH",
"900 81 OFFCURVE",
"888 56 OFFCURVE",
"853 56 CURVE SMOOTH"
);
}
);
width = 1000;
}
);
leftKerningGroup = percent;
note = perthousand;
rightKerningGroup = percent;
unicode = 2030;
},
{
glyphname = revlogicalnot;
layers = (
{
layerId = "150D365C-6679-4329-86DF-DF48353E59C3";
paths = (
{
closed = 1;
nodes = (
"210 154 LINE",
"210 335 LINE",
"610 335 LINE",
"610 490 LINE",
"56 490 LINE",
"56 154 LINE"
);
}
);
width = 660;
}
);
leftKerningGroup = revlogicalnot;
note = revlogicalnot;
rightKerningGroup = revlogicalnot;
unicode = 2310;
},
{
glyphname = arrowup;
layers = (
{
layerId = "150D365C-6679-4329-86DF-DF48353E59C3";
paths = (
{
closed = 1;
nodes = (
"312 -206 LINE",
"312 486 LINE",
"452 443 LINE",
"452 514 LINE",
"260 711 LINE",
"239 711 LINE",
"46 514 LINE",
"46 443 LINE",
"186 486 LINE",
"186 -206 LINE"
);
}
);
width = 500;
}
);
leftKerningGroup = arrowup;
note = arrowup;
rightKerningGroup = arrowup;
unicode = 2191;
},
{
glyphname = arrowright;
layers = (
{
layerId = "150D365C-6679-4329-86DF-DF48353E59C3";
paths = (
{
closed = 1;
nodes = (
"762 50 LINE",
"959 242 LINE",
"959 263 LINE",
"762 455 LINE",
"691 455 LINE",
"734 316 LINE",
"42 316 LINE",
"42 189 LINE",
"734 189 LINE",
"691 50 LINE"
);
}
);
width = 1000;
}
);
leftKerningGroup = arrowright;
note = arrowright;
rightKerningGroup = arrowright;
unicode = 2192;
},
{
glyphname = arrowdown;
layers = (
{
layerId = "150D365C-6679-4329-86DF-DF48353E59C3";
paths = (
{
closed = 1;
nodes = (
"260 -206 LINE",
"452 -9 LINE",
"452 62 LINE",
"312 19 LINE",
"312 711 LINE",
"186 711 LINE",
"186 19 LINE",
"46 62 LINE",
"46 -9 LINE",
"239 -206 LINE"
);
}
);
width = 500;
}
);
leftKerningGroup = arrowdown;
note = arrowdown;
rightKerningGroup = arrowdown;
unicode = 2193;
},
{
glyphname = arrowleft;
layers = (
{
layerId = "150D365C-6679-4329-86DF-DF48353E59C3";
paths = (
{
closed = 1;
nodes = (
"310 50 LINE",
"267 189 LINE",
"959 189 LINE",
"959 316 LINE",
"267 316 LINE",
"310 455 LINE",
"239 455 LINE",
"42 263 LINE",
"42 242 LINE",
"239 50 LINE"
);
}
);
width = 1000;
}
);
leftKerningGroup = arrowleft;
note = arrowleft;
rightKerningGroup = arrowleft;
unicode = 2190;
},
{
glyphname = arrowboth;
layers = (
{
layerId = "150D365C-6679-4329-86DF-DF48353E59C3";
paths = (
{
closed = 1;
nodes = (
"310 50 LINE",
"267 189 LINE",
"734 189 LINE",
"691 50 LINE",
"762 50 LINE",
"959 242 LINE",
"959 263 LINE",
"762 455 LINE",
"691 455 LINE",
"734 316 LINE",
"267 316 LINE",
"310 455 LINE",
"239 455 LINE",
"42 263 LINE",
"42 242 LINE",
"239 50 LINE"
);
}
);
width = 1000;
}
);
leftKerningGroup = arrowboth;
note = arrowboth;
rightKerningGroup = arrowboth;
unicode = 2194;
},
{
glyphname = arrowupdn;
layers = (
{
layerId = "150D365C-6679-4329-86DF-DF48353E59C3";
paths = (
{
closed = 1;
nodes = (
"260 -206 LINE",
"452 -9 LINE",
"452 62 LINE",
"312 19 LINE",
"312 486 LINE",
"452 443 LINE",
"452 514 LINE",
"260 711 LINE",
"239 711 LINE",
"46 514 LINE",
"46 443 LINE",
"186 486 LINE",
"186 19 LINE",
"46 62 LINE",
"46 -9 LINE",
"239 -206 LINE"
);
}
);
width = 500;
}
);
leftKerningGroup = arrowupdn;
note = arrowupdn;
rightKerningGroup = arrowupdn;
unicode = 2195;
},
{
glyphname = arrowupdnbse;
layers = (
{
layerId = "150D365C-6679-4329-86DF-DF48353E59C3";
paths = (
{
closed = 1;
nodes = (
"260 -123 LINE",
"452 74 LINE",
"452 145 LINE",
"312 102 LINE",
"312 486 LINE",
"452 443 LINE",
"452 514 LINE",
"260 711 LINE",
"239 711 LINE",
"46 514 LINE",
"46 443 LINE",
"186 486 LINE",
"186 102 LINE",
"46 145 LINE",
"46 74 LINE",
"239 -123 LINE"
);
},
{
closed = 1;
nodes = (
"452 -220 LINE",
"452 -158 LINE",
"46 -158 LINE",
"46 -220 LINE"
);
}
);
width = 500;
}
);
leftKerningGroup = arrowupdnbse;
note = arrowupdnbse;
rightKerningGroup = arrowupdnbse;
unicode = 21A8;
},
{
glyphname = lozenge;
layers = (
{
layerId = "150D365C-6679-4329-86DF-DF48353E59C3";
paths = (
{
closed = 1;
nodes = (
"405 -133 LINE",
"553 298 LINE",
"405 728 LINE",
"183 728 LINE",
"34 298 LINE",
"183 -133 LINE"
);
},
{
closed = 1;
nodes = (
"210 298 LINE",
"296 567 LINE",
"382 298 LINE",
"296 28 LINE"
);
}
);
width = 598;
}
);
leftKerningGroup = lozenge;
note = lozenge;
rightKerningGroup = lozenge;
unicode = 25CA;
},
{
glyphname = at;
layers = (
{
background = {
paths = (
{
closed = 1;
nodes = (
"166 700 OFFCURVE",
"10 583 OFFCURVE",
"10 266 CURVE SMOOTH",
"10 -23 OFFCURVE",
"136 -149 OFFCURVE",
"340 -149 CURVE SMOOTH",
"378 -149 OFFCURVE",
"448 -138 OFFCURVE",
"485 -122 CURVE",
"485 -56 LINE",
"453 -74 OFFCURVE",
"381 -88 OFFCURVE",
"340 -88 CURVE SMOOTH",
"162 -88 OFFCURVE",
"78 31 OFFCURVE",
"78 265 CURVE SMOOTH",
"78 517 OFFCURVE",
"180 639 OFFCURVE",
"370 639 CURVE SMOOTH",
"530 639 OFFCURVE",
"642 547 OFFCURVE",
"642 324 CURVE SMOOTH",
"642 172 OFFCURVE",
"606 154 OFFCURVE",
"592 154 CURVE SMOOTH",
"577 154 OFFCURVE",
"563 160 OFFCURVE",
"563 184 CURVE SMOOTH",
"563 343 LINE SMOOTH",
"563 442 OFFCURVE",
"469 474 OFFCURVE",
"364 474 CURVE SMOOTH",
"232 474 OFFCURVE",
"162 423 OFFCURVE",
"162 349 CURVE SMOOTH",
"162 346 OFFCURVE",
"162 343 OFFCURVE",
"163 339 CURVE",
"312 339 LINE",
"312 370 OFFCURVE",
"339 378 OFFCURVE",
"362 378 CURVE SMOOTH",
"389 378 OFFCURVE",
"410 361 OFFCURVE",
"410 329 CURVE SMOOTH",
"410 309 LINE",
"244 309 OFFCURVE",
"151 286 OFFCURVE",
"151 165 CURVE SMOOTH",
"151 80 OFFCURVE",
"209 51 OFFCURVE",
"293 51 CURVE SMOOTH",
"357 51 OFFCURVE",
"397 76 OFFCURVE",
"427 104 CURVE",
"445 74 OFFCURVE",
"476 51 OFFCURVE",
"536 51 CURVE SMOOTH",
"616 51 OFFCURVE",
"710 114 OFFCURVE",
"710 323 CURVE SMOOTH",
"710 591 OFFCURVE",
"565 700 OFFCURVE",
"371 700 CURVE SMOOTH"
);
},
{
closed = 1;
nodes = (
"410 202 LINE SMOOTH",
"410 169 OFFCURVE",
"380 145 OFFCURVE",
"344 145 CURVE SMOOTH",
"324 145 OFFCURVE",
"302 152 OFFCURVE",
"302 184 CURVE SMOOTH",
"302 214 OFFCURVE",
"334 236 OFFCURVE",
"410 236 CURVE"
);
}
);
};
layerId = "150D365C-6679-4329-86DF-DF48353E59C3";
paths = (
{
closed = 1;
nodes = (
"509 -158 OFFCURVE",
"599 -144 OFFCURVE",
"653 -127 CURVE",
"653 -24 LINE",
"610 -42 OFFCURVE",
"514 -56 OFFCURVE",
"459 -56 CURVE SMOOTH",
"238 -56 OFFCURVE",
"137 50 OFFCURVE",
"137 261 CURVE SMOOTH",
"137 494 OFFCURVE",
"273 601 OFFCURVE",
"497 601 CURVE SMOOTH",
"695 601 OFFCURVE",
"830 523 OFFCURVE",
"830 322 CURVE SMOOTH",
"830 175 OFFCURVE",
"792 124 OFFCURVE",
"732 124 CURVE SMOOTH",
"709 124 OFFCURVE",
"693 133 OFFCURVE",
"693 165 CURVE SMOOTH",
"693 366 LINE SMOOTH",
"693 464 OFFCURVE",
"626 521 OFFCURVE",
"492 521 CURVE SMOOTH",
"375 521 OFFCURVE",
"293 461 OFFCURVE",
"293 381 CURVE SMOOTH",
"293 373 OFFCURVE",
"293 367 OFFCURVE",
"294 361 CURVE",
"429 361 LINE",
"429 375 LINE SMOOTH",
"429 394 OFFCURVE",
"435 422 OFFCURVE",
"496 422 CURVE SMOOTH",
"543 422 OFFCURVE",
"553 393 OFFCURVE",
"553 356 CURVE SMOOTH",
"553 330 LINE",
"388 330 OFFCURVE",
"269 289 OFFCURVE",
"269 162 CURVE SMOOTH",
"269 66 OFFCURVE",
"348 21 OFFCURVE",
"421 21 CURVE SMOOTH",
"498 21 OFFCURVE",
"539 48 OFFCURVE",
"571 84 CURVE",
"577 84 LINE",
"577 84 OFFCURVE",
"602 22 OFFCURVE",
"708 22 CURVE SMOOTH",
"821 22 OFFCURVE",
"944 94 OFFCURVE",
"944 321 CURVE SMOOTH",
"944 589 OFFCURVE",
"751 703 OFFCURVE",
"498 703 CURVE SMOOTH",
"245 703 OFFCURVE",
"24 581 OFFCURVE",
"24 262 CURVE SMOOTH",
"24 -30 OFFCURVE",
"181 -158 OFFCURVE",
"449 -158 CURVE SMOOTH"
);
},
{
closed = 1;
nodes = (
"428 119 OFFCURVE",
"410 146 OFFCURVE",
"410 169 CURVE SMOOTH",
"410 228 OFFCURVE",
"469 237 OFFCURVE",
"553 237 CURVE",
"553 222 LINE SMOOTH",
"553 162 OFFCURVE",
"540 119 OFFCURVE",
"465 119 CURVE SMOOTH"
);
}
);
width = 955;
}
);
leftKerningGroup = at;
note = at;
rightKerningGroup = at;
unicode = 0040;
},
{
glyphname = ampersand;
layers = (
{
layerId = "150D365C-6679-4329-86DF-DF48353E59C3";
paths = (
{
closed = 1;
nodes = (
"420 -12 OFFCURVE",
"497 3 OFFCURVE",
"569 34 CURVE",
"603 0 LINE",
"856 0 LINE",
"717 134 LINE",
"770 188 OFFCURVE",
"808 258 OFFCURVE",
"819 344 CURVE",
"627 344 LINE",
"627 305 OFFCURVE",
"618 272 OFFCURVE",
"602 244 CURVE",
"516 326 LINE",
"585 367 OFFCURVE",
"644 433 OFFCURVE",
"644 523 CURVE SMOOTH",
"644 638 OFFCURVE",
"541 700 OFFCURVE",
"424 700 CURVE SMOOTH",
"271 700 OFFCURVE",
"176 609 OFFCURVE",
"176 504 CURVE SMOOTH",
"176 466 OFFCURVE",
"187 429 OFFCURVE",
"209 394 CURVE",
"133 359 OFFCURVE",
"67 296 OFFCURVE",
"67 192 CURVE SMOOTH",
"67 53 OFFCURVE",
"196 -12 OFFCURVE",
"347 -12 CURVE SMOOTH"
);
},
{
closed = 1;
nodes = (
"324 129 OFFCURVE",
"269 153 OFFCURVE",
"269 209 CURVE SMOOTH",
"269 236 OFFCURVE",
"283 267 OFFCURVE",
"312 287 CURVE",
"461 140 LINE",
"436 133 OFFCURVE",
"411 129 OFFCURVE",
"387 129 CURVE SMOOTH"
);
},
{
closed = 1;
nodes = (
"383 449 OFFCURVE",
"372 484 OFFCURVE",
"372 512 CURVE SMOOTH",
"372 539 OFFCURVE",
"388 559 OFFCURVE",
"416 559 CURVE SMOOTH",
"446 559 OFFCURVE",
"459 541 OFFCURVE",
"459 516 CURVE SMOOTH",
"459 488 OFFCURVE",
"441 451 OFFCURVE",
"411 425 CURVE"
);
}
);
width = 889;
}
);
leftKerningGroup = ampersand;
note = ampersand;
rightKerningGroup = ampersand;
unicode = 0026;
},
{
glyphname = paragraph;
layers = (
{
layerId = "150D365C-6679-4329-86DF-DF48353E59C3";
paths = (
{
closed = 1;
nodes = (
"353 -161 LINE",
"353 567 LINE",
"459 567 LINE",
"459 -161 LINE",
"587 -161 LINE",
"587 567 LINE",
"653 567 LINE",
"653 688 LINE",
"234 688 LINE SMOOTH",
"114 688 OFFCURVE",
"18 591 OFFCURVE",
"18 471 CURVE SMOOTH",
"18 354 OFFCURVE",
"109 259 OFFCURVE",
"225 255 CURVE",
"225 -161 LINE"
);
}
);
width = 740;
}
);
leftKerningGroup = paragraph;
note = paragraph;
rightKerningGroup = I;
unicode = 00B6;
},
{
glyphname = section;
layers = (
{
layerId = "150D365C-6679-4329-86DF-DF48353E59C3";
paths = (
{
closed = 1;
nodes = (
"448 -184 OFFCURVE",
"598 -144 OFFCURVE",
"598 -13 CURVE SMOOTH",
"598 40 OFFCURVE",
"567 78 OFFCURVE",
"522 109 CURVE",
"553 130 OFFCURVE",
"613 180 OFFCURVE",
"613 261 CURVE SMOOTH",
"613 457 OFFCURVE",
"263 454 OFFCURVE",
"263 546 CURVE SMOOTH",
"263 573 OFFCURVE",
"305 582 OFFCURVE",
"339 582 CURVE SMOOTH",
"368 582 OFFCURVE",
"409 569 OFFCURVE",
"409 542 CURVE SMOOTH",
"409 537 LINE",
"590 537 LINE",
"590 540 OFFCURVE",
"590 544 OFFCURVE",
"590 547 CURVE SMOOTH",
"590 666 OFFCURVE",
"439 700 OFFCURVE",
"330 700 CURVE SMOOTH",
"219 700 OFFCURVE",
"69 660 OFFCURVE",
"69 529 CURVE SMOOTH",
"69 476 OFFCURVE",
"100 437 OFFCURVE",
"144 407 CURVE",
"113 386 OFFCURVE",
"54 335 OFFCURVE",
"54 255 CURVE SMOOTH",
"54 59 OFFCURVE",
"404 62 OFFCURVE",
"404 -30 CURVE SMOOTH",
"404 -57 OFFCURVE",
"362 -66 OFFCURVE",
"328 -66 CURVE SMOOTH",
"298 -66 OFFCURVE",
"258 -53 OFFCURVE",
"258 -25 CURVE SMOOTH",
"258 -21 LINE",
"77 -21 LINE",
"77 -24 OFFCURVE",
"77 -28 OFFCURVE",
"77 -31 CURVE SMOOTH",
"77 -150 OFFCURVE",
"228 -184 OFFCURVE",
"337 -184 CURVE SMOOTH"
);
},
{
closed = 1;
nodes = (
"319 206 OFFCURVE",
"221 239 OFFCURVE",
"221 301 CURVE SMOOTH",
"221 322 OFFCURVE",
"237 339 OFFCURVE",
"252 351 CURVE",
"348 310 OFFCURVE",
"446 277 OFFCURVE",
"446 215 CURVE SMOOTH",
"446 193 OFFCURVE",
"430 177 OFFCURVE",
"415 165 CURVE"
);
}
);
width = 667;
}
);
leftKerningGroup = section;
note = section;
rightKerningGroup = section;
unicode = 00A7;
},
{
glyphname = copyright;
layers = (
{
layerId = "150D365C-6679-4329-86DF-DF48353E59C3";
paths = (
{
closed = 1;
nodes = (
"610 -12 OFFCURVE",
"758 146 OFFCURVE",
"758 345 CURVE SMOOTH",
"758 544 OFFCURVE",
"610 700 OFFCURVE",
"400 700 CURVE SMOOTH",
"190 700 OFFCURVE",
"44 544 OFFCURVE",
"44 345 CURVE SMOOTH",
"44 146 OFFCURVE",
"190 -12 OFFCURVE",
"400 -12 CURVE SMOOTH"
);
},
{
closed = 1;
nodes = (
"531 130 OFFCURVE",
"604 191 OFFCURVE",
"604 305 CURVE",
"481 305 LINE",
"481 257 OFFCURVE",
"455 229 OFFCURVE",
"403 229 CURVE SMOOTH",
"346 229 OFFCURVE",
"326 265 OFFCURVE",
"326 346 CURVE SMOOTH",
"326 422 OFFCURVE",
"344 459 OFFCURVE",
"404 459 CURVE SMOOTH",
"451 459 OFFCURVE",
"477 428 OFFCURVE",
"477 381 CURVE",
"604 381 LINE",
"604 496 OFFCURVE",
"525 558 OFFCURVE",
"405 558 CURVE SMOOTH",
"263 558 OFFCURVE",
"190 485 OFFCURVE",
"190 344 CURVE SMOOTH",
"190 203 OFFCURVE",
"263 130 OFFCURVE",
"405 130 CURVE SMOOTH"
);
},
{
closed = 1;
nodes = (
"229 53 OFFCURVE",
"121 169 OFFCURVE",
"121 345 CURVE SMOOTH",
"121 521 OFFCURVE",
"229 636 OFFCURVE",
"400 636 CURVE SMOOTH",
"571 636 OFFCURVE",
"681 521 OFFCURVE",
"681 345 CURVE SMOOTH",
"681 169 OFFCURVE",
"571 53 OFFCURVE",
"400 53 CURVE SMOOTH"
);
}
);
width = 800;
}
);
leftKerningGroup = O;
note = copyright;
rightKerningGroup = O;
unicode = 00A9;
},
{
glyphname = registered;
layers = (
{
background = {
paths = (
{
closed = 1;
nodes = (
"232 551 LINE",
"232 138 LINE",
"365 138 LINE",
"365 284 LINE",
"384 284 LINE SMOOTH",
"436 284 OFFCURVE",
"438 240 OFFCURVE",
"438 205 CURVE SMOOTH",
"438 150 OFFCURVE",
"471 131 OFFCURVE",
"531 131 CURVE SMOOTH",
"554 131 OFFCURVE",
"582 134 OFFCURVE",
"604 143 CURVE",
"604 168 LINE",
"574 176 OFFCURVE",
"573 217 OFFCURVE",
"573 242 CURVE SMOOTH",
"573 288 OFFCURVE",
"553 326 OFFCURVE",
"506 339 CURVE",
"506 344 LINE",
"533 355 OFFCURVE",
"573 385 OFFCURVE",
"573 447 CURVE SMOOTH",
"573 510 OFFCURVE",
"521 551 OFFCURVE",
"458 551 CURVE SMOOTH"
);
},
{
closed = 1;
nodes = (
"365 376 LINE",
"365 457 LINE",
"400 457 LINE SMOOTH",
"421 457 OFFCURVE",
"438 440 OFFCURVE",
"438 417 CURVE SMOOTH",
"438 393 OFFCURVE",
"421 376 OFFCURVE",
"400 376 CURVE SMOOTH"
);
},
{
closed = 1;
nodes = (
"538 155 OFFCURVE",
"568 185 OFFCURVE",
"568 221 CURVE SMOOTH",
"568 257 OFFCURVE",
"538 287 OFFCURVE",
"502 287 CURVE SMOOTH",
"465 287 OFFCURVE",
"435 257 OFFCURVE",
"435 221 CURVE SMOOTH",
"435 185 OFFCURVE",
"465 155 OFFCURVE",
"502 155 CURVE SMOOTH"
);
}
);
};
layerId = "150D365C-6679-4329-86DF-DF48353E59C3";
paths = (
{
closed = 1;
nodes = (
"610 -12 OFFCURVE",
"758 146 OFFCURVE",
"758 345 CURVE SMOOTH",
"758 544 OFFCURVE",
"610 700 OFFCURVE",
"400 700 CURVE SMOOTH",
"190 700 OFFCURVE",
"44 544 OFFCURVE",
"44 345 CURVE SMOOTH",
"44 146 OFFCURVE",
"190 -12 OFFCURVE",
"400 -12 CURVE SMOOTH"
);
},
{
closed = 1;
nodes = (
"229 53 OFFCURVE",
"121 169 OFFCURVE",
"121 345 CURVE SMOOTH",
"121 521 OFFCURVE",
"229 636 OFFCURVE",
"400 636 CURVE SMOOTH",
"571 636 OFFCURVE",
"681 521 OFFCURVE",
"681 345 CURVE SMOOTH",
"681 169 OFFCURVE",
"571 53 OFFCURVE",
"400 53 CURVE SMOOTH"
);
},
{
closed = 1;
nodes = (
"365 138 LINE",
"365 284 LINE",
"397 284 LINE",
"453 138 LINE",
"598 138 LINE",
"517 306 LINE",
"550 334 OFFCURVE",
"578 374 OFFCURVE",
"578 426 CURVE SMOOTH",
"578 501 OFFCURVE",
"529 551 OFFCURVE",
"443 551 CURVE SMOOTH",
"232 551 LINE",
"232 138 LINE"
);
},
{
closed = 1;
nodes = (
"365 457 LINE",
"405 457 LINE SMOOTH",
"426 457 OFFCURVE",
"443 440 OFFCURVE",
"443 417 CURVE SMOOTH",
"443 393 OFFCURVE",
"426 376 OFFCURVE",
"405 376 CURVE SMOOTH",
"365 376 LINE"
);
}
);
width = 800;
}
);
leftKerningGroup = O;
note = registered;
rightKerningGroup = O;
unicode = 00AE;
},
{
glyphname = published;
layers = (
{
layerId = "150D365C-6679-4329-86DF-DF48353E59C3";
paths = (
{
closed = 1;
nodes = (
"610 -12 OFFCURVE",
"758 146 OFFCURVE",
"758 345 CURVE SMOOTH",
"758 544 OFFCURVE",
"610 700 OFFCURVE",
"400 700 CURVE SMOOTH",
"190 700 OFFCURVE",
"44 544 OFFCURVE",
"44 345 CURVE SMOOTH",
"44 146 OFFCURVE",
"190 -12 OFFCURVE",
"400 -12 CURVE SMOOTH"
);
},
{
closed = 1;
nodes = (
"229 53 OFFCURVE",
"121 169 OFFCURVE",
"121 345 CURVE SMOOTH",
"121 521 OFFCURVE",
"229 636 OFFCURVE",
"400 636 CURVE SMOOTH",
"571 636 OFFCURVE",
"681 521 OFFCURVE",
"681 345 CURVE SMOOTH",
"681 169 OFFCURVE",
"571 53 OFFCURVE",
"400 53 CURVE SMOOTH"
);
},
{
closed = 1;
nodes = (
"388 138 LINE",
"388 284 LINE",
"462 284 LINE SMOOTH",
"534 284 OFFCURVE",
"601 312 OFFCURVE",
"601 426 CURVE SMOOTH",
"601 501 OFFCURVE",
"552 551 OFFCURVE",
"466 551 CURVE SMOOTH",
"255 551 LINE",
"255 138 LINE"
);
},
{
closed = 1;
nodes = (
"388 457 LINE",
"428 457 LINE SMOOTH",
"449 457 OFFCURVE",
"466 440 OFFCURVE",
"466 417 CURVE SMOOTH",
"466 393 OFFCURVE",
"449 376 OFFCURVE",
"428 376 CURVE SMOOTH",
"388 376 LINE"
);
}
);
width = 800;
}
);
leftKerningGroup = published;
rightKerningGroup = published;
unicode = 2117;
},
{
glyphname = trademark;
layers = (
{
layerId = "150D365C-6679-4329-86DF-DF48353E59C3";
paths = (
{
closed = 1;
nodes = (
"555 290 LINE",
"555 529 LINE",
"559 529 LINE",
"621 290 LINE",
"721 290 LINE",
"784 530 LINE",
"788 530 LINE",
"788 290 LINE",
"914 290 LINE",
"914 688 LINE",
"740 688 LINE",
"682 458 LINE",
"677 458 LINE",
"618 688 LINE",
"438 688 LINE",
"438 290 LINE"
);
},
{
closed = 1;
nodes = (
"277 290 LINE",
"277 586 LINE",
"407 586 LINE",
"407 688 LINE",
"18 688 LINE",
"18 586 LINE",
"149 586 LINE",
"149 290 LINE"
);
}
);
width = 950;
}
);
leftKerningGroup = ordfeminine;
note = trademark;
rightKerningGroup = ordfeminine;
unicode = 2122;
},
